<svg xmlns="http://www.w3.org/2000/svg" viewBox="0 0 108 125">
  <defs>
    <style>
      .arrow-cls-1 {
        fill: #0f3445;
        stroke: #0f3445;
        stroke-linecap: round;
        stroke-linejoin: round;
        stroke-width: 6px;
      }
    </style>
  </defs>
  <title>arrow</title>
  <g id="Layer_4" data-name="Layer 4">
    <g>
      <path class="arrow-cls-1" d="M35.56,79.05A278.61,278.61,0,0,0,38,44.12,278.79,278.79,0,0,0,36,9.88,166.34,166.34,0,0,0,53.71,11a162.73,162.73,0,0,0,18.11-.85,279.63,279.63,0,0,0-.48,69.18Z"/>
      <path class="arrow-cls-1" d="M9.24,75.05c11,3.36,19.22,3.54,24.66,3.1,8.38-.69,10.33-2.85,19.17-3.07S64.54,77,73.85,77.51a76.16,76.16,0,0,0,23.39-2.4l-41.86,43.4Z"/>
    </g>
  </g>
</svg>
