<svg xmlns="http://www.w3.org/2000/svg" viewBox="0 0 1929 906">
  <defs>
    <style>
      .links-cls-1 {
        fill: #5a1a2b;
        opacity: 0.8;
      }

      .links-cls-2 {
        fill: none;
        stroke: #000;
        stroke-miterlimit: 10;
        stroke-width: 26px;
      }
    </style>
  </defs>
  <title>links</title>
  <g id="Layer_7" data-name="Layer 7">
    <g id="instagram">
      <path class="links-cls-1" d="M1833.86,428.1c-22.94,45.67-47.26,47.3-58,91.5-18.32,75.44,42.84,110.61,34,187-6.61,57.19-50.44,119.94-106,139-79.87,27.4-118.6-57.93-268-82-122.2-19.69-152.25,28.39-235-9-68.09-30.76-139.43-104.74-139-183,.43-77.11,70.16-87.06,101-201,25-92.24-12.54-116,14-177,47.6-109.44,205.1-187.48,290-144,61,31.21,40.34,102.56,105,137,87.79,46.77,177-57.44,243-13C1873.51,213.09,1875.9,344.42,1833.86,428.1Z"/>
      <rect class="links-cls-2" x="1234" y="305.98" width="462" height="360" rx="12"/>
      <circle class="links-cls-2" cx="1455" cy="501.98" r="112"/>
      <circle cx="1585" cy="372.98" r="19"/>
    </g>
    <g id="linkedin">
      <path class="links-cls-1" d="M803.84,428.1c-22.94,45.67-47.27,47.3-58,91.5-18.32,75.44,42.83,110.61,34,187-6.62,57.19-50.44,119.94-106,139-79.88,27.4-118.61-57.93-268-82-122.21-19.69-152.26,28.39-235-9-68.09-30.76-139.43-104.74-139-183,.42-77.11,70.15-87.06,101-201,25-92.24-12.55-116,14-177,47.59-109.44,205.09-187.48,290-144,60.94,31.21,40.33,102.56,105,137,87.79,46.77,177-57.44,243-13C843.48,213.09,845.87,344.42,803.84,428.1Z"/>
      <rect class="links-cls-2" x="206" y="293.02" width="462" height="360" rx="12"/>
      <g>
        <path d="M286.6,432.34h85.75v160.3H392v6.3H288v-6.3h19.25v-154H286.6Zm52.85-24.15q-18.56,0-26.43-9.45t-7.87-23.45q0-14,8.57-23.1t26.08-9.1q17.49,0,26.6,8.22t9.1,23.46q0,15.23-8.75,24.32T339.45,408.19Z"/>
        <path d="M399.64,432.34H484v32.2q5.6-16.1,17.15-25.9t35-9.8q54.26,0,54.25,58.45V592.64H610v6.3H510.94v-6.3h14.35V478.89q0-21-2.8-27.12t-10.15-6.13q-11.21,0-19.77,14.7T484,496v96.6H499v6.3h-99.4v-6.3h19.25v-154H399.64Z"/>
      </g>
    </g>
  </g>
</svg>
