<svg xmlns="http://www.w3.org/2000/svg" viewBox="0 0 1126 1035">
  <defs>
    <style>
      .cls-1 {
        fill: none;
        stroke: #e8e4d0;
        stroke-miterlimit: 10;
        stroke-width: 6px;
      }
    </style>
  </defs>
  <title>shape</title>
  <g id="Layer_3" data-name="Layer 3">
    <path class="cls-1" d="M926,506.5c-22.94,45.67-47.27,47.3-58,91.5-18.32,75.44,42.84,110.61,34,187-6.62,57.19-50.44,119.94-106,139-79.87,27.4-118.6-57.93-268-82-122.21-19.69-152.25,28.39-235-9-68.09-30.77-139.43-104.75-139-183,.42-77.12,70.16-87.06,101-201,25-92.24-12.55-116,14-177,54.94-126.33,266.72-142.25,290-144,54.48-4.1,258.9-19.47,348,124C951.08,323,964.75,429.35,926,506.5Z"/>
  </g>
</svg>
