<svg xmlns="http://www.w3.org/2000/svg" viewBox="0 0 890 900">
  <defs>
    <style>
      .cls-1 {
        fill: none;
        stroke: #e8e4d0;
        stroke-miterlimit: 10;
        stroke-width: 6px;
      }
    </style>
  </defs>
  <title>shape</title>
  <g id="Layer_3" data-name="Layer 3">
    <path class="cls-1" d="M805,436.5c-22.94,45.67-47.27,47.3-58,91.5-18.32,75.44,42.84,110.61,34,187-6.62,57.19-50.44,119.94-106,139-79.87,27.4-118.6-57.93-268-82-122.21-19.69-152.25,28.39-235-9C103.91,732.23,32.57,658.25,33,580c.42-77.12,70.16-87.06,101-201,25-92.24-12.55-116,14-177C202.94,75.67,414.72,59.75,438,58c54.48-4.1,258.9-19.47,348,124C830.08,253,843.75,359.35,805,436.5Z"/>
  </g>
</svg>
