<svg xmlns="http://www.w3.org/2000/svg" viewBox="0 0 2242 2167">
  <defs>
    <style>
      .skills-cls-1 {
        fill: #5a1a2b;
      }

      .skills-cls-1, .skills-cls-3 {
        opacity: 0.8;
      }

      .skills-cls-2, .skills-cls-4 {
        fill: none;
        stroke: #000;
        stroke-miterlimit: 10;
      }

      .skills-cls-2 {
        stroke-width: 6px;
      }

      .skills-cls-3 {
        fill: #0f3445;
      }

      .skills-cls-4 {
        stroke-width: 5px;
      }
    </style>
  </defs>
  <title>skills</title>
  <g id="skills_layer">
    <g id="indesign">
      <path class="skills-cls-1" d="M1309.5,808.52a41.35,41.35,0,0,1,.11,12.06c-1.87,13.33-10.47,19.85-21.23,37.2-5.42,8.75-9.68,15.91-12.28,20.34a64.86,64.86,0,0,0-4.55,12.11c-9.09,37.43,21.25,54.88,16.87,92.78-3.28,28.37-25,59.5-52.59,69-39.63,13.59-58.84-28.74-133-40.69-60.62-9.76-75.53,14.09-116.58-4.46-33.32-15.06-70.07-52.09-69-90.79.93-32.46,29.68-38.17,50.28-99.45a255.31,255.31,0,0,0,7.89-29.06q71.46,7.71,148,13C1187.9,804.9,1250,807.44,1309.5,808.52Z"/>
      <path class="skills-cls-2" d="M1300.33,844.84c-11.38,22.66-23.45,23.46-28.78,45.39-9.09,37.43,21.25,54.88,16.87,92.78-3.28,28.37-25,59.5-52.59,69-39.62,13.59-58.84-28.74-133-40.69-60.62-9.76-75.53,14.09-116.58-4.46-33.78-15.26-69.18-52-69-90.79.21-38.26,34.8-43.19,50.11-99.72a121.22,121.22,0,0,0,4.43-28c1.19-36.16-.15-45.55,2.51-59.85,6.3-33.89,46.51-63.39,86.62-69.5,4.75-.72,46.67-6.49,80,19,25.25,19.31,18.92,36.18,39,48,37.88,22.31,79.77-27.35,110.9-7.42C1324.78,740.27,1314.55,816.52,1300.33,844.84Z"/>
      <g>
        <path d="M982.57,873.2h1.74v-4.62a29.8,29.8,0,0,0-.63-7.65,2.43,2.43,0,0,0-2.43-1.95,3.48,3.48,0,0,0-2,.57,1.77,1.77,0,0,0-.87,1.56,6,6,0,0,0,.36,2h1.5a8.52,8.52,0,0,1,.48,3,3.92,3.92,0,0,1-1.5,3.06,5.59,5.59,0,0,1-3.78,1.29q-5.16,0-5.16-5,0-7.38,12.54-7.38,7.14,0,9.87,2.43t2.73,8.91v12.18q0,3.12,1.74,3.12,2,0,2.4-6.18l.9.06q-.24,5.28-2,7.26t-5.7,2q-7.2,0-8.28-4.44a6.46,6.46,0,0,1-2.34,3.36,8,8,0,0,1-4.56,1.08q-8.88,0-8.88-7.26,0-4.26,3.39-5.85T982.57,873.2Zm-2.07,11.4a1.24,1.24,0,0,0,1.26.9q.93,0,1.74-1.53a9.14,9.14,0,0,0,.81-4.23v-5.58h-.42q-3.72,0-3.72,5.46v1A14.84,14.84,0,0,0,980.5,884.6Z"/>
        <path d="M1021.51,887.3l-.66-4.2q-2,4.8-8.28,4.8a9.51,9.51,0,0,1-8-3.72q-2.85-3.72-2.85-11.1,0-14.94,11.88-14.94,5.28,0,7,2.94v-17.7h-3.66V842.3h15v43.92h2.94v1.08Zm-7.56-4a2.5,2.5,0,0,0,2.43,2.07,3.86,3.86,0,0,0,3.06-1.56,7.11,7.11,0,0,0,1.29-4.62V866.06a8.76,8.76,0,0,0-1-4.38,3.26,3.26,0,0,0-3-1.8q-2,0-2.7,2.64a40.18,40.18,0,0,0-.72,9.24v3.12Q1013.29,881.18,1014,883.25Z"/>
        <path d="M1040.71,884.06q-3.84-3.84-3.84-11t4.11-11q4.11-3.87,11.55-3.87t11.1,3.57q3.66,3.57,3.66,10.89,0,15.3-15.24,15.3Q1044.55,887.9,1040.71,884.06Zm15.06-8.58v-5.1a40.8,40.8,0,0,0-.63-8.49q-.63-2.67-2.91-2.67a3,3,0,0,0-2.13.75,4.6,4.6,0,0,0-1.17,2.49,45.65,45.65,0,0,0-.54,8.22v4.68q0,6.54.39,7.86a13.43,13.43,0,0,0,.81,2.16,2.56,2.56,0,0,0,2.58,1.44q2.34,0,3.06-2.7Q1055.77,882.2,1055.77,875.48Z"/>
        <path d="M1083.43,842.3v21a7.94,7.94,0,0,1,7.8-5.16q11.22,0,11.22,14.94,0,7.62-3.09,11.22t-9.27,3.6a9.61,9.61,0,0,1-4.77-1,5,5,0,0,1-2.25-3.18l-.42,3.54H1069v-1.08h3.3V843.38H1069V842.3Zm6.84,20.55q-.6-2.13-2.34-2.13t-3.12,2.16a11,11,0,0,0-1.38,5.94V880a8.56,8.56,0,0,0,1,4.38,3.3,3.3,0,0,0,3,1.8q1.95,0,2.67-2.64a40.18,40.18,0,0,0,.72-9.24v-3.12A36.88,36.88,0,0,0,1090.27,862.85Z"/>
        <path d="M1108.42,883.91q-3.87-4-3.87-11.1t4.35-10.89a16.27,16.27,0,0,1,11.07-3.78q13.62,0,13.08,13.68h-16.92v2.34q0,5.88,1.5,8.88a5.35,5.35,0,0,0,5.22,3q7,0,9.12-7.44l1.08.18a12.4,12.4,0,0,1-4.11,6.72q-3,2.4-8.91,2.4Q1112.29,887.9,1108.42,883.91Zm7.77-13.29h6.18v-2.94a25.33,25.33,0,0,0-.57-6.63,2.25,2.25,0,0,0-2.28-1.77,2.67,2.67,0,0,0-2.52,1.89,18.27,18.27,0,0,0-.81,6.51Z"/>
        <path d="M967.93,930.74h14.7v27.48H986v1.08H968.17v-1.08h3.3v-26.4h-3.54ZM977,926.6q-3.18,0-4.53-1.62a6.07,6.07,0,0,1-1.35-4,5.54,5.54,0,0,1,1.47-4,5.87,5.87,0,0,1,4.47-1.56,6.59,6.59,0,0,1,4.56,1.41,5.14,5.14,0,0,1,1.56,4,5.76,5.76,0,0,1-1.5,4.17A6.23,6.23,0,0,1,977,926.6Z"/>
        <path d="M987.31,930.74h14.46v5.52a10,10,0,0,1,2.94-4.44q2-1.68,6-1.68,9.3,0,9.3,10v18.06h3.36v1.08h-17v-1.08h2.46v-19.5a13.84,13.84,0,0,0-.48-4.65,1.75,1.75,0,0,0-1.74-1.05q-1.92,0-3.39,2.52a12,12,0,0,0-1.47,6.12v16.56h2.58v1.08h-17v-1.08h3.3v-26.4h-3.3Z"/>
        <path d="M1044.55,959.3l-.66-4.2q-2,4.8-8.28,4.8a9.51,9.51,0,0,1-8-3.72q-2.85-3.72-2.85-11.1,0-14.94,11.88-14.94,5.28,0,7,2.94v-17.7h-3.66V914.3h15v43.92h2.94v1.08Zm-7.56-4a2.5,2.5,0,0,0,2.43,2.07,3.86,3.86,0,0,0,3.06-1.56,7.11,7.11,0,0,0,1.29-4.62V938.06a8.76,8.76,0,0,0-1-4.38,3.26,3.26,0,0,0-3-1.8q-2,0-2.7,2.64a40.18,40.18,0,0,0-.72,9.24v3.12Q1036.33,953.18,1037,955.25Z"/>
        <path d="M1063.6,955.91q-3.87-4-3.87-11.1t4.35-10.89a16.27,16.27,0,0,1,11.07-3.78q13.62,0,13.08,13.68h-16.92v2.34q0,5.88,1.5,8.88a5.35,5.35,0,0,0,5.22,3q7,0,9.12-7.44l1.08.18a12.4,12.4,0,0,1-4.11,6.72q-3,2.4-8.91,2.4Q1067.47,959.9,1063.6,955.91Zm7.77-13.29h6.18v-2.94a25.33,25.33,0,0,0-.57-6.63,2.25,2.25,0,0,0-2.28-1.77,2.67,2.67,0,0,0-2.52,1.89,18.27,18.27,0,0,0-.81,6.51Z"/>
        <path d="M1091.17,959.9V949.16h.72q1.56,5.22,4.2,7.32a10.27,10.27,0,0,0,6.6,2.1q6.12,0,6.12-3.9a2.72,2.72,0,0,0-1.5-2.52,20.21,20.21,0,0,0-6-2,23.48,23.48,0,0,1-6.84-2.88q-3.3-2.16-3.3-6.84a9.92,9.92,0,0,1,2.88-7.47,10.57,10.57,0,0,1,7.68-2.79,14.93,14.93,0,0,1,6.06,1.38,5,5,0,0,0,1.74.48,1.39,1.39,0,0,0,1-.42,6.92,6.92,0,0,0,1-1.56h.66v9.18h-.72q-3.06-7.8-9.48-7.8a7.23,7.23,0,0,0-4.2,1,3,3,0,0,0-1.38,2.49,2.16,2.16,0,0,0,.42,1.41q.42.51.66.75a3.08,3.08,0,0,0,.78.51q.54.27.9.42t1.11.39a8.88,8.88,0,0,0,1.11.3,45.74,45.74,0,0,1,5.88,1.77,20.06,20.06,0,0,1,3.42,1.83q3.3,2.28,3.3,7.35t-3,7.68q-3,2.61-8.22,2.61a15.91,15.91,0,0,1-7.2-1.74,2.31,2.31,0,0,0-1.14-.48q-1.32,0-2.58,2.22Z"/>
        <path d="M1115.59,930.74h14.7v27.48h3.36v1.08h-17.82v-1.08h3.3v-26.4h-3.54Zm9.06-4.14q-3.18,0-4.53-1.62a6.07,6.07,0,0,1-1.35-4,5.54,5.54,0,0,1,1.47-4,5.87,5.87,0,0,1,4.47-1.56,6.59,6.59,0,0,1,4.56,1.41,5.14,5.14,0,0,1,1.56,4,5.76,5.76,0,0,1-1.5,4.17A6.23,6.23,0,0,1,1124.65,926.6Z"/>
        <path d="M1158.91,927.62l1.68-1q.36-1.86-1.44-1.86-2.58,0-2.58,4a18.12,18.12,0,0,0,.42,3.6q4.56,3.06,4.56,7.83a9,9,0,0,1-3.3,7.41q-3.3,2.64-8.94,2.64a26,26,0,0,1-4.86-.48q-2.64,1.68-2.64,2.52t3.84.84h6.12q13.62,0,13.62,9.78a9.92,9.92,0,0,1-4.11,8.37q-4.11,3.09-12.81,3.09-14.82,0-14.82-6.42,0-3.48,4.62-4.8l3.6,1.62a12.42,12.42,0,0,0-.48,3.3q0,5.16,7.68,5.16,4.68,0,7.2-1.74a5.12,5.12,0,0,0,2.52-4.32q0-2.58-1.53-3.45t-6.09-.87h-5.82q-4.86,0-7-1.62a4.88,4.88,0,0,1-2.1-4,5.55,5.55,0,0,1,1.5-4,27.31,27.31,0,0,1,5.34-3.93q-7-2-7-9.12a9.07,9.07,0,0,1,3.24-7.26q3.24-2.76,9.72-2.76a13.77,13.77,0,0,1,6.66,1.5,13.67,13.67,0,0,1-.36-2.94q0-3.36,1.8-4.86a6.12,6.12,0,0,1,4-1.5,5.26,5.26,0,0,1,3.57,1.17,4,4,0,0,1,1.35,3.21,3.92,3.92,0,0,1-1.08,3,3.73,3.73,0,0,1-2.61,1,3.85,3.85,0,0,1-2.52-.81A3,3,0,0,1,1158.91,927.62Zm-12.72,11.22v3.24a14.4,14.4,0,0,0,.69,5.46A2.23,2.23,0,0,0,1149,949a2.12,2.12,0,0,0,2-1.41q.63-1.41.63-5.79v-2.94q0-4.68-.6-6.15a2.07,2.07,0,0,0-2-1.47,2.29,2.29,0,0,0-2.13,1.53Q1146.19,934.28,1146.19,938.84Z"/>
        <path d="M1166.29,930.74h14.46v5.52a10,10,0,0,1,2.94-4.44q2-1.68,6-1.68,9.3,0,9.3,10v18.06h3.36v1.08h-17v-1.08h2.46v-19.5a13.84,13.84,0,0,0-.48-4.65,1.75,1.75,0,0,0-1.74-1.05q-1.92,0-3.39,2.52a12,12,0,0,0-1.47,6.12v16.56h2.58v1.08h-17v-1.08h3.3v-26.4h-3.3Z"/>
      </g>
    </g>
    <g id="xd">
      <path class="skills-cls-1" d="M1737.5,744.34c19.57,43.13,13.61,65.8,8.72,76.24-3.13,6.67-11.88,22.12-21.23,37.2-5.43,8.75-9.68,15.91-12.28,20.34a64.86,64.86,0,0,0-4.55,12.11c-9.09,37.43,21.25,54.88,16.86,92.78-3.28,28.37-25,59.5-52.58,69-39.63,13.59-58.84-28.74-133-40.69-60.63-9.76-75.54,14.09-116.59-4.46-33.32-15.06-70.07-52.09-69-90.79,1.1-38.46,35.28-45.5,50.29-99.45,8.24-29.65,5.67-56.42,2.28-74.24q72.74-3,151-3C1620.07,739.46,1680.14,741.26,1737.5,744.34Z"/>
      <path class="skills-cls-2" d="M1736.93,844.84c-11.38,22.66-23.45,23.46-28.77,45.39-9.09,37.43,21.25,54.88,16.86,92.78-3.28,28.37-25,59.5-52.58,69-39.63,13.59-58.84-28.74-133-40.69-60.63-9.76-75.54,14.09-116.59-4.46-33.78-15.26-69.17-52-69-90.79.21-38.26,34.81-43.19,50.11-99.72a121.31,121.31,0,0,0,4.44-28c1.13-34.45.72-47.42,2.51-59.85,5-34.82,51.24-71,94-73.5,49.7-3,58.13,41.58,129,55,52.66,10,70.77-10.31,93.5,8.58C1761.34,746.69,1750.85,817.12,1736.93,844.84Z"/>
      <g>
        <path d="M1419.18,873.2h1.74v-4.62a29.8,29.8,0,0,0-.63-7.65,2.43,2.43,0,0,0-2.43-1.95,3.48,3.48,0,0,0-1.95.57,1.77,1.77,0,0,0-.87,1.56,6,6,0,0,0,.36,2h1.5a8.52,8.52,0,0,1,.48,3,3.92,3.92,0,0,1-1.5,3.06,5.59,5.59,0,0,1-3.78,1.29q-5.16,0-5.16-5,0-7.38,12.54-7.38,7.14,0,9.87,2.43t2.73,8.91v12.18q0,3.12,1.74,3.12,2,0,2.4-6.18l.9.06q-.24,5.28-2,7.26t-5.7,2q-7.2,0-8.28-4.44a6.46,6.46,0,0,1-2.34,3.36,8,8,0,0,1-4.56,1.08q-8.88,0-8.88-7.26,0-4.26,3.39-5.85T1419.18,873.2Zm-2.07,11.4a1.24,1.24,0,0,0,1.26.9q.93,0,1.74-1.53a9.14,9.14,0,0,0,.81-4.23v-5.58h-.42q-3.72,0-3.72,5.46v1A14.84,14.84,0,0,0,1417.11,884.6Z"/>
        <path d="M1458.12,887.3l-.66-4.2q-2,4.8-8.28,4.8a9.51,9.51,0,0,1-8-3.72q-2.85-3.72-2.85-11.1,0-14.94,11.88-14.94,5.28,0,7,2.94v-17.7h-3.66V842.3h15v43.92h2.94v1.08Zm-7.56-4a2.5,2.5,0,0,0,2.43,2.07,3.86,3.86,0,0,0,3.06-1.56,7.11,7.11,0,0,0,1.29-4.62V866.06a8.76,8.76,0,0,0-1-4.38,3.26,3.26,0,0,0-3-1.8q-2,0-2.7,2.64a40.18,40.18,0,0,0-.72,9.24v3.12Q1449.9,881.18,1450.56,883.25Z"/>
        <path d="M1477.32,884.06q-3.84-3.84-3.84-11t4.11-11q4.11-3.87,11.55-3.87t11.1,3.57q3.66,3.57,3.66,10.89,0,15.3-15.24,15.3Q1481.16,887.9,1477.32,884.06Zm15.06-8.58v-5.1a40.8,40.8,0,0,0-.63-8.49q-.63-2.67-2.91-2.67a3,3,0,0,0-2.13.75,4.6,4.6,0,0,0-1.17,2.49,45.65,45.65,0,0,0-.54,8.22v4.68q0,6.54.39,7.86a13.43,13.43,0,0,0,.81,2.16,2.56,2.56,0,0,0,2.58,1.44q2.34,0,3.06-2.7Q1492.38,882.2,1492.38,875.48Z"/>
        <path d="M1520,842.3v21a7.94,7.94,0,0,1,7.8-5.16q11.22,0,11.22,14.94,0,7.62-3.09,11.22t-9.27,3.6a9.61,9.61,0,0,1-4.77-1,5,5,0,0,1-2.25-3.18l-.42,3.54h-13.68v-1.08h3.3V843.38h-3.3V842.3Zm6.84,20.55q-.6-2.13-2.34-2.13t-3.12,2.16a11,11,0,0,0-1.38,5.94V880a8.56,8.56,0,0,0,1,4.38,3.3,3.3,0,0,0,3,1.8q2,0,2.67-2.64a40.18,40.18,0,0,0,.72-9.24v-3.12A36.88,36.88,0,0,0,1526.88,862.85Z"/>
        <path d="M1545,883.91q-3.87-4-3.87-11.1t4.35-10.89a16.27,16.27,0,0,1,11.07-3.78q13.62,0,13.08,13.68h-16.92v2.34q0,5.88,1.5,8.88a5.35,5.35,0,0,0,5.22,3q7,0,9.12-7.44l1.08.18a12.4,12.4,0,0,1-4.11,6.72q-3,2.4-8.91,2.4Q1548.9,887.9,1545,883.91Zm7.77-13.29H1559v-2.94a25.33,25.33,0,0,0-.57-6.63,2.25,2.25,0,0,0-2.28-1.77,2.67,2.67,0,0,0-2.52,1.89,18.27,18.27,0,0,0-.81,6.51Z"/>
        <path d="M1426.2,941.6l7.08-9.78H1429v-1.08h8.94v1.08h-3.12l-7.8,11,9.78,15.36h3.12v1.08h-20v-1.08h4.26l-6.6-10.8-6.84,10.8h4v1.08h-9.42v-1.08h4l7.62-12-9.12-14.4h-3.48v-1.08h20.28v1.08h-4.2Z"/>
        <path d="M1459.08,959.3l-.66-4.2q-2,4.8-8.28,4.8a9.51,9.51,0,0,1-8-3.72q-2.85-3.72-2.85-11.1,0-14.94,11.88-14.94,5.28,0,7,2.94v-17.7h-3.66V914.3h15v43.92h2.94v1.08Zm-7.56-4a2.5,2.5,0,0,0,2.43,2.07,3.86,3.86,0,0,0,3.06-1.56,7.11,7.11,0,0,0,1.29-4.62V938.06a8.76,8.76,0,0,0-1-4.38,3.26,3.26,0,0,0-3-1.8q-2,0-2.7,2.64a40.18,40.18,0,0,0-.72,9.24v3.12Q1450.86,953.18,1451.52,955.25Z"/>
      </g>
    </g>
    <g id="premiere">
      <path class="skills-cls-1" d="M2142.51,878.25c26.69-46.42,33.3-57.72,33.39-57.67s-9.26,17.89-21.23,37.2c-5.42,8.75-9.68,15.91-12.28,20.34a64.86,64.86,0,0,0-4.55,12.11c-9.09,37.43,21.25,54.88,16.87,92.78-3.29,28.37-25,59.5-52.59,69-39.63,13.59-58.84-28.74-133-40.69-60.63-9.76-75.53,14.09-116.59-4.46-30.69-13.87-73.8-48-69-90.79,3.66-32.26,32.49-52,39.9-56.78h0a964.08,964.08,0,0,1,319,19Z"/>
      <path class="skills-cls-2" d="M2166.61,844.84c-11.38,22.66-23.45,23.46-28.77,45.39-9.09,37.43,21.25,54.88,16.87,92.78-3.29,28.37-25,59.5-52.59,69-39.63,13.59-58.84-28.74-133-40.69-60.63-9.76-75.53,14.09-116.59-4.46-33.78-15.26-69.17-52-69-90.79.21-38.26,34.81-43.19,50.11-99.72a120.77,120.77,0,0,0,4.44-28c1-31,1.44-45.5,2.51-59.85,1.83-24.57,14-57.52,38.33-76.5,34.6-27,90.36-23.11,125,0,35.66,23.78,28.16,54,61,68,38.64,16.41,65.31-18.58,92.19-1.42C2191.09,740.22,2181.14,815.93,2166.61,844.84Z"/>
      <g>
        <path d="M1871.86,817.2h1.74v-4.62a29.8,29.8,0,0,0-.63-7.65,2.43,2.43,0,0,0-2.43-1.95,3.48,3.48,0,0,0-2,.57,1.77,1.77,0,0,0-.87,1.56,6,6,0,0,0,.36,2h1.5a8.52,8.52,0,0,1,.48,3,3.92,3.92,0,0,1-1.5,3.06,5.59,5.59,0,0,1-3.78,1.29q-5.16,0-5.16-5,0-7.38,12.54-7.38,7.14,0,9.87,2.43t2.73,8.91v12.18q0,3.12,1.74,3.12,2,0,2.4-6.18l.9.06q-.24,5.28-2,7.26t-5.7,2q-7.2,0-8.28-4.44a6.46,6.46,0,0,1-2.34,3.36,8,8,0,0,1-4.56,1.08q-8.88,0-8.88-7.26,0-4.26,3.39-5.85T1871.86,817.2Zm-2.07,11.4a1.24,1.24,0,0,0,1.26.9q.93,0,1.74-1.53a9.14,9.14,0,0,0,.81-4.23v-5.58h-.42q-3.72,0-3.72,5.46v1A14.84,14.84,0,0,0,1869.79,828.6Z"/>
        <path d="M1910.8,831.3l-.66-4.2q-2,4.8-8.28,4.8a9.51,9.51,0,0,1-8-3.72q-2.85-3.72-2.85-11.1,0-14.94,11.88-14.94,5.28,0,7,2.94v-17.7h-3.66V786.3h15v43.92h2.94v1.08Zm-7.56-4a2.5,2.5,0,0,0,2.43,2.07,3.86,3.86,0,0,0,3.06-1.56,7.11,7.11,0,0,0,1.29-4.62V810.06a8.76,8.76,0,0,0-1-4.38,3.26,3.26,0,0,0-3-1.8q-2,0-2.7,2.64a40.18,40.18,0,0,0-.72,9.24v3.12Q1902.58,825.18,1903.24,827.25Z"/>
        <path d="M1930,828.06q-3.84-3.84-3.84-11t4.11-11q4.11-3.87,11.55-3.87t11.1,3.57q3.66,3.57,3.66,10.89,0,15.3-15.24,15.3Q1933.84,831.9,1930,828.06Zm15.06-8.58v-5.1a40.8,40.8,0,0,0-.63-8.49q-.63-2.67-2.91-2.67a3,3,0,0,0-2.13.75,4.6,4.6,0,0,0-1.17,2.49,45.65,45.65,0,0,0-.54,8.22v4.68q0,6.54.39,7.86a13.43,13.43,0,0,0,.81,2.16,2.56,2.56,0,0,0,2.58,1.44q2.34,0,3.06-2.7Q1945.06,826.2,1945.06,819.48Z"/>
        <path d="M1972.72,786.3v21a7.94,7.94,0,0,1,7.8-5.16q11.22,0,11.22,14.94,0,7.62-3.09,11.22t-9.27,3.6a9.61,9.61,0,0,1-4.77-1,5,5,0,0,1-2.25-3.18l-.42,3.54h-13.68v-1.08h3.3V787.38h-3.3V786.3Zm6.84,20.55q-.6-2.13-2.34-2.13t-3.12,2.16a11,11,0,0,0-1.38,5.94V824a8.56,8.56,0,0,0,1,4.38,3.3,3.3,0,0,0,3,1.8q1.95,0,2.67-2.64a40.18,40.18,0,0,0,.72-9.24v-3.12A36.88,36.88,0,0,0,1979.56,806.85Z"/>
        <path d="M1997.71,827.91q-3.87-4-3.87-11.1t4.35-10.89a16.27,16.27,0,0,1,11.07-3.78q13.62,0,13.08,13.68h-16.92v2.34q0,5.88,1.5,8.88a5.35,5.35,0,0,0,5.22,3q7,0,9.12-7.44l1.08.18a12.4,12.4,0,0,1-4.11,6.72q-3,2.4-8.91,2.4Q2001.58,831.9,1997.71,827.91Zm7.77-13.29h6.18v-2.94a25.33,25.33,0,0,0-.57-6.63,2.25,2.25,0,0,0-2.28-1.77,2.67,2.67,0,0,0-2.52,1.89,18.27,18.27,0,0,0-.81,6.51Z"/>
        <path d="M1871.8,874.74v4.74a8.34,8.34,0,0,1,8.28-5.34,9.51,9.51,0,0,1,8,3.72q2.85,3.72,2.85,11.28t-3.09,11.16q-3.09,3.6-9.27,3.6a10,10,0,0,1-4.32-.72,5.66,5.66,0,0,1-2.34-2.22V916.5h7.74v1.08h-22.2V916.5h3.3V875.82h-3.18v-1.08Zm7,4.11q-.6-2.13-2.34-2.13T1873.3,879a11.46,11.46,0,0,0-1.38,6v11a8.76,8.76,0,0,0,1,4.38,3.26,3.26,0,0,0,3,1.8q2,0,2.7-2.64a40.18,40.18,0,0,0,.72-9.24v-3.12A36.88,36.88,0,0,0,1878.76,878.85Z"/>
        <path d="M1912.78,876.42q-2.22,0-3.9,2.88a13.34,13.34,0,0,0-1.68,6.84v16.08h4.26v1.08h-18.72v-1.08h3.3v-26.4h-3.3v-1.08h14.46v5.76a8.14,8.14,0,0,1,3-4.71,8.23,8.23,0,0,1,5-1.65,6.61,6.61,0,0,1,4.59,1.59,5.74,5.74,0,0,1,1.77,4.5,6.74,6.74,0,0,1-1.32,4.47,5,5,0,0,1-4,1.56,4.61,4.61,0,0,1-4-1.8q-1.29-1.8-.33-5H1914Q1915.54,876.42,1912.78,876.42Z"/>
        <path d="M1926.31,899.91q-3.87-4-3.87-11.1t4.35-10.89a16.27,16.27,0,0,1,11.07-3.78q13.62,0,13.08,13.68H1934v2.34q0,5.88,1.5,8.88a5.35,5.35,0,0,0,5.22,3q7,0,9.12-7.44l1.08.18a12.4,12.4,0,0,1-4.11,6.72q-3,2.4-8.91,2.4Q1930.18,903.9,1926.31,899.91Zm7.77-13.29h6.18v-2.94a25.33,25.33,0,0,0-.57-6.63,2.25,2.25,0,0,0-2.28-1.77,2.67,2.67,0,0,0-2.52,1.89,18.27,18.27,0,0,0-.81,6.51Z"/>
        <path d="M1953.1,874.74h14.46v5.52q2-6.12,8.73-6.12t8.19,6.48q2.1-6.48,8.82-6.48,8.82,0,8.82,10v18.06h3.36v1.08h-16.62v-1.08h2.1v-19.5q0-4.56-.78-5.34a1.3,1.3,0,0,0-1-.36q-1.74,0-3.06,2.34a12,12,0,0,0-1.32,5.94v16.92H1987v1.08h-15.42v-1.08h2.1v-19.5q0-4.56-.78-5.34a1.3,1.3,0,0,0-1-.36q-1.68,0-3,2.55a12.85,12.85,0,0,0-1.35,6.09v16.56h2.16v1.08H1953.1v-1.08h3.3v-26.4h-3.3Z"/>
        <path d="M2006.14,874.74h14.7v27.48h3.36v1.08h-17.82v-1.08h3.3v-26.4h-3.54Zm9.06-4.14q-3.18,0-4.53-1.62a6.07,6.07,0,0,1-1.35-4,5.54,5.54,0,0,1,1.47-4,5.87,5.87,0,0,1,4.47-1.56,6.59,6.59,0,0,1,4.56,1.41,5.14,5.14,0,0,1,1.56,4,5.76,5.76,0,0,1-1.5,4.17A6.23,6.23,0,0,1,2015.2,870.6Z"/>
        <path d="M2029.57,899.91q-3.87-4-3.87-11.1t4.35-10.89a16.27,16.27,0,0,1,11.07-3.78q13.62,0,13.08,13.68h-16.92v2.34q0,5.88,1.5,8.88a5.35,5.35,0,0,0,5.22,3q7,0,9.12-7.44l1.08.18a12.4,12.4,0,0,1-4.11,6.72q-3,2.4-8.91,2.4Q2033.44,903.9,2029.57,899.91Zm7.77-13.29h6.18v-2.94a25.33,25.33,0,0,0-.57-6.63,2.25,2.25,0,0,0-2.28-1.77,2.67,2.67,0,0,0-2.52,1.89,18.27,18.27,0,0,0-.81,6.51Z"/>
        <path d="M2076.39,876.42c-1.47,0-2.78,1-3.89,2.88a13.34,13.34,0,0,0-1.69,6.84v16.08h4.27v1.08h-18.73v-1.08h3.31v-26.4h-3.31v-1.08h14.46v5.76a8.14,8.14,0,0,1,3-4.71,8.23,8.23,0,0,1,5-1.65,6.65,6.65,0,0,1,4.6,1.59,5.76,5.76,0,0,1,1.76,4.5,6.74,6.74,0,0,1-1.32,4.47,5,5,0,0,1-4,1.56,4.58,4.58,0,0,1-4-1.8q-1.3-1.8-.33-5h2.16Q2079.15,876.42,2076.39,876.42Z"/>
        <path d="M2089.92,899.91q-3.86-4-3.86-11.1c0-4.74,1.44-8.37,4.35-10.89a16.25,16.25,0,0,1,11.07-3.78q13.61,0,13.08,13.68h-16.92v2.34c0,3.92.49,6.88,1.5,8.88a5.34,5.34,0,0,0,5.22,3q7,0,9.12-7.44l1.08.18a12.52,12.52,0,0,1-4.11,6.72c-2,1.6-4.95,2.4-8.91,2.4Q2093.8,903.9,2089.92,899.91Zm7.78-13.29h6.18v-2.94a25.79,25.79,0,0,0-.57-6.63,2.25,2.25,0,0,0-2.28-1.77,2.68,2.68,0,0,0-2.53,1.89,18.32,18.32,0,0,0-.8,6.51Z"/>
        <path d="M1871.8,946.74v4.74a8.34,8.34,0,0,1,8.28-5.34,9.51,9.51,0,0,1,8,3.72q2.85,3.72,2.85,11.28t-3.09,11.16q-3.09,3.6-9.27,3.6a10,10,0,0,1-4.32-.72,5.66,5.66,0,0,1-2.34-2.22V988.5h7.74v1.08h-22.2V988.5h3.3V947.82h-3.18v-1.08Zm7,4.11q-.6-2.13-2.34-2.13T1873.3,951a11.46,11.46,0,0,0-1.38,6v11a8.76,8.76,0,0,0,1,4.38,3.26,3.26,0,0,0,3,1.8q2,0,2.7-2.64a40.18,40.18,0,0,0,.72-9.24v-3.12A36.88,36.88,0,0,0,1878.76,950.85Z"/>
        <path d="M1912.78,948.42q-2.22,0-3.9,2.88a13.34,13.34,0,0,0-1.68,6.84v16.08h4.26v1.08h-18.72v-1.08h3.3v-26.4h-3.3v-1.08h14.46v5.76a8.14,8.14,0,0,1,3-4.71,8.23,8.23,0,0,1,5-1.65,6.61,6.61,0,0,1,4.59,1.59,5.74,5.74,0,0,1,1.77,4.5,6.74,6.74,0,0,1-1.32,4.47,5,5,0,0,1-4,1.56,4.61,4.61,0,0,1-4-1.8q-1.29-1.8-.33-5H1914Q1915.54,948.42,1912.78,948.42Z"/>
        <path d="M1926.46,972.06q-3.84-3.84-3.84-11t4.11-11q4.11-3.87,11.55-3.87t11.1,3.57q3.66,3.57,3.66,10.89,0,15.3-15.24,15.3Q1930.3,975.9,1926.46,972.06Zm15.06-8.58v-5.1a40.8,40.8,0,0,0-.63-8.49q-.63-2.67-2.91-2.67a3,3,0,0,0-2.13.75,4.6,4.6,0,0,0-1.17,2.49,45.65,45.65,0,0,0-.54,8.22v4.68q0,6.54.39,7.86a13.43,13.43,0,0,0,.81,2.16,2.56,2.56,0,0,0,2.58,1.44q2.34,0,3.06-2.7Q1941.52,970.2,1941.52,963.48Z"/>
      </g>
    </g>
    <g id="html">
      <path class="skills-cls-1" d="M718,263c17.91,46,11.1,69.42,5.91,80-3.89,7.93-19.06,33.71-21.23,37.2-5.42,8.75-9.68,15.91-12.28,20.33a65.11,65.11,0,0,0-4.55,12.12c-9.09,37.43,21.25,54.88,16.87,92.77-3.29,28.38-25,59.51-52.59,69-39.63,13.6-58.84-28.74-133-40.68-60.63-9.77-75.53,14.09-116.59-4.46-33.32-15.06-70.06-52.09-69-90.79,1.08-37.61,43.68-60.93,50.29-99.45A223.78,223.78,0,0,0,385,312c.41-11.73-.6-17.68,0-31a207.36,207.36,0,0,1,2-21c47-3.22,97.11-5.09,150-5C601.55,255.12,662.06,258.15,718,263Z"/>
      <path class="skills-cls-2" d="M714.62,367.26c-11.38,22.65-23.45,23.46-28.77,45.39-9.09,37.43,21.25,54.88,16.87,92.77-3.29,28.38-25,59.51-52.59,69-39.63,13.6-58.84-28.74-133-40.68-60.63-9.77-75.53,14.09-116.59-4.46-33.78-15.27-69.17-52-69-90.79.21-38.26,34.81-43.19,50.11-99.72a120.84,120.84,0,0,0,4.44-28c1.21-36.7-1-44.78,2.51-59.84,7.94-34.31,48.86-52.17,64.32-58.92,13.83-6,55.49-24.23,89-6,23.47,12.77,17.64,29.65,39,45,41.65,29.94,90.43-16.14,124.2,10C734.87,264,734.47,327.74,714.62,367.26Z"/>
      <g>
        <path d="M402.76,365.22h28.08v1.71h-5.22v27.9h17.91v-27.9h-5.31v-1.71h28.17v1.71h-5.31v59.58h5.31v1.71H438.22v-1.71h5.31V397.17H425.62v29.34h5.22v1.71H402.76v-1.71h5.31V366.93h-5.31Z"/>
        <path d="M525.52,365.22l.9,22.59h-1.71q-4-12-7-16.34a10.11,10.11,0,0,0-8.82-4.36h-1.08v59.22h7.65v1.89H482.59v-1.89h7.65V367.11h-1.17a10.2,10.2,0,0,0-8.91,4.54q-3.15,4.55-6.93,16.16h-1.71l.9-22.59Z"/>
        <path d="M579.07,365.22h24v1.71h-5v59.58h5v1.71H575.65v-1.71h5V370.26h-.36l-13.5,58H555.49L539.65,370h-.36v56.52h5v1.71H532v-1.71h5V366.93h-5v-1.71h24.3l12,46.35Z"/>
        <path d="M607.24,365.22h32.4v2H630.1v59h3.24q7.65,0,12.19-4.68t9.23-14.4h1.89l-1.71,21.06h-47.7v-2h5.31v-59h-5.31Z"/>
      </g>
    </g>
    <g id="css">
      <path class="skills-cls-1" d="M1228,274c16.52,37.21,11.6,58.37,6.91,69-2.53,5.72-8.37,16.45-21.23,37.2-5.42,8.75-9.68,15.91-12.28,20.33a65.11,65.11,0,0,0-4.55,12.12c-9.09,37.43,21.25,54.88,16.87,92.77-3.29,28.38-25,59.51-52.59,69-39.63,13.6-58.84-28.74-133-40.68-60.63-9.77-75.53,14.09-116.59-4.46-33.32-15.06-70.06-52.09-69-90.79,1.06-37,41.46-58.9,50.29-99.45A186.35,186.35,0,0,0,897,311c.49-10.58-.43-16.54,0-32,.21-7.62.66-13.87,1-18,47.8-1.6,98.57-1.79,152,0C1113.29,263.12,1172.77,267.77,1228,274Z"/>
      <path class="skills-cls-2" d="M1225.62,367.26c-11.38,22.65-23.45,23.46-28.77,45.39-9.09,37.43,21.25,54.88,16.87,92.77-3.29,28.38-25,59.51-52.59,69-39.63,13.6-58.84-28.74-133-40.68-60.63-9.77-75.53,14.09-116.59-4.46-33.78-15.27-69.17-52-69-90.79.21-38.26,34.81-43.19,50.11-99.72a120.84,120.84,0,0,0,4.44-28c1.14-34.44,0-44.65,2.51-59.84C906.08,212.22,947,189,954,185c3.86-2.19,53.23-29.29,99-9,31.34,13.89,28.36,30.32,57,51,38.1,27.51,75.56-10.2,106.2,14C1246,264.49,1245.55,327.59,1225.62,367.26Z"/>
      <g>
        <path d="M975.07,364.39q-17.52,0-17.52,33.78v8.93q0,16,4.64,25.14t13.67,9.1q12.43,0,22.83-24.18h2l-.79,25.2h-1.24a7,7,0,0,0-1.25-1.76,2.37,2.37,0,0,0-1.64-.5,67,67,0,0,0-8.19,1.75,60.68,60.68,0,0,1-14.46,1.75q-18.42,0-28.54-10T934.5,403.77q0-19.95,10.57-30.8t28.42-10.84a52.42,52.42,0,0,1,13.5,1.75,54.69,54.69,0,0,0,7.74,1.75,2.44,2.44,0,0,0,1.69-.51,6.65,6.65,0,0,0,1.25-1.75h1.24l.91,24.52h-2q-5.09-11.42-10.45-17.46T975.07,364.39Z"/>
        <path d="M1041.74,441.23a17,17,0,0,0,10-3.06q4.35-3,4.35-9.21a10.82,10.82,0,0,0-4.69-9.43q-4.7-3.27-13.33-5.71a92.26,92.26,0,0,1-12.55-4.23,33.54,33.54,0,0,1-7.4-4.75q-7-5.88-7-18.19a23.66,23.66,0,0,1,7.18-17.29q7.17-7.23,19.61-7.23a47.8,47.8,0,0,1,12.48,1.75,45.84,45.84,0,0,0,8.08,1.75c1.06,0,2-.75,2.83-2.26h1.24l.79,22.82h-1.81a70.22,70.22,0,0,0-11.35-15.76q-5.94-5.93-12.89-5.93t-10.79,3.22a10.65,10.65,0,0,0-3.84,8.59,9.21,9.21,0,0,0,4.58,8.25,41.46,41.46,0,0,0,11.24,4.69q6.66,1.8,8.76,2.48t5.2,1.87a27.06,27.06,0,0,1,5.08,2.48,35.93,35.93,0,0,1,4.18,3.28,15.61,15.61,0,0,1,3.45,4.35,25.91,25.91,0,0,1,3,12.88q0,12.21-7.63,19.61t-20,7.4a74.77,74.77,0,0,1-14.75-1.7q-8.31-1.69-9.21-1.69c-1.06,0-2.07,1.13-3,3.39h-1.58l-1.13-26.9h1.92a62,62,0,0,0,12.71,17.18Q1033.15,441.23,1041.74,441.23Z"/>
        <path d="M1107.28,441.23a17,17,0,0,0,10-3.06q4.35-3,4.35-9.21a10.82,10.82,0,0,0-4.69-9.43q-4.7-3.27-13.33-5.71a92.26,92.26,0,0,1-12.55-4.23,33.54,33.54,0,0,1-7.4-4.75q-7-5.88-7-18.19a23.66,23.66,0,0,1,7.18-17.29q7.17-7.23,19.61-7.23a47.8,47.8,0,0,1,12.48,1.75,45.84,45.84,0,0,0,8.08,1.75c1.06,0,2-.75,2.83-2.26h1.24l.79,22.82h-1.81a70.22,70.22,0,0,0-11.35-15.76q-5.94-5.93-12.89-5.93T1092,367.72a10.65,10.65,0,0,0-3.84,8.59,9.21,9.21,0,0,0,4.58,8.25,41.46,41.46,0,0,0,11.24,4.69q6.66,1.8,8.76,2.48t5.2,1.87a27.06,27.06,0,0,1,5.08,2.48,35.93,35.93,0,0,1,4.18,3.28,15.61,15.61,0,0,1,3.45,4.35,25.91,25.91,0,0,1,3,12.88q0,12.21-7.63,19.61t-20,7.4a74.77,74.77,0,0,1-14.75-1.7q-8.31-1.69-9.21-1.69c-1.06,0-2.07,1.13-3,3.39h-1.58l-1.13-26.9h1.92A62,62,0,0,0,1091,433.88Q1098.69,441.23,1107.28,441.23Z"/>
      </g>
    </g>
    <g id="illustrator">
      <path class="skills-cls-1" d="M425,786.58c3.86,15.71,2.06,27,0,34-2.8,9.54-7,14.23-21.23,37.2-5.42,8.75-9.68,15.91-12.28,20.34a64.86,64.86,0,0,0-4.55,12.11c-9.09,37.43,21.25,54.88,16.87,92.78-3.29,28.37-25,59.5-52.59,69-39.63,13.59-58.84-28.74-133-40.69-60.63-9.76-75.53,14.09-116.59-4.46-33.32-15.06-70.07-52.09-69-90.79,1-36.56,35.78-43.37,50.29-99.45a165.83,165.83,0,0,0,5-49,1357.3,1357.3,0,0,1,337,19Z"/>
      <path class="skills-cls-2" d="M415.71,844.84c-11.38,22.66-23.45,23.46-28.77,45.39-9.09,37.43,21.25,54.88,16.87,92.78-3.29,28.37-25,59.5-52.59,69-39.63,13.59-58.84-28.74-133-40.69-60.63-9.76-75.53,14.09-116.59-4.46-33.78-15.26-69.17-52-69-90.79.21-38.26,34.81-43.19,50.11-99.72,12-44.14-6.68-54.64,7-87.81C106.09,688.77,152.89,653.41,198,655c46.37,1.64,50.35,40.89,113,55,52.41,11.81,71.64-10.7,95.29,8.58C440.24,746.26,429.64,817.12,415.71,844.84Z"/>
      <g>
        <path d="M98,873.2H99.7v-4.62a29.8,29.8,0,0,0-.63-7.65A2.43,2.43,0,0,0,96.64,859a3.48,3.48,0,0,0-2,.57,1.77,1.77,0,0,0-.87,1.56,6,6,0,0,0,.36,2h1.5a8.52,8.52,0,0,1,.48,3,3.92,3.92,0,0,1-1.5,3.06,5.59,5.59,0,0,1-3.78,1.29q-5.16,0-5.16-5,0-7.38,12.54-7.38,7.14,0,9.87,2.43t2.73,8.91v12.18q0,3.12,1.74,3.12,2,0,2.4-6.18l.9.06q-.24,5.28-2,7.26t-5.7,2q-7.2,0-8.28-4.44a6.46,6.46,0,0,1-2.34,3.36A8,8,0,0,1,93,887.9q-8.88,0-8.88-7.26,0-4.26,3.39-5.85T98,873.2Zm-2.07,11.4a1.24,1.24,0,0,0,1.26.9q.93,0,1.74-1.53a9.14,9.14,0,0,0,.81-4.23v-5.58h-.42q-3.72,0-3.72,5.46v1A14.84,14.84,0,0,0,95.89,884.6Z"/>
        <path d="M136.9,887.3l-.66-4.2q-2,4.8-8.28,4.8a9.51,9.51,0,0,1-8-3.72q-2.85-3.72-2.85-11.1,0-14.94,11.88-14.94,5.28,0,7,2.94v-17.7h-3.66V842.3h15v43.92h2.94v1.08Zm-7.56-4a2.5,2.5,0,0,0,2.43,2.07,3.86,3.86,0,0,0,3.06-1.56,7.11,7.11,0,0,0,1.29-4.62V866.06a8.76,8.76,0,0,0-1-4.38,3.26,3.26,0,0,0-3-1.8q-2,0-2.7,2.64a40.18,40.18,0,0,0-.72,9.24v3.12Q128.68,881.18,129.34,883.25Z"/>
        <path d="M156.1,884.06q-3.84-3.84-3.84-11t4.11-11q4.11-3.87,11.55-3.87t11.1,3.57q3.66,3.57,3.66,10.89,0,15.3-15.24,15.3Q159.94,887.9,156.1,884.06Zm15.06-8.58v-5.1a40.8,40.8,0,0,0-.63-8.49q-.63-2.67-2.91-2.67a3,3,0,0,0-2.13.75,4.6,4.6,0,0,0-1.17,2.49,45.65,45.65,0,0,0-.54,8.22v4.68q0,6.54.39,7.86a13.43,13.43,0,0,0,.81,2.16,2.56,2.56,0,0,0,2.58,1.44q2.34,0,3.06-2.7Q171.16,882.2,171.16,875.48Z"/>
        <path d="M198.82,842.3v21a7.94,7.94,0,0,1,7.8-5.16q11.22,0,11.22,14.94,0,7.62-3.09,11.22t-9.27,3.6a9.61,9.61,0,0,1-4.77-1,5,5,0,0,1-2.25-3.18L198,887.3H184.36v-1.08h3.3V843.38h-3.3V842.3Zm6.84,20.55q-.6-2.13-2.34-2.13t-3.12,2.16a11,11,0,0,0-1.38,5.94V880a8.56,8.56,0,0,0,1.05,4.38,3.3,3.3,0,0,0,3,1.8q1.95,0,2.67-2.64a40.18,40.18,0,0,0,.72-9.24v-3.12A36.88,36.88,0,0,0,205.66,862.85Z"/>
        <path d="M223.81,883.91q-3.87-4-3.87-11.1t4.35-10.89a16.27,16.27,0,0,1,11.07-3.78q13.62,0,13.08,13.68H231.52v2.34q0,5.88,1.5,8.88a5.35,5.35,0,0,0,5.22,3q7,0,9.12-7.44l1.08.18a12.4,12.4,0,0,1-4.11,6.72q-3,2.4-8.91,2.4Q227.68,887.9,223.81,883.91Zm7.77-13.29h6.18v-2.94a25.33,25.33,0,0,0-.57-6.63,2.25,2.25,0,0,0-2.28-1.77,2.67,2.67,0,0,0-2.52,1.89,18.27,18.27,0,0,0-.81,6.51Z"/>
        <path d="M83.32,930.74H98v27.48h3.36v1.08H83.56v-1.08h3.3v-26.4H83.32Zm9.06-4.14q-3.18,0-4.53-1.62a6.07,6.07,0,0,1-1.35-4A5.54,5.54,0,0,1,88,917a5.87,5.87,0,0,1,4.47-1.56A6.59,6.59,0,0,1,97,916.85a5.14,5.14,0,0,1,1.56,4,5.76,5.76,0,0,1-1.5,4.17A6.23,6.23,0,0,1,92.38,926.6Z"/>
        <path d="M102.34,914.3H117v43.92h3.36v1.08H102.58v-1.08h3.3V915.38h-3.54Z"/>
        <path d="M121.3,914.3H136v43.92h3.36v1.08H121.54v-1.08h3.3V915.38H121.3Z"/>
        <path d="M175.3,959.3H161.62l-.66-4.38a7.85,7.85,0,0,1-2.85,3.69,10,10,0,0,1-5.61,1.29q-9.3,0-9.3-10V931.82h-3.36v-1.08h14.52v20.58a13.93,13.93,0,0,0,.51,4.74,2,2,0,0,0,2,1.14,3.34,3.34,0,0,0,2.73-1.86,9.47,9.47,0,0,0,1.2-5.16V931.82h-2.76v-1.08H172v27.48h3.3Z"/>
        <path d="M177.88,959.9V949.16h.72q1.56,5.22,4.2,7.32a10.27,10.27,0,0,0,6.6,2.1q6.12,0,6.12-3.9a2.72,2.72,0,0,0-1.5-2.52,20.21,20.21,0,0,0-6-2,23.48,23.48,0,0,1-6.84-2.88q-3.3-2.16-3.3-6.84a9.92,9.92,0,0,1,2.88-7.47,10.57,10.57,0,0,1,7.68-2.79,14.93,14.93,0,0,1,6.06,1.38,5,5,0,0,0,1.74.48,1.39,1.39,0,0,0,1-.42,6.92,6.92,0,0,0,1-1.56h.66v9.18h-.72q-3.06-7.8-9.48-7.8a7.23,7.23,0,0,0-4.2,1,3,3,0,0,0-1.38,2.49,2.16,2.16,0,0,0,.42,1.41q.42.51.66.75a3.08,3.08,0,0,0,.78.51q.54.27.9.42t1.11.39a8.88,8.88,0,0,0,1.11.3,45.74,45.74,0,0,1,5.88,1.77,20.06,20.06,0,0,1,3.42,1.83q3.3,2.28,3.3,7.35t-3,7.68q-3,2.61-8.22,2.61a15.91,15.91,0,0,1-7.2-1.74,2.31,2.31,0,0,0-1.14-.48q-1.32,0-2.58,2.22Z"/>
        <path d="M204.94,950.72v-18.9h-3.3v-1.08h3.3V923l11.16-2.76v10.5h7.8v1.08h-7.8V952a11.13,11.13,0,0,0,.57,4.14A2.31,2.31,0,0,0,219,957.5a3.89,3.89,0,0,0,3.15-1.8,10.43,10.43,0,0,0,1.77-4.92l1,.12a11.64,11.64,0,0,1-2.64,6.57q-2.16,2.43-7.14,2.43t-7.62-2Q204.94,955.94,204.94,950.72Z"/>
        <path d="M245.62,932.42q-2.22,0-3.9,2.88a13.34,13.34,0,0,0-1.68,6.84v16.08h4.26v1.08H225.58v-1.08h3.3v-26.4h-3.3v-1.08H240v5.76a8.14,8.14,0,0,1,3-4.71,8.23,8.23,0,0,1,5-1.65,6.61,6.61,0,0,1,4.59,1.59,5.74,5.74,0,0,1,1.77,4.5,6.74,6.74,0,0,1-1.32,4.47,5,5,0,0,1-4.05,1.56,4.61,4.61,0,0,1-4-1.8q-1.29-1.8-.33-5h2.16Q248.38,932.42,245.62,932.42Z"/>
        <path d="M268.78,945.2h1.74v-4.62a29.8,29.8,0,0,0-.63-7.65,2.43,2.43,0,0,0-2.43-1.95,3.48,3.48,0,0,0-1.95.57,1.77,1.77,0,0,0-.87,1.56,6,6,0,0,0,.36,2h1.5a8.52,8.52,0,0,1,.48,3,3.92,3.92,0,0,1-1.5,3.06,5.59,5.59,0,0,1-3.78,1.29q-5.16,0-5.16-5,0-7.38,12.54-7.38,7.14,0,9.87,2.43t2.73,8.91v12.18q0,3.12,1.74,3.12,2,0,2.4-6.18l.9.06q-.24,5.28-2,7.26t-5.7,2q-7.2,0-8.28-4.44a6.46,6.46,0,0,1-2.34,3.36,8,8,0,0,1-4.56,1.08q-8.88,0-8.88-7.26,0-4.26,3.39-5.85T268.78,945.2Zm-2.07,11.4a1.24,1.24,0,0,0,1.26.9q.93,0,1.74-1.53a9.14,9.14,0,0,0,.81-4.23v-5.58h-.42q-3.72,0-3.72,5.46v1A14.84,14.84,0,0,0,266.71,956.6Z"/>
        <path d="M289.42,950.72v-18.9h-3.3v-1.08h3.3V923l11.16-2.76v10.5h7.8v1.08h-7.8V952a11.13,11.13,0,0,0,.57,4.14,2.31,2.31,0,0,0,2.37,1.32,3.89,3.89,0,0,0,3.15-1.8,10.43,10.43,0,0,0,1.77-4.92l1,.12a11.64,11.64,0,0,1-2.64,6.57q-2.16,2.43-7.14,2.43t-7.62-2Q289.42,955.94,289.42,950.72Z"/>
        <path d="M314.38,956.06q-3.84-3.84-3.84-11t4.11-11q4.11-3.87,11.55-3.87t11.1,3.57Q341,937.28,341,944.6q0,15.3-15.24,15.3Q318.22,959.9,314.38,956.06Zm15.06-8.58v-5.1a40.8,40.8,0,0,0-.63-8.49q-.63-2.67-2.91-2.67a3,3,0,0,0-2.13.75,4.6,4.6,0,0,0-1.17,2.49,45.65,45.65,0,0,0-.54,8.22v4.68q0,6.54.39,7.86a13.43,13.43,0,0,0,.81,2.16,2.56,2.56,0,0,0,2.58,1.44q2.34,0,3.06-2.7Q329.44,954.2,329.44,947.48Z"/>
        <path d="M362.68,932.42q-2.22,0-3.9,2.88a13.34,13.34,0,0,0-1.68,6.84v16.08h4.26v1.08H342.64v-1.08h3.3v-26.4h-3.3v-1.08H357.1v5.76a8.14,8.14,0,0,1,3-4.71,8.23,8.23,0,0,1,5-1.65,6.61,6.61,0,0,1,4.59,1.59,5.74,5.74,0,0,1,1.77,4.5,6.74,6.74,0,0,1-1.32,4.47,5,5,0,0,1-4.05,1.56,4.61,4.61,0,0,1-4-1.8q-1.29-1.8-.33-5h2.16Q365.44,932.42,362.68,932.42Z"/>
      </g>
    </g>
    <g id="photoshop">
      <path class="skills-cls-1" d="M836,878.25c26.69-46.42,33.3-57.72,33.39-57.67s-9.26,17.89-21.23,37.2c-5.42,8.75-9.68,15.91-12.28,20.34a64.86,64.86,0,0,0-4.55,12.11c-9.09,37.43,21.25,54.88,16.87,92.78-3.29,28.37-25,59.5-52.59,69-39.63,13.59-58.84-28.74-133-40.69-60.63-9.76-75.53,14.09-116.59-4.46-30.69-13.87-73.8-48-69-90.79,3.66-32.26,32.49-52,39.9-56.78h0a964.08,964.08,0,0,1,319,19Z"/>
      <path class="skills-cls-2" d="M860.1,844.84c-11.38,22.66-23.45,23.46-28.77,45.39-9.09,37.43,21.25,54.88,16.87,92.78-3.29,28.37-25,59.5-52.59,69-39.63,13.59-58.84-28.74-133-40.69-60.63-9.76-75.53,14.09-116.59-4.46-33.78-15.26-69.17-52-69-90.79.22-38.26,34.81-43.19,50.11-99.72,12.39-45.76-6.22-57.53,6.95-87.81C556.57,677,629.71,639.26,678,657.06c34.38,12.66,29.36,43.5,68,58.94,46.64,18.65,76.17-17.46,104.68,2.58C884.88,742.62,874.19,816.79,860.1,844.84Z"/>
      <g>
        <path d="M545.35,872.2h1.74v-4.62a29.8,29.8,0,0,0-.63-7.65A2.43,2.43,0,0,0,544,858a3.48,3.48,0,0,0-1.95.57,1.77,1.77,0,0,0-.87,1.56,6,6,0,0,0,.36,2h1.5a8.52,8.52,0,0,1,.48,3,3.92,3.92,0,0,1-1.5,3.06,5.59,5.59,0,0,1-3.78,1.29q-5.16,0-5.16-5,0-7.38,12.54-7.38,7.14,0,9.87,2.43t2.73,8.91v12.18q0,3.12,1.74,3.12,2,0,2.4-6.18l.9.06q-.24,5.28-2,7.26t-5.7,2q-7.2,0-8.28-4.44a6.46,6.46,0,0,1-2.34,3.36,8,8,0,0,1-4.56,1.08q-8.88,0-8.88-7.26,0-4.26,3.39-5.85T545.35,872.2Zm-2.07,11.4a1.24,1.24,0,0,0,1.26.9q.93,0,1.74-1.53a9.14,9.14,0,0,0,.81-4.23v-5.58h-.42q-3.72,0-3.72,5.46v1A14.84,14.84,0,0,0,543.28,883.6Z"/>
        <path d="M584.29,886.3l-.66-4.2q-2,4.8-8.28,4.8a9.51,9.51,0,0,1-8-3.72q-2.85-3.72-2.85-11.1,0-14.94,11.88-14.94,5.28,0,7,2.94v-17.7h-3.66V841.3h15v43.92h2.94v1.08Zm-7.56-4a2.5,2.5,0,0,0,2.43,2.07,3.86,3.86,0,0,0,3.06-1.56,7.11,7.11,0,0,0,1.29-4.62V865.06a8.76,8.76,0,0,0-1-4.38,3.26,3.26,0,0,0-3-1.8q-2,0-2.7,2.64a40.18,40.18,0,0,0-.72,9.24v3.12Q576.07,880.18,576.73,882.25Z"/>
        <path d="M603.49,883.06q-3.84-3.84-3.84-11t4.11-11q4.11-3.87,11.55-3.87t11.1,3.57q3.66,3.57,3.66,10.89,0,15.3-15.24,15.3Q607.33,886.9,603.49,883.06Zm15.06-8.58v-5.1a40.8,40.8,0,0,0-.63-8.49q-.63-2.67-2.91-2.67a3,3,0,0,0-2.13.75,4.6,4.6,0,0,0-1.17,2.49,45.65,45.65,0,0,0-.54,8.22v4.68q0,6.54.39,7.86a13.43,13.43,0,0,0,.81,2.16,2.56,2.56,0,0,0,2.58,1.44q2.34,0,3.06-2.7Q618.55,881.2,618.55,874.48Z"/>
        <path d="M646.21,841.3v21a7.94,7.94,0,0,1,7.8-5.16q11.22,0,11.22,14.94,0,7.62-3.09,11.22t-9.27,3.6a9.61,9.61,0,0,1-4.77-1,5,5,0,0,1-2.25-3.18l-.42,3.54H631.75v-1.08h3.3V842.38h-3.3V841.3Zm6.84,20.55q-.6-2.13-2.34-2.13t-3.12,2.16a11,11,0,0,0-1.38,5.94V879a8.56,8.56,0,0,0,1,4.38,3.3,3.3,0,0,0,3,1.8q1.95,0,2.67-2.64a40.18,40.18,0,0,0,.72-9.24v-3.12A36.88,36.88,0,0,0,653.05,861.85Z"/>
        <path d="M671.2,882.91q-3.87-4-3.87-11.1t4.35-10.89a16.27,16.27,0,0,1,11.07-3.78q13.62,0,13.08,13.68H678.91v2.34q0,5.88,1.5,8.88a5.35,5.35,0,0,0,5.22,3q7,0,9.12-7.44l1.08.18a12.4,12.4,0,0,1-4.11,6.72q-3,2.4-8.91,2.4Q675.07,886.9,671.2,882.91ZM679,869.62h6.18v-2.94a25.33,25.33,0,0,0-.57-6.63,2.25,2.25,0,0,0-2.28-1.77,2.67,2.67,0,0,0-2.52,1.89,18.27,18.27,0,0,0-.81,6.51Z"/>
        <path d="M545.29,929.74v4.74a8.34,8.34,0,0,1,8.28-5.34,9.51,9.51,0,0,1,8,3.72q2.85,3.72,2.85,11.28t-3.09,11.16q-3.09,3.6-9.27,3.6a10,10,0,0,1-4.32-.72,5.66,5.66,0,0,1-2.34-2.22V971.5h7.74v1.08H531V971.5h3.3V930.82h-3.18v-1.08Zm7,4.11q-.6-2.13-2.34-2.13T546.79,934a11.46,11.46,0,0,0-1.38,6v11a8.76,8.76,0,0,0,1,4.38,3.26,3.26,0,0,0,3,1.8q2,0,2.7-2.64a40.18,40.18,0,0,0,.72-9.24v-3.12A36.88,36.88,0,0,0,552.25,933.85Z"/>
        <path d="M566.23,913.3h14.46v22a10,10,0,0,1,2.94-4.44q2-1.68,6-1.68,9.3,0,9.3,10v18.06h3.36v1.08h-17v-1.08h2.46v-19.5a13.84,13.84,0,0,0-.48-4.65,1.75,1.75,0,0,0-1.74-1.05q-1.92,0-3.39,2.52a12,12,0,0,0-1.47,6.12v16.56h2.58v1.08h-17v-1.08h3.3V914.38h-3.3Z"/>
        <path d="M607.51,955.06q-3.84-3.84-3.84-11t4.11-11q4.11-3.87,11.55-3.87t11.1,3.57q3.66,3.57,3.66,10.89,0,15.3-15.24,15.3Q611.35,958.9,607.51,955.06Zm15.06-8.58v-5.1a40.8,40.8,0,0,0-.63-8.49q-.63-2.67-2.91-2.67a3,3,0,0,0-2.13.75,4.6,4.6,0,0,0-1.17,2.49,45.65,45.65,0,0,0-.54,8.22v4.68q0,6.54.39,7.86a13.43,13.43,0,0,0,.81,2.16,2.56,2.56,0,0,0,2.58,1.44q2.34,0,3.06-2.7Q622.57,953.2,622.57,946.48Z"/>
        <path d="M638.77,949.72v-18.9h-3.3v-1.08h3.3V922l11.16-2.76v10.5h7.8v1.08h-7.8V951a11.13,11.13,0,0,0,.57,4.14,2.31,2.31,0,0,0,2.37,1.32,3.89,3.89,0,0,0,3.15-1.8,10.43,10.43,0,0,0,1.77-4.92l1,.12a11.64,11.64,0,0,1-2.64,6.57Q654,958.9,649,958.9t-7.62-2Q638.77,954.94,638.77,949.72Z"/>
        <path d="M663.73,955.06q-3.84-3.84-3.84-11T664,933q4.11-3.87,11.55-3.87t11.1,3.57q3.66,3.57,3.66,10.89,0,15.3-15.24,15.3Q667.57,958.9,663.73,955.06Zm15.06-8.58v-5.1a40.8,40.8,0,0,0-.63-8.49q-.63-2.67-2.91-2.67a3,3,0,0,0-2.13.75,4.6,4.6,0,0,0-1.17,2.49,45.65,45.65,0,0,0-.54,8.22v4.68q0,6.54.39,7.86a13.43,13.43,0,0,0,.81,2.16,2.56,2.56,0,0,0,2.58,1.44q2.34,0,3.06-2.7Q678.79,953.2,678.79,946.48Z"/>
        <path d="M693.37,958.9V948.16h.72q1.56,5.22,4.2,7.32a10.27,10.27,0,0,0,6.6,2.1q6.12,0,6.12-3.9a2.72,2.72,0,0,0-1.5-2.52,20.21,20.21,0,0,0-6-2,23.48,23.48,0,0,1-6.84-2.88q-3.3-2.16-3.3-6.84a9.92,9.92,0,0,1,2.88-7.47,10.57,10.57,0,0,1,7.68-2.79,14.93,14.93,0,0,1,6.06,1.38,5,5,0,0,0,1.74.48,1.39,1.39,0,0,0,1-.42,6.92,6.92,0,0,0,1-1.56h.66v9.18h-.72q-3.06-7.8-9.48-7.8a7.23,7.23,0,0,0-4.2,1,3,3,0,0,0-1.38,2.49,2.16,2.16,0,0,0,.42,1.41q.42.51.66.75a3.08,3.08,0,0,0,.78.51q.54.27.9.42t1.11.39a8.88,8.88,0,0,0,1.11.3,45.74,45.74,0,0,1,5.88,1.77,20.06,20.06,0,0,1,3.42,1.83q3.3,2.28,3.3,7.35t-3,7.68q-3,2.61-8.22,2.61a15.91,15.91,0,0,1-7.2-1.74,2.31,2.31,0,0,0-1.14-.48q-1.32,0-2.58,2.22Z"/>
        <path d="M718,913.3h14.46v22a10,10,0,0,1,2.94-4.44q2-1.68,6-1.68,9.3,0,9.3,10v18.06h3.36v1.08h-17v-1.08h2.46v-19.5a13.84,13.84,0,0,0-.48-4.65,1.75,1.75,0,0,0-1.74-1.05q-1.92,0-3.39,2.52a12,12,0,0,0-1.47,6.12v16.56h2.58v1.08H718v-1.08h3.3V914.38H718Z"/>
        <path d="M759.31,955.06q-3.84-3.84-3.84-11t4.11-11q4.11-3.87,11.55-3.87t11.1,3.57q3.66,3.57,3.66,10.89,0,15.3-15.24,15.3Q763.15,958.9,759.31,955.06Zm15.06-8.58v-5.1a40.8,40.8,0,0,0-.63-8.49q-.63-2.67-2.91-2.67a3,3,0,0,0-2.13.75,4.6,4.6,0,0,0-1.17,2.49,45.65,45.65,0,0,0-.54,8.22v4.68q0,6.54.39,7.86a13.43,13.43,0,0,0,.81,2.16,2.56,2.56,0,0,0,2.58,1.44q2.34,0,3.06-2.7Q774.37,953.2,774.37,946.48Z"/>
        <path d="M801.91,929.74v4.74a8.34,8.34,0,0,1,8.28-5.34,9.51,9.51,0,0,1,8,3.72q2.85,3.72,2.85,11.28T818,955.3q-3.09,3.6-9.27,3.6a10,10,0,0,1-4.32-.72A5.66,5.66,0,0,1,802,956V971.5h7.74v1.08h-22.2V971.5h3.3V930.82h-3.18v-1.08Zm7,4.11q-.6-2.13-2.34-2.13T803.41,934a11.46,11.46,0,0,0-1.38,6v11a8.76,8.76,0,0,0,1,4.38,3.26,3.26,0,0,0,3,1.8q2,0,2.7-2.64a40.18,40.18,0,0,0,.72-9.24v-3.12A36.88,36.88,0,0,0,808.87,933.85Z"/>
      </g>
    </g>
    <g id="javascript">
      <path class="skills-cls-1" d="M1739.91,309c3.86,15.71,2.06,27,0,34-2.8,9.54-7,14.23-21.23,37.2-5.42,8.75-9.68,15.91-12.28,20.33a65.11,65.11,0,0,0-4.55,12.12c-9.09,37.43,21.25,54.88,16.87,92.77-3.29,28.38-25,59.51-52.59,69-39.63,13.6-58.84-28.74-133-40.68-60.63-9.77-75.53,14.09-116.59-4.46-33.32-15.06-70.06-52.09-69-90.79,1.05-36.56,35.78-43.37,50.29-99.45a165.89,165.89,0,0,0,5-49,1357.3,1357.3,0,0,1,337,19Z"/>
      <path class="skills-cls-2" d="M1730.62,367.26c-11.38,22.65-23.45,23.46-28.77,45.39-9.09,37.43,21.25,54.88,16.87,92.77-3.29,28.38-25,59.51-52.59,69-39.63,13.6-58.84-28.74-133-40.68-60.63-9.77-75.53,14.09-116.59-4.46-33.78-15.27-69.17-52-69-90.79.21-38.26,34.81-43.19,50.11-99.72a120.84,120.84,0,0,0,4.44-28c1.15-34.84-.37-45.32,2.51-59.84,6.3-31.75,40.83-50.14,57.32-58.92,4.23-2.25,72.35-37.38,121-7,28.68,17.91,22,40.71,50,54,36.46,17.29,63.11-15.62,88.2,2C1750.46,261.54,1751.64,325.42,1730.62,367.26Z"/>
      <g>
        <path d="M1412.93,381.16v23.4q0,9.84-3.39,15t-11.07,5.16q-5,0-7.29-2a5.94,5.94,0,0,1-2.31-4.62,5.18,5.18,0,0,1,1.56-4.05,5.6,5.6,0,0,1,3.9-1.41,4.5,4.5,0,0,1,3.51,1.29,4.15,4.15,0,0,1,1.17,2.85,12.32,12.32,0,0,1-.36,3h-2.28a2.58,2.58,0,0,0-.27,2.76,2.7,2.7,0,0,0,2.52,1.14,2.53,2.53,0,0,0,2.49-2.07q.66-2.07.66-8.55V382.24h-3.9v-1.08Zm-5.7-4.14q-3.18,0-4.53-1.62a6.07,6.07,0,0,1-1.35-4,5.54,5.54,0,0,1,1.47-4,5.87,5.87,0,0,1,4.47-1.56,6.59,6.59,0,0,1,4.56,1.41,5.14,5.14,0,0,1,1.56,4,5.76,5.76,0,0,1-1.5,4.17A6.23,6.23,0,0,1,1407.23,377Z"/>
        <path d="M1431.53,395.62h1.74V391a29.8,29.8,0,0,0-.63-7.65,2.43,2.43,0,0,0-2.43-2,3.48,3.48,0,0,0-2,.57,1.77,1.77,0,0,0-.87,1.56,6,6,0,0,0,.36,2h1.5a8.52,8.52,0,0,1,.48,3,3.92,3.92,0,0,1-1.5,3.06,5.59,5.59,0,0,1-3.78,1.29q-5.16,0-5.16-5,0-7.38,12.54-7.38,7.14,0,9.87,2.43t2.73,8.91v12.18q0,3.12,1.74,3.12,2,0,2.4-6.18l.9.06q-.24,5.28-2,7.26t-5.7,2q-7.2,0-8.28-4.44a6.46,6.46,0,0,1-2.34,3.36,8,8,0,0,1-4.56,1.08q-8.88,0-8.88-7.26,0-4.26,3.39-5.85T1431.53,395.62Zm-2.07,11.4a1.24,1.24,0,0,0,1.26.9q.93,0,1.74-1.53a9.14,9.14,0,0,0,.81-4.23v-5.58h-.42q-3.72,0-3.72,5.46v1A14.84,14.84,0,0,0,1429.46,407Z"/>
        <path d="M1445.87,382.24v-1.08h17.94v1.08H1460l7.2,19.92,6.48-19.92h-4v-1.08h8.1v1.08h-2.64l-8.88,27.48h-6.84l-11.1-27.48Z"/>
        <path d="M1491,395.62h1.74V391a29.8,29.8,0,0,0-.63-7.65,2.43,2.43,0,0,0-2.43-2,3.48,3.48,0,0,0-2,.57,1.77,1.77,0,0,0-.87,1.56,6,6,0,0,0,.36,2h1.5a8.52,8.52,0,0,1,.48,3,3.92,3.92,0,0,1-1.5,3.06,5.59,5.59,0,0,1-3.78,1.29q-5.16,0-5.16-5,0-7.38,12.54-7.38,7.14,0,9.87,2.43t2.73,8.91v12.18q0,3.12,1.74,3.12,2,0,2.4-6.18l.9.06q-.24,5.28-2,7.26t-5.7,2q-7.2,0-8.28-4.44a6.46,6.46,0,0,1-2.34,3.36,8,8,0,0,1-4.56,1.08q-8.88,0-8.88-7.26,0-4.26,3.39-5.85T1491,395.62Zm-2.07,11.4a1.24,1.24,0,0,0,1.26.9q.93,0,1.74-1.53a9.14,9.14,0,0,0,.81-4.23v-5.58h-.42q-3.72,0-3.72,5.46v1A14.84,14.84,0,0,0,1488.92,407Z"/>
        <path d="M1528.43,409.06a9,9,0,0,0,5.31-1.62,5.57,5.57,0,0,0,2.31-4.89,5.74,5.74,0,0,0-2.49-5,23.76,23.76,0,0,0-7.08-3,48.52,48.52,0,0,1-6.66-2.25,17.69,17.69,0,0,1-3.93-2.52q-3.72-3.12-3.72-9.66a12.58,12.58,0,0,1,3.81-9.18q3.81-3.84,10.41-3.84a25.46,25.46,0,0,1,6.63.93,24.47,24.47,0,0,0,4.29.93q.84,0,1.5-1.2h.66l.42,12.12h-1a37.21,37.21,0,0,0-6-8.37,9.55,9.55,0,0,0-6.84-3.15,8.67,8.67,0,0,0-5.73,1.71,5.65,5.65,0,0,0-2,4.56,4.88,4.88,0,0,0,2.43,4.38,22,22,0,0,0,6,2.49q3.54,1,4.65,1.32t2.76,1a14.16,14.16,0,0,1,2.7,1.32,19,19,0,0,1,2.22,1.74,8.25,8.25,0,0,1,1.83,2.31,15.35,15.35,0,0,1-2.43,17.25,14.64,14.64,0,0,1-10.65,3.93,39.68,39.68,0,0,1-7.83-.9q-4.41-.9-4.89-.9-.84,0-1.62,1.8h-.84L1512,396h1a33,33,0,0,0,6.75,9.12Q1523.87,409.06,1528.43,409.06Z"/>
        <path d="M1562.33,381.64c-1.76,0-3,1-3.78,2.88s-1.14,5.1-1.14,9.54v3.12q0,5.94,1.32,8.52t4.86,2.58a7.12,7.12,0,0,0,5.64-2.4,11.63,11.63,0,0,0,2.7-5.46l1.08.12q-1.14,5.16-4.2,7.44t-8.58,2.34c-4.65,0-8.2-1.25-10.68-3.75s-3.72-6.16-3.72-11,1.41-8.53,4.23-11.13,6.75-3.9,11.79-3.9c3.56,0,6.27.69,8.16,2.07a6.22,6.22,0,0,1,2.82,5.19,6.51,6.51,0,0,1-1.35,4.56,4.85,4.85,0,0,1-3.72,1.44,5.56,5.56,0,0,1-3.81-1.26,4.68,4.68,0,0,1-1.44-3.72,8,8,0,0,1,.3-2.16h2a6.62,6.62,0,0,0,.42-2.16A2.55,2.55,0,0,0,1562.33,381.64Z"/>
        <path d="M1594.54,382.84c-1.47,0-2.78,1-3.89,2.88a13.34,13.34,0,0,0-1.69,6.84v16.08h4.27v1.08H1574.5v-1.08h3.31v-26.4h-3.31v-1.08H1589v5.76a8.08,8.08,0,0,1,8-6.36,6.63,6.63,0,0,1,4.6,1.59,5.77,5.77,0,0,1,1.77,4.5,6.74,6.74,0,0,1-1.33,4.47,5,5,0,0,1-4,1.56,4.59,4.59,0,0,1-4-1.8q-1.31-1.8-.33-5h2.16Q1597.3,382.84,1594.54,382.84Z"/>
        <path d="M1604,381.16h14.7v27.48H1622v1.08H1604.2v-1.08h3.3v-26.4H1604ZM1613,377q-3.18,0-4.53-1.62a6.07,6.07,0,0,1-1.35-4,5.54,5.54,0,0,1,1.47-4,5.87,5.87,0,0,1,4.47-1.56,6.59,6.59,0,0,1,4.56,1.41,5.14,5.14,0,0,1,1.56,4,5.76,5.76,0,0,1-1.5,4.17A6.23,6.23,0,0,1,1613,377Z"/>
        <path d="M1637.56,381.16v4.74a8.34,8.34,0,0,1,8.28-5.34,9.51,9.51,0,0,1,8,3.72q2.85,3.72,2.85,11.28t-3.09,11.16q-3.09,3.6-9.27,3.6a10,10,0,0,1-4.32-.72,5.66,5.66,0,0,1-2.34-2.22v15.54h7.74V424h-22.2v-1.08h3.3V382.24h-3.18v-1.08Zm7,4.11q-.6-2.13-2.34-2.13t-3.12,2.25a11.46,11.46,0,0,0-1.38,6v11a8.76,8.76,0,0,0,1,4.38,3.26,3.26,0,0,0,3,1.8q2,0,2.7-2.64a40.18,40.18,0,0,0,.72-9.24v-3.12A36.88,36.88,0,0,0,1644.52,385.27Z"/>
        <path d="M1661.5,401.14v-18.9h-3.3v-1.08h3.3v-7.74l11.16-2.76v10.5h7.8v1.08h-7.8v20.22a11.13,11.13,0,0,0,.57,4.14,2.31,2.31,0,0,0,2.37,1.32,3.89,3.89,0,0,0,3.15-1.8,10.43,10.43,0,0,0,1.77-4.92l1,.12a11.64,11.64,0,0,1-2.64,6.57q-2.16,2.43-7.14,2.43t-7.62-2Q1661.5,406.36,1661.5,401.14Z"/>
      </g>
    </g>
    <g id="blue_shape">
      <g id="blue_shape-2" data-name="blue_shape">
        <path class="skills-cls-3" d="M1976.75,1527.62c-45.94,60.93-102,70.34-119.92,125.78-30.58,94.61,116.52,117.26,108.05,210.08-6.35,69.49-98,157-223.6,196.58-180.62,56.91-283.67-31.8-633.31-14.18-286,14.41-348,80.37-545.47,61.75-19.82-1.87-328.74-44.93-350.51-173-5.55-32.67,12.3-85.65,48-191.61,16.1-47.78,28-74.63,28.87-119.86.81-42.48-8.82-63.58-18.69-113.52-9.14-46.26-20.39-126.89-14-165.61,34-204.63,715.56-163.22,811.51-149.78,21.51,3,50.7,6.51,83.44,26.27,56.52,34.12,66.37,87.65,181.14,103,210.59,28.12,400.76-122.26,560.54-90.16C2034.8,1261.82,2060.94,1416,1976.75,1527.62Z"/>
        <path class="skills-cls-4" d="M1953.05,1498.13c-45.94,60.93-102,70.34-119.92,125.78-30.57,94.61,116.53,117.27,108,210.08-6.34,69.5-98,157-223.59,196.59-180.62,56.91-283.67-31.8-633.32-14.19-286,14.41-348,80.37-545.46,61.75-19.83-1.86-328.74-44.93-350.51-173-5.56-32.67,12.29-85.66,48-191.62,16.1-47.78,28-74.63,28.87-119.85.82-42.48-8.82-63.59-18.69-113.53-9.14-46.26-20.39-126.89-14-165.6,34-204.63,715.56-163.23,811.52-149.78,21.5,3,50.7,6.5,83.44,26.27,56.51,34.11,66.36,87.65,181.14,103,210.58,28.13,400.76-122.25,560.53-90.16C2011.11,1232.34,2037.24,1386.49,1953.05,1498.13Z"/>
      </g>
      <g id="text">
        <g>
          <path d="M389.85,1398.73h-7.73v26h-8.94v-26h-4.92v-4.31l4.92-2.4v-2.4c0-3.74.92-6.46,2.76-8.18s4.77-2.58,8.82-2.58a22.9,22.9,0,0,1,8.23,1.38l-2.29,6.56a16.79,16.79,0,0,0-5-.85,3.23,3.23,0,0,0-2.75,1.13,4.64,4.64,0,0,0-.85,2.89v2h7.73Z"/>
          <path d="M413.26,1391.4a14.11,14.11,0,0,1,3,.27l-.67,8.37a10.59,10.59,0,0,0-2.64-.29,9.48,9.48,0,0,0-6.67,2.2,7.93,7.93,0,0,0-2.38,6.15v16.67H395V1392h6.77l1.32,5.51h.44a12.18,12.18,0,0,1,4.11-4.44A10.11,10.11,0,0,1,413.26,1391.4Z"/>
          <path d="M452,1408.34q0,8-4.22,12.51T436,1425.36a16.38,16.38,0,0,1-8.32-2.07,13.66,13.66,0,0,1-5.54-5.93,19.94,19.94,0,0,1-1.94-9q0-8,4.19-12.48t11.78-4.46a16.58,16.58,0,0,1,8.32,2,13.72,13.72,0,0,1,5.54,5.89A19.76,19.76,0,0,1,452,1408.34Zm-22.64,0q0,4.86,1.59,7.35a5.72,5.72,0,0,0,5.2,2.49,5.61,5.61,0,0,0,5.14-2.48q1.58-2.48,1.57-7.36t-1.58-7.3c-1.06-1.62-2.78-2.43-5.19-2.43a5.69,5.69,0,0,0-5.15,2.42C429.87,1402.64,429.35,1405.07,429.35,1408.34Z"/>
          <path d="M489.61,1424.77h-8.94v-19.13a9.2,9.2,0,0,0-1.26-5.32,4.57,4.57,0,0,0-4-1.77q-3.75,0-5.42,2.51c-1.11,1.67-1.67,4.43-1.67,8.3v15.41h-8.93V1392h6.82l1.2,4.19h.5a9.41,9.41,0,0,1,4.12-3.59,14,14,0,0,1,6-1.22q5.72,0,8.67,3.09c2,2.06,3,5,3,8.92Z"/>
          <path d="M512.61,1418.24a19.18,19.18,0,0,0,5.62-1v6.65a20,20,0,0,1-8.2,1.5c-3.57,0-6.18-.91-7.81-2.71s-2.44-4.52-2.44-8.13v-15.79H495.5V1395l4.92-3L503,1385h5.71v7h9.17v6.71h-9.17v15.79a3.5,3.5,0,0,0,1.07,2.81A4.2,4.2,0,0,0,512.61,1418.24Z"/>
          <path d="M522,1412.35V1405h15.74v7.32Z"/>
          <path d="M559,1425.36q-7.9,0-12.36-4.37t-4.45-12.36q0-8.24,4.11-12.73t11.39-4.5q6.93,0,10.81,4t3.86,10.93v4.33H551.22a8.61,8.61,0,0,0,2.26,6,8,8,0,0,0,5.91,2.14,24.58,24.58,0,0,0,5.6-.62,28,28,0,0,0,5.51-2V1423a20.94,20.94,0,0,1-5,1.75A31.73,31.73,0,0,1,559,1425.36Zm-1.26-27.6a5.68,5.68,0,0,0-4.45,1.8,8.33,8.33,0,0,0-1.84,5.11H564a7.42,7.42,0,0,0-1.72-5.11A5.88,5.88,0,0,0,557.72,1397.76Z"/>
          <path d="M609.84,1424.77h-8.93v-19.13a9.2,9.2,0,0,0-1.26-5.32,4.59,4.59,0,0,0-4-1.77c-2.5,0-4.3.84-5.42,2.51s-1.67,4.43-1.67,8.3v15.41h-8.93V1392h6.83l1.2,4.19h.49a9.41,9.41,0,0,1,4.12-3.59,14,14,0,0,1,6-1.22q5.71,0,8.67,3.09c2,2.06,3,5,3,8.92Z"/>
          <path d="M629.41,1425.36a10.64,10.64,0,0,1-9.06-4.48q-3.3-4.49-3.3-12.43t3.36-12.55a10.87,10.87,0,0,1,9.24-4.5,10.67,10.67,0,0,1,9.43,4.81h.3a36.52,36.52,0,0,1-.68-6.54v-10.48h9v45.58h-6.86l-1.73-4.25h-.38Q635.66,1425.37,629.41,1425.36Zm3.14-7.12a6.07,6.07,0,0,0,5-2q1.6-2,1.75-6.77v-1c0-3.51-.55-6-1.63-7.56s-2.85-2.28-5.29-2.28a5.23,5.23,0,0,0-4.64,2.53c-1.1,1.69-1.66,4.15-1.66,7.37s.56,5.64,1.67,7.25A5.48,5.48,0,0,0,632.55,1418.24Z"/>
          <path d="M683,1425.36a10.66,10.66,0,0,1-9.07-4.48q-3.3-4.49-3.29-12.43T674,1395.9a10.9,10.9,0,0,1,9.24-4.5,10.69,10.69,0,0,1,9.44,4.81h.29a36.43,36.43,0,0,1-.67-6.54v-10.48h9v45.58h-6.85l-1.73-4.25h-.38Q689.2,1425.37,683,1425.36Zm3.13-7.12a6.09,6.09,0,0,0,5-2q1.59-2,1.74-6.77v-1q0-5.27-1.62-7.56t-5.29-2.28a5.25,5.25,0,0,0-4.65,2.53q-1.65,2.54-1.65,7.37c0,3.22.55,5.64,1.67,7.25A5.45,5.45,0,0,0,686.1,1418.24Z"/>
          <path d="M725.39,1425.36q-7.9,0-12.36-4.37t-4.46-12.36q0-8.24,4.12-12.73t11.38-4.5q6.95,0,10.81,4t3.87,10.93v4.33H717.63a8.6,8.6,0,0,0,2.25,6,8,8,0,0,0,5.92,2.14,24.64,24.64,0,0,0,5.6-.62,27.89,27.89,0,0,0,5.5-2V1423a20.94,20.94,0,0,1-5,1.75A31.56,31.56,0,0,1,725.39,1425.36Zm-1.26-27.6a5.66,5.66,0,0,0-4.45,1.8,8.34,8.34,0,0,0-1.85,5.11h12.54a7.43,7.43,0,0,0-1.73-5.11A5.84,5.84,0,0,0,724.13,1397.76Z"/>
          <path d="M768.87,1415a9,9,0,0,1-3.5,7.68q-3.51,2.64-10.48,2.64a32.17,32.17,0,0,1-6.09-.49,22.72,22.72,0,0,1-4.72-1.42v-7.38a30.68,30.68,0,0,0,5.61,2,22.58,22.58,0,0,0,5.5.79c3.24,0,4.86-.93,4.86-2.81a2.35,2.35,0,0,0-.65-1.71,9.45,9.45,0,0,0-2.22-1.5c-1.06-.55-2.46-1.2-4.22-1.94a27.09,27.09,0,0,1-5.55-2.93,8.27,8.27,0,0,1-2.58-3.1,10.14,10.14,0,0,1-.81-4.29,7.77,7.77,0,0,1,3.39-6.75q3.38-2.38,9.59-2.39a27.23,27.23,0,0,1,11.52,2.58l-2.7,6.45a47.46,47.46,0,0,0-4.6-1.73,14.43,14.43,0,0,0-4.36-.68c-2.64,0-4,.72-4,2.14a2.52,2.52,0,0,0,1.27,2.08,33.88,33.88,0,0,0,5.59,2.61,25.74,25.74,0,0,1,5.62,2.9,8.6,8.6,0,0,1,2.64,3.11A9.59,9.59,0,0,1,768.87,1415Z"/>
          <path d="M775.46,1383.55q0-4.36,4.86-4.36c3.24,0,4.87,1.45,4.87,4.36a4.26,4.26,0,0,1-1.22,3.24,5.13,5.13,0,0,1-3.65,1.16Q775.46,1388,775.46,1383.55Zm9.32,41.22h-8.94V1392h8.94Z"/>
          <path d="M822.66,1392v4.54l-5.13,1.32a8.89,8.89,0,0,1,1.41,4.92,10,10,0,0,1-3.68,8.22q-3.68,2.94-10.21,2.94l-1.61-.09-1.32-.14a3,3,0,0,0-1.38,2.34q0,1.93,4.92,1.93h5.57c3.59,0,6.33.78,8.22,2.32a8.29,8.29,0,0,1,2.83,6.8,10.09,10.09,0,0,1-4.79,8.9q-4.8,3.17-13.76,3.17-6.86,0-10.47-2.39a7.57,7.57,0,0,1-3.62-6.7,7,7,0,0,1,1.84-4.95,10.5,10.5,0,0,1,5.42-2.84,6.06,6.06,0,0,1-2.4-1.92,4.74,4.74,0,0,1,.06-6,12.45,12.45,0,0,1,3.14-2.44,8.77,8.77,0,0,1-4.09-3.58,10.83,10.83,0,0,1-1.51-5.8,10.23,10.23,0,0,1,3.49-8.29q3.48-2.92,10-2.93a26.68,26.68,0,0,1,3.26.25c1.26.17,2.07.29,2.42.37Zm-25.29,37.38a3.23,3.23,0,0,0,1.78,2.9,9.75,9.75,0,0,0,5,1.06,17.59,17.59,0,0,0,7.53-1.32q2.73-1.32,2.73-3.61a2.55,2.55,0,0,0-1.62-2.55,13.36,13.36,0,0,0-5-.7h-4.63a7,7,0,0,0-4.11,1.16A3.55,3.55,0,0,0,797.37,1429.4Zm3.25-26.66a6.68,6.68,0,0,0,1.22,4.22,4.44,4.44,0,0,0,3.71,1.55,4.33,4.33,0,0,0,3.69-1.55,6.86,6.86,0,0,0,1.17-4.22q0-5.92-4.86-5.92C802.27,1396.82,800.62,1398.79,800.62,1402.74Z"/>
          <path d="M858.28,1424.77h-8.93v-19.13a9.2,9.2,0,0,0-1.26-5.32,4.59,4.59,0,0,0-4-1.77c-2.5,0-4.3.84-5.42,2.51s-1.67,4.43-1.67,8.3v15.41h-8.93V1392h6.82l1.2,4.19h.5a9.41,9.41,0,0,1,4.12-3.59,14,14,0,0,1,6-1.22q5.72,0,8.67,3.09c2,2.06,3,5,3,8.92Z"/>
          <path d="M903.87,1424.77l-1.73-4.45h-.24a13.19,13.19,0,0,1-4.64,3.94,15,15,0,0,1-6.22,1.1,10.06,10.06,0,0,1-7.43-2.7q-2.72-2.69-2.71-7.67c0-3.48,1.21-6,3.65-7.69s6.09-2.57,11-2.74l5.68-.18V1403q0-5-5.1-5a23.34,23.34,0,0,0-9.23,2.38l-2.95-6a26.6,26.6,0,0,1,12.53-3q6.6,0,10.11,2.87t3.52,8.74v21.82Zm-2.64-15.17-3.46.11a11.1,11.1,0,0,0-5.8,1.41,4.41,4.41,0,0,0-1.9,3.92q0,3.78,4.33,3.78a6.88,6.88,0,0,0,5-1.78,6.29,6.29,0,0,0,1.86-4.75Z"/>
          <path d="M949.54,1424.77h-8.93v-19.13a9.2,9.2,0,0,0-1.26-5.32,4.59,4.59,0,0,0-4-1.77c-2.5,0-4.3.84-5.42,2.51s-1.67,4.43-1.67,8.3v15.41h-8.93V1392h6.82l1.2,4.19h.5a9.41,9.41,0,0,1,4.12-3.59,14,14,0,0,1,6-1.22q5.72,0,8.67,3.09c2,2.06,3,5,3,8.92Z"/>
          <path d="M969.11,1425.36a10.66,10.66,0,0,1-9.07-4.48q-3.28-4.49-3.29-12.43t3.35-12.55a10.9,10.9,0,0,1,9.25-4.5,10.67,10.67,0,0,1,9.43,4.81h.29a36.43,36.43,0,0,1-.67-6.54v-10.48h9v45.58h-6.85l-1.73-4.25h-.38Q975.36,1425.37,969.11,1425.36Zm3.14-7.12a6.07,6.07,0,0,0,5-2c1.06-1.33,1.65-3.59,1.74-6.77v-1q0-5.27-1.62-7.56t-5.29-2.28a5.23,5.23,0,0,0-4.64,2.53q-1.66,2.54-1.66,7.37t1.67,7.25A5.47,5.47,0,0,0,972.25,1418.24Z"/>
          <path d="M1022.67,1425.36a10.66,10.66,0,0,1-9.07-4.48q-3.3-4.49-3.3-12.43t3.36-12.55a10.87,10.87,0,0,1,9.24-4.5,10.66,10.66,0,0,1,9.43,4.81h.3a36.52,36.52,0,0,1-.68-6.54v-10.48h9v45.58h-6.86l-1.73-4.25H1032Q1028.91,1425.37,1022.67,1425.36Zm3.13-7.12a6.09,6.09,0,0,0,5-2q1.59-2,1.74-6.77v-1q0-5.27-1.63-7.56t-5.29-2.28a5.23,5.23,0,0,0-4.64,2.53q-1.65,2.54-1.65,7.37c0,3.22.55,5.64,1.67,7.25A5.45,5.45,0,0,0,1025.8,1418.24Z"/>
          <path d="M1065.09,1425.36q-7.92,0-12.37-4.37t-4.45-12.36q0-8.24,4.12-12.73t11.38-4.5q6.95,0,10.81,4t3.87,10.93v4.33h-21.13a8.61,8.61,0,0,0,2.26,6,8,8,0,0,0,5.92,2.14,24.49,24.49,0,0,0,5.59-.62,27.75,27.75,0,0,0,5.51-2V1423a20.94,20.94,0,0,1-5,1.75A31.62,31.62,0,0,1,1065.09,1425.36Zm-1.26-27.6a5.65,5.65,0,0,0-4.45,1.8,8.34,8.34,0,0,0-1.85,5.11h12.54a7.47,7.47,0,0,0-1.73-5.11A5.85,5.85,0,0,0,1063.83,1397.76Z"/>
          <path d="M1093.51,1424.77,1081,1392h9.34l6.33,18.66a33.78,33.78,0,0,1,1.32,6.71h.17a29.36,29.36,0,0,1,1.32-6.71l6.3-18.66h9.35l-12.48,32.75Z"/>
          <path d="M1134.67,1425.36q-7.92,0-12.37-4.37t-4.45-12.36q0-8.24,4.12-12.73t11.38-4.5q6.95,0,10.81,4t3.87,10.93v4.33H1126.9a8.61,8.61,0,0,0,2.26,6,8,8,0,0,0,5.92,2.14,24.49,24.49,0,0,0,5.59-.62,27.75,27.75,0,0,0,5.51-2V1423a20.94,20.94,0,0,1-5,1.75A31.62,31.62,0,0,1,1134.67,1425.36Zm-1.26-27.6a5.65,5.65,0,0,0-4.45,1.8,8.34,8.34,0,0,0-1.85,5.11h12.54a7.47,7.47,0,0,0-1.73-5.11A5.85,5.85,0,0,0,1133.41,1397.76Z"/>
          <path d="M1164.23,1424.77h-8.94v-45.58h8.94Z"/>
          <path d="M1203.37,1408.34q0,8-4.22,12.51t-11.75,4.51a16.41,16.41,0,0,1-8.32-2.07,13.71,13.71,0,0,1-5.54-5.93,20.07,20.07,0,0,1-1.93-9q0-8,4.19-12.48t11.78-4.46a16.61,16.61,0,0,1,8.32,2,13.72,13.72,0,0,1,5.54,5.89A19.89,19.89,0,0,1,1203.37,1408.34Zm-22.65,0q0,4.86,1.6,7.35a5.71,5.71,0,0,0,5.2,2.49,5.62,5.62,0,0,0,5.14-2.48q1.58-2.48,1.57-7.36t-1.58-7.3q-1.59-2.43-5.19-2.43a5.72,5.72,0,0,0-5.16,2.42C1181.25,1402.64,1180.72,1405.07,1180.72,1408.34Z"/>
          <path d="M1228.74,1425.36a10.87,10.87,0,0,1-9-4.19h-.47c.31,2.73.47,4.31.47,4.74v13.28h-8.94V1392H1218l1.26,4.25h.41a10.32,10.32,0,0,1,9.28-4.87,10.66,10.66,0,0,1,9.09,4.48q3.27,4.48,3.28,12.46a24.51,24.51,0,0,1-1.54,9.11,12.85,12.85,0,0,1-4.38,5.89A11.26,11.26,0,0,1,1228.74,1425.36Zm-2.64-26.81a5.64,5.64,0,0,0-4.83,2c-1,1.35-1.54,3.6-1.58,6.72v1q0,5.27,1.56,7.56a5.62,5.62,0,0,0,5,2.28q6,0,6-9.9c0-3.22-.5-5.64-1.48-7.25A5.07,5.07,0,0,0,1226.1,1398.55Z"/>
          <path d="M1278.05,1424.77h-8.94v-19.13a9.57,9.57,0,0,0-1.19-5.32,4.16,4.16,0,0,0-3.73-1.77,5.4,5.4,0,0,0-5,2.52c-1,1.68-1.55,4.44-1.55,8.29v15.41h-8.94V1392h6.83l1.2,4.19h.5a9,9,0,0,1,3.8-3.53,12.39,12.39,0,0,1,5.72-1.28q7.35,0,10,4.81h.79a8.82,8.82,0,0,1,3.88-3.55,13,13,0,0,1,5.79-1.26q5.57,0,8.42,2.86t2.86,9.15v21.36h-9v-19.13a9.66,9.66,0,0,0-1.18-5.32,4.19,4.19,0,0,0-3.74-1.77,5.58,5.58,0,0,0-4.91,2.34q-1.62,2.35-1.62,7.45Z"/>
          <path d="M1322.46,1425.36q-7.9,0-12.36-4.37t-4.46-12.36q0-8.24,4.12-12.73t11.38-4.5q6.94,0,10.81,4t3.87,10.93v4.33H1314.7a8.6,8.6,0,0,0,2.25,6,8,8,0,0,0,5.92,2.14,24.64,24.64,0,0,0,5.6-.62,27.89,27.89,0,0,0,5.5-2V1423a20.94,20.94,0,0,1-5,1.75A31.56,31.56,0,0,1,1322.46,1425.36Zm-1.26-27.6a5.66,5.66,0,0,0-4.45,1.8,8.34,8.34,0,0,0-1.85,5.11h12.54a7.43,7.43,0,0,0-1.73-5.11A5.84,5.84,0,0,0,1321.2,1397.76Z"/>
          <path d="M1373.32,1424.77h-8.94v-19.13a9.2,9.2,0,0,0-1.26-5.32,4.56,4.56,0,0,0-4-1.77q-3.75,0-5.42,2.51c-1.11,1.67-1.67,4.43-1.67,8.3v15.41h-8.93V1392h6.82l1.2,4.19h.5a9.41,9.41,0,0,1,4.12-3.59,14,14,0,0,1,6-1.22q5.71,0,8.67,3.09c2,2.06,3,5,3,8.92Z"/>
          <path d="M1396.32,1418.24a19.12,19.12,0,0,0,5.62-1v6.65a20,20,0,0,1-8.2,1.5c-3.57,0-6.18-.91-7.81-2.71s-2.44-4.52-2.44-8.13v-15.79h-4.28V1395l4.92-3,2.58-6.92h5.71v7h9.17v6.71h-9.17v15.79a3.5,3.5,0,0,0,1.07,2.81A4.2,4.2,0,0,0,1396.32,1418.24Z"/>
        </g>
        <g>
          <path d="M462.68,1524.19q-15.3,0-15.3-16.78,0-8.36,4.16-12.76t11.93-4.41a22.74,22.74,0,0,1,10.19,2.22l-2.63,6.92c-1.41-.57-2.72-1-3.93-1.39a12.35,12.35,0,0,0-3.63-.55q-7,0-7,9.91,0,9.6,7,9.61a15.8,15.8,0,0,0,4.77-.69,17.22,17.22,0,0,0,4.4-2.16v7.65a14.68,14.68,0,0,1-4.38,1.91A24.83,24.83,0,0,1,462.68,1524.19Z"/>
          <path d="M510,1507.17q0,8-4.22,12.51T494,1524.19a16.48,16.48,0,0,1-8.32-2.06,13.74,13.74,0,0,1-5.54-5.94,19.88,19.88,0,0,1-1.94-9q0-8,4.19-12.48t11.78-4.45a16.48,16.48,0,0,1,8.32,2,13.72,13.72,0,0,1,5.54,5.89A19.72,19.72,0,0,1,510,1507.17Zm-22.64,0q0,4.86,1.59,7.35a5.72,5.72,0,0,0,5.2,2.49q3.58,0,5.14-2.47t1.57-7.37q0-4.86-1.58-7.29c-1.06-1.63-2.78-2.44-5.19-2.44a5.69,5.69,0,0,0-5.15,2.42C487.87,1501.47,487.35,1503.91,487.35,1507.17Z"/>
          <path d="M547.61,1523.61h-8.94v-19.13a9.18,9.18,0,0,0-1.26-5.32,4.57,4.57,0,0,0-4-1.77q-3.75,0-5.42,2.5t-1.67,8.31v15.41h-8.93v-32.76h6.82l1.2,4.19h.5a9.48,9.48,0,0,1,4.12-3.59,14,14,0,0,1,6-1.21q5.71,0,8.67,3.09t3,8.92Z"/>
          <path d="M570.61,1517.07a19.46,19.46,0,0,0,5.62-1v6.65a20.13,20.13,0,0,1-8.2,1.49c-3.57,0-6.18-.9-7.81-2.71s-2.44-4.51-2.44-8.13v-15.79H553.5v-3.78l4.92-3,2.58-6.91h5.71v7h9.17v6.71h-9.17v15.79a3.52,3.52,0,0,0,1.07,2.82A4.25,4.25,0,0,0,570.61,1517.07Z"/>
          <path d="M597.68,1524.19q-7.92,0-12.37-4.36t-4.45-12.37q0-8.22,4.12-12.73t11.38-4.49q6.95,0,10.81,4t3.87,10.93v4.34H589.91a8.57,8.57,0,0,0,2.26,5.94,7.93,7.93,0,0,0,5.92,2.14,24.5,24.5,0,0,0,5.59-.61,27.81,27.81,0,0,0,5.51-2v6.92a20.92,20.92,0,0,1-5,1.74A31.62,31.62,0,0,1,597.68,1524.19Zm-1.26-27.6a5.69,5.69,0,0,0-4.46,1.81,8.37,8.37,0,0,0-1.84,5.11h12.54a7.46,7.46,0,0,0-1.73-5.11A5.86,5.86,0,0,0,596.42,1496.59Z"/>
          <path d="M648.54,1523.61H639.6v-19.13a9.18,9.18,0,0,0-1.26-5.32,4.59,4.59,0,0,0-4-1.77q-3.75,0-5.42,2.5c-1.12,1.67-1.67,4.44-1.67,8.31v15.41H618.3v-32.76h6.83l1.2,4.19h.5a9.45,9.45,0,0,1,4.11-3.59,14.06,14.06,0,0,1,6-1.21c3.8,0,6.7,1,8.67,3.09s3,5,3,8.92Z"/>
          <path d="M671.54,1517.07a19.46,19.46,0,0,0,5.62-1v6.65a20.16,20.16,0,0,1-8.2,1.49q-5.37,0-7.81-2.71t-2.45-8.13v-15.79h-4.27v-3.78l4.92-3,2.58-6.91h5.71v7h9.17v6.71h-9.17v15.79a3.52,3.52,0,0,0,1.07,2.82A4.23,4.23,0,0,0,671.54,1517.07Z"/>
          <path d="M712.67,1524.19q-15.3,0-15.29-16.78,0-8.36,4.16-12.76t11.92-4.41a22.74,22.74,0,0,1,10.19,2.22l-2.63,6.92c-1.41-.57-2.72-1-3.93-1.39a12.35,12.35,0,0,0-3.63-.55q-7,0-7,9.91,0,9.6,7,9.61a15.8,15.8,0,0,0,4.77-.69,17.22,17.22,0,0,0,4.4-2.16v7.65a14.68,14.68,0,0,1-4.38,1.91A24.83,24.83,0,0,1,712.67,1524.19Z"/>
          <path d="M748.5,1490.24a14.94,14.94,0,0,1,3,.26l-.68,8.38a10,10,0,0,0-2.63-.29,9.49,9.49,0,0,0-6.67,2.19,8,8,0,0,0-2.39,6.16v16.67h-8.93v-32.76H737l1.32,5.51h.44a12.29,12.29,0,0,1,4.12-4.44A10.18,10.18,0,0,1,748.5,1490.24Z"/>
          <path d="M772.29,1524.19q-7.92,0-12.37-4.36t-4.45-12.37q0-8.22,4.12-12.73t11.38-4.49q6.94,0,10.81,4t3.87,10.93v4.34H764.52a8.57,8.57,0,0,0,2.26,5.94,7.93,7.93,0,0,0,5.92,2.14,24.5,24.5,0,0,0,5.59-.61,27.81,27.81,0,0,0,5.51-2v6.92a20.92,20.92,0,0,1-5,1.74A31.62,31.62,0,0,1,772.29,1524.19Zm-1.26-27.6a5.69,5.69,0,0,0-4.46,1.81,8.31,8.31,0,0,0-1.84,5.11h12.54a7.46,7.46,0,0,0-1.73-5.11A5.86,5.86,0,0,0,771,1496.59Z"/>
          <path d="M813.71,1523.61l-1.73-4.46h-.23a13.09,13.09,0,0,1-4.64,3.94,14.93,14.93,0,0,1-6.23,1.1,10.11,10.11,0,0,1-7.43-2.69c-1.8-1.8-2.71-4.36-2.71-7.68q0-5.22,3.65-7.69t11-2.74l5.69-.17v-1.44q0-5-5.1-5a23.27,23.27,0,0,0-9.23,2.37l-3-6a26.66,26.66,0,0,1,12.54-3q6.58,0,10.11,2.87t3.51,8.73v21.83Zm-2.63-15.18-3.46.12a11.08,11.08,0,0,0-5.8,1.4,4.43,4.43,0,0,0-1.91,3.93q0,3.78,4.34,3.78a6.89,6.89,0,0,0,5-1.79,6.27,6.27,0,0,0,1.86-4.74Z"/>
          <path d="M843,1517.07a19.52,19.52,0,0,0,5.63-1v6.65a20.18,20.18,0,0,1-8.21,1.49q-5.36,0-7.8-2.71c-1.64-1.8-2.45-4.51-2.45-8.13v-15.79h-4.28v-3.78l4.92-3,2.58-6.91h5.71v7h9.17v6.71h-9.17v15.79a3.52,3.52,0,0,0,1.07,2.82A4.27,4.27,0,0,0,843,1517.07Z"/>
          <path d="M854.82,1482.39q0-4.37,4.86-4.37t4.86,4.37a4.25,4.25,0,0,1-1.21,3.23,5.13,5.13,0,0,1-3.65,1.16Q854.82,1486.78,854.82,1482.39Zm9.31,41.22H855.2v-32.76h8.93Z"/>
          <path d="M903.27,1507.17q0,8-4.22,12.51t-11.74,4.51a16.48,16.48,0,0,1-8.32-2.06,13.74,13.74,0,0,1-5.54-5.94,19.88,19.88,0,0,1-1.93-9q0-8,4.19-12.48t11.77-4.45a16.48,16.48,0,0,1,8.32,2,13.67,13.67,0,0,1,5.54,5.89A19.72,19.72,0,0,1,903.27,1507.17Zm-22.64,0q0,4.86,1.59,7.35a5.72,5.72,0,0,0,5.2,2.49,5.63,5.63,0,0,0,5.15-2.47q1.56-2.47,1.56-7.37c0-3.24-.52-5.67-1.58-7.29s-2.78-2.44-5.18-2.44-4.11.81-5.16,2.42S880.63,1503.91,880.63,1507.17Z"/>
          <path d="M940.89,1523.61H932v-19.13a9.18,9.18,0,0,0-1.26-5.32,4.59,4.59,0,0,0-4-1.77c-2.5,0-4.3.83-5.42,2.5s-1.67,4.44-1.67,8.31v15.41h-8.93v-32.76h6.82l1.2,4.19h.5a9.48,9.48,0,0,1,4.12-3.59,14,14,0,0,1,6-1.21q5.72,0,8.67,3.09t3,8.92Z"/>
          <path d="M986.48,1523.61l-1.73-4.46h-.24a13.09,13.09,0,0,1-4.64,3.94,14.9,14.9,0,0,1-6.23,1.1,10.07,10.07,0,0,1-7.42-2.69q-2.72-2.7-2.71-7.68c0-3.48,1.21-6,3.65-7.69s6.09-2.56,11-2.74l5.68-.17v-1.44q0-5-5.1-5a23.27,23.27,0,0,0-9.23,2.37l-3-6a26.66,26.66,0,0,1,12.54-3q6.6,0,10.11,2.87t3.52,8.73v21.83Zm-2.64-15.18-3.46.12a11.11,11.11,0,0,0-5.8,1.4,4.42,4.42,0,0,0-1.9,3.93q0,3.78,4.33,3.78a6.89,6.89,0,0,0,5-1.79,6.27,6.27,0,0,0,1.86-4.74Z"/>
          <path d="M1032.15,1523.61h-8.94v-19.13a9.26,9.26,0,0,0-1.25-5.32,4.59,4.59,0,0,0-4-1.77q-3.75,0-5.42,2.5t-1.67,8.31v15.41h-8.93v-32.76h6.82l1.2,4.19h.5a9.48,9.48,0,0,1,4.12-3.59,14,14,0,0,1,6-1.21q5.71,0,8.67,3.09t3,8.92Z"/>
          <path d="M1051.72,1524.19a10.64,10.64,0,0,1-9.07-4.48q-3.29-4.49-3.29-12.42t3.35-12.56a10.92,10.92,0,0,1,9.25-4.49,10.69,10.69,0,0,1,9.43,4.8h.29a36.41,36.41,0,0,1-.67-6.53V1478h9v45.59h-6.85l-1.73-4.25H1061Q1058,1524.19,1051.72,1524.19Zm3.14-7.12c2.28,0,4-.66,5-2s1.65-3.58,1.74-6.77v-1q0-5.28-1.62-7.56t-5.29-2.29a5.24,5.24,0,0,0-4.64,2.54c-1.11,1.69-1.66,4.14-1.66,7.37s.56,5.63,1.67,7.25A5.46,5.46,0,0,0,1054.86,1517.07Z"/>
          <path d="M1124.23,1523.61h-8.94v-19.13a9.64,9.64,0,0,0-1.18-5.32,4.18,4.18,0,0,0-3.74-1.77,5.42,5.42,0,0,0-5,2.52c-1,1.67-1.55,4.44-1.55,8.29v15.41h-8.94v-32.76h6.83l1.2,4.19h.5a9.12,9.12,0,0,1,3.81-3.53,12.34,12.34,0,0,1,5.71-1.27q7.35,0,10,4.8h.79a8.91,8.91,0,0,1,3.88-3.54,13,13,0,0,1,5.79-1.26q5.57,0,8.42,2.85t2.86,9.16v21.36h-9v-19.13a9.63,9.63,0,0,0-1.19-5.32,4.18,4.18,0,0,0-3.74-1.77,5.57,5.57,0,0,0-4.9,2.34q-1.63,2.34-1.63,7.44Z"/>
          <path d="M1174.62,1523.61l-1.73-4.46h-.23a13.11,13.11,0,0,1-4.65,3.94,14.85,14.85,0,0,1-6.22,1.1,10.1,10.1,0,0,1-7.43-2.69c-1.8-1.8-2.71-4.36-2.71-7.68q0-5.22,3.65-7.69t11-2.74l5.68-.17v-1.44c0-3.32-1.69-5-5.09-5a23.23,23.23,0,0,0-9.23,2.37l-3-6a26.66,26.66,0,0,1,12.54-3q6.59,0,10.11,2.87t3.51,8.73v21.83Zm-2.64-15.18-3.45.12a11.08,11.08,0,0,0-5.8,1.4,4.43,4.43,0,0,0-1.91,3.93q0,3.78,4.34,3.78a6.86,6.86,0,0,0,5-1.79,6.27,6.27,0,0,0,1.86-4.74Z"/>
          <path d="M1220.29,1523.61h-8.93v-19.13a9.18,9.18,0,0,0-1.26-5.32,4.59,4.59,0,0,0-4-1.77q-3.75,0-5.42,2.5c-1.12,1.67-1.67,4.44-1.67,8.31v15.41h-8.94v-32.76h6.83l1.2,4.19h.5a9.39,9.39,0,0,1,4.11-3.59,14,14,0,0,1,6-1.21q5.71,0,8.68,3.09t3,8.92Z"/>
          <path d="M1250.29,1523.61l-1.72-4.46h-.24a13.09,13.09,0,0,1-4.64,3.94,14.9,14.9,0,0,1-6.23,1.1,10.07,10.07,0,0,1-7.42-2.69q-2.71-2.7-2.71-7.68,0-5.22,3.64-7.69t11-2.74l5.69-.17v-1.44q0-5-5.1-5a23.27,23.27,0,0,0-9.23,2.37l-3-6a26.66,26.66,0,0,1,12.54-3q6.6,0,10.11,2.87t3.52,8.73v21.83Zm-2.63-15.18-3.46.12a11.08,11.08,0,0,0-5.8,1.4,4.42,4.42,0,0,0-1.9,3.93q0,3.78,4.33,3.78a6.89,6.89,0,0,0,5-1.79,6.27,6.27,0,0,0,1.86-4.74Z"/>
          <path d="M1294.24,1490.85v4.54l-5.13,1.32a8.94,8.94,0,0,1,1.41,4.92,9.94,9.94,0,0,1-3.68,8.22q-3.67,2.94-10.21,3l-1.61-.09-1.32-.15a3,3,0,0,0-1.37,2.35c0,1.28,1.64,1.93,4.92,1.93h5.56q5.4,0,8.22,2.31c1.89,1.55,2.83,3.81,2.83,6.8a10.09,10.09,0,0,1-4.79,8.91q-4.78,3.17-13.76,3.16-6.86,0-10.47-2.39a7.58,7.58,0,0,1-3.62-6.69,7,7,0,0,1,1.85-5,10.43,10.43,0,0,1,5.42-2.84,6,6,0,0,1-2.4-1.92,4.53,4.53,0,0,1-1-2.83,4.59,4.59,0,0,1,1.08-3.12,12.64,12.64,0,0,1,3.14-2.45,8.79,8.79,0,0,1-4.09-3.57,10.94,10.94,0,0,1-1.51-5.8,10.23,10.23,0,0,1,3.49-8.29q3.48-2.94,10-2.93a24.83,24.83,0,0,1,3.27.25c1.26.16,2.06.28,2.41.36ZM1269,1528.24a3.25,3.25,0,0,0,1.77,2.9,9.8,9.8,0,0,0,5,1,17.51,17.51,0,0,0,7.52-1.32q2.73-1.32,2.73-3.6a2.56,2.56,0,0,0-1.61-2.55,13.22,13.22,0,0,0-5-.7h-4.63a7,7,0,0,0-4.12,1.15A3.6,3.6,0,0,0,1269,1528.24Zm3.25-26.66a6.65,6.65,0,0,0,1.21,4.21,4.43,4.43,0,0,0,3.71,1.56,4.31,4.31,0,0,0,3.69-1.56,6.83,6.83,0,0,0,1.17-4.21q0-5.92-4.86-5.92T1272.21,1501.58Z"/>
          <path d="M1314.46,1524.19q-7.92,0-12.37-4.36t-4.45-12.37q0-8.22,4.11-12.73t11.39-4.49q6.94,0,10.81,4t3.86,10.93v4.34h-21.12a8.57,8.57,0,0,0,2.26,5.94,7.92,7.92,0,0,0,5.92,2.14,24.56,24.56,0,0,0,5.59-.61,28,28,0,0,0,5.51-2v6.92a20.92,20.92,0,0,1-5,1.74A31.69,31.69,0,0,1,1314.46,1524.19Zm-1.26-27.6a5.69,5.69,0,0,0-4.46,1.81,8.31,8.31,0,0,0-1.84,5.11h12.54a7.46,7.46,0,0,0-1.73-5.11A5.87,5.87,0,0,0,1313.2,1496.59Z"/>
          <path d="M1364.41,1523.61h-8.94v-19.13a9.55,9.55,0,0,0-1.19-5.32,4.16,4.16,0,0,0-3.73-1.77,5.4,5.4,0,0,0-5,2.52c-1,1.67-1.55,4.44-1.55,8.29v15.41h-8.94v-32.76h6.83l1.2,4.19h.5a9,9,0,0,1,3.8-3.53,12.38,12.38,0,0,1,5.72-1.27q7.35,0,10,4.8h.79a8.86,8.86,0,0,1,3.88-3.54,13,13,0,0,1,5.79-1.26q5.57,0,8.42,2.85t2.86,9.16v21.36h-9v-19.13a9.55,9.55,0,0,0-1.19-5.32,4.16,4.16,0,0,0-3.73-1.77,5.58,5.58,0,0,0-4.91,2.34q-1.62,2.34-1.62,7.44Z"/>
          <path d="M1408.82,1524.19q-7.9,0-12.36-4.36t-4.46-12.37q0-8.22,4.12-12.73t11.38-4.49q6.95,0,10.81,4t3.87,10.93v4.34h-21.12a8.56,8.56,0,0,0,2.25,5.94,7.93,7.93,0,0,0,5.92,2.14,24.65,24.65,0,0,0,5.6-.61,28,28,0,0,0,5.5-2v6.92a20.92,20.92,0,0,1-5,1.74A31.56,31.56,0,0,1,1408.82,1524.19Zm-1.26-27.6a5.67,5.67,0,0,0-4.45,1.81,8.31,8.31,0,0,0-1.85,5.11h12.54a7.41,7.41,0,0,0-1.73-5.11A5.85,5.85,0,0,0,1407.56,1496.59Z"/>
          <path d="M1459.68,1523.61h-8.94v-19.13a9.18,9.18,0,0,0-1.26-5.32,4.57,4.57,0,0,0-4-1.77q-3.75,0-5.42,2.5t-1.67,8.31v15.41h-8.93v-32.76h6.82l1.2,4.19h.5a9.48,9.48,0,0,1,4.12-3.59,14,14,0,0,1,6-1.21q5.71,0,8.67,3.09t3,8.92Z"/>
          <path d="M1482.68,1517.07a19.4,19.4,0,0,0,5.62-1v6.65a20.13,20.13,0,0,1-8.2,1.49c-3.57,0-6.18-.9-7.81-2.71s-2.44-4.51-2.44-8.13v-15.79h-4.28v-3.78l4.92-3,2.58-6.91h5.71v7H1488v6.71h-9.17v15.79a3.52,3.52,0,0,0,1.07,2.82A4.25,4.25,0,0,0,1482.68,1517.07Z"/>
        </g>
        <g>
          <path d="M562.94,1595.78v27.71a15.94,15.94,0,0,1-2.12,8.32,13.85,13.85,0,0,1-6.14,5.48,21.92,21.92,0,0,1-9.49,1.9q-8.27,0-12.83-4.23t-4.57-11.59v-27.59h9.05V1622q0,4.95,2,7.26c1.33,1.54,3.53,2.32,6.59,2.32s5.13-.78,6.46-2.33,2-4,2-7.31v-26.16Z"/>
          <path d="M608.06,1638.61H597.69l-10-16.2-10,16.2H568l14.21-22.09L569,1595.78h10l9.23,15.41,9-15.41H607L593.59,1617Z"/>
          <path d="M649.13,1638.61l-1.72-4.46h-.24a13.09,13.09,0,0,1-4.64,3.94,14.9,14.9,0,0,1-6.23,1.1,10.07,10.07,0,0,1-7.42-2.69q-2.71-2.7-2.71-7.68c0-3.47,1.21-6,3.64-7.69s6.1-2.56,11-2.74l5.69-.17v-1.44q0-5-5.1-5a23.27,23.27,0,0,0-9.23,2.37l-3-6a26.66,26.66,0,0,1,12.54-3q6.6,0,10.11,2.87c2.34,1.91,3.52,4.83,3.52,8.73v21.83Zm-2.63-15.18-3.46.12a11.07,11.07,0,0,0-5.8,1.41,4.39,4.39,0,0,0-1.9,3.92q0,3.78,4.33,3.78a6.89,6.89,0,0,0,5-1.79,6.27,6.27,0,0,0,1.86-4.74Z"/>
          <path d="M694.81,1638.61h-8.94v-19.13a9.18,9.18,0,0,0-1.26-5.32,4.57,4.57,0,0,0-4-1.77q-3.75,0-5.42,2.5t-1.67,8.31v15.41h-8.94v-32.76h6.83l1.2,4.19h.5a9.48,9.48,0,0,1,4.12-3.59,14,14,0,0,1,6-1.21q5.72,0,8.67,3.09t3,8.92Z"/>
          <path d="M714.38,1639.19a10.64,10.64,0,0,1-9.07-4.48q-3.3-4.49-3.29-12.42t3.35-12.55a10.9,10.9,0,0,1,9.24-4.5,10.7,10.7,0,0,1,9.44,4.8h.29a36.41,36.41,0,0,1-.67-6.53V1593h9v45.59h-6.85l-1.73-4.25h-.38Q720.61,1639.19,714.38,1639.19Zm3.13-7.12c2.29,0,4-.66,5-2s1.64-3.58,1.74-6.77v-1q0-5.28-1.62-7.56c-1.09-1.52-2.85-2.29-5.29-2.29a5.27,5.27,0,0,0-4.65,2.54c-1.1,1.69-1.65,4.14-1.65,7.37s.55,5.64,1.67,7.25A5.44,5.44,0,0,0,717.51,1632.07Z"/>
          <path d="M793.13,1595.78v27.71a15.94,15.94,0,0,1-2.13,8.32,13.82,13.82,0,0,1-6.13,5.48,22,22,0,0,1-9.49,1.9q-8.26,0-12.84-4.23T758,1623.37v-27.59H767V1622q0,4.95,2,7.26c1.33,1.54,3.52,2.32,6.59,2.32s5.12-.78,6.46-2.33,2-4,2-7.31v-26.16Z"/>
          <path d="M803.62,1638.61v-42.83h9.08v42.83Z"/>
          <path d="M848.73,1639.19a10.62,10.62,0,0,1-9.06-4.48q-3.3-4.49-3.3-12.42t3.36-12.55a10.87,10.87,0,0,1,9.24-4.5,10.69,10.69,0,0,1,9.43,4.8h.3a36.51,36.51,0,0,1-.68-6.53V1593h9v45.59h-6.86l-1.73-4.25H858Q855,1639.19,848.73,1639.19Zm3.14-7.12c2.28,0,4-.66,5-2s1.65-3.58,1.75-6.77v-1c0-3.52-.55-6-1.63-7.56s-2.85-2.29-5.29-2.29a5.24,5.24,0,0,0-4.64,2.54c-1.1,1.69-1.66,4.14-1.66,7.37s.56,5.64,1.67,7.25A5.47,5.47,0,0,0,851.87,1632.07Z"/>
          <path d="M891.16,1639.19q-7.92,0-12.37-4.36t-4.45-12.37c0-5.48,1.37-9.73,4.12-12.72s6.53-4.5,11.38-4.5q6.95,0,10.81,4t3.87,10.93v4.34H883.39a8.57,8.57,0,0,0,2.26,5.94,7.92,7.92,0,0,0,5.92,2.14,24.56,24.56,0,0,0,5.59-.61,27.81,27.81,0,0,0,5.51-2v6.92a20.92,20.92,0,0,1-5,1.74A31.69,31.69,0,0,1,891.16,1639.19Zm-1.26-27.59a5.69,5.69,0,0,0-4.46,1.8,8.31,8.31,0,0,0-1.84,5.11h12.54a7.46,7.46,0,0,0-1.73-5.11A5.87,5.87,0,0,0,889.9,1611.6Z"/>
          <path d="M934.63,1628.88a9,9,0,0,1-3.5,7.68q-3.5,2.63-10.47,2.63a33.22,33.22,0,0,1-6.1-.48,23.06,23.06,0,0,1-4.71-1.42v-7.38a31.45,31.45,0,0,0,5.61,2,22.57,22.57,0,0,0,5.49.79q4.86,0,4.86-2.81a2.35,2.35,0,0,0-.64-1.72,9.37,9.37,0,0,0-2.23-1.49q-1.58-.84-4.22-2a26.39,26.39,0,0,1-5.55-2.93,8.32,8.32,0,0,1-2.58-3.09,10.3,10.3,0,0,1-.8-4.29,7.78,7.78,0,0,1,3.38-6.75q3.39-2.4,9.6-2.39a27.22,27.22,0,0,1,11.51,2.58l-2.69,6.44c-1.64-.7-3.18-1.28-4.6-1.73a14.44,14.44,0,0,0-4.37-.67c-2.64,0-4,.71-4,2.14a2.51,2.51,0,0,0,1.27,2.08,35.9,35.9,0,0,0,5.58,2.61,25.63,25.63,0,0,1,5.63,2.9,8.44,8.44,0,0,1,2.63,3.1A9.49,9.49,0,0,1,934.63,1628.88Z"/>
          <path d="M941.22,1597.39c0-2.91,1.63-4.37,4.87-4.37s4.86,1.46,4.86,4.37a4.25,4.25,0,0,1-1.21,3.23,5.1,5.1,0,0,1-3.65,1.16C942.85,1601.78,941.22,1600.32,941.22,1597.39Zm9.32,41.22h-8.93v-32.76h8.93Z"/>
          <path d="M988.42,1605.85v4.54l-5.13,1.32a8.94,8.94,0,0,1,1.41,4.92,9.91,9.91,0,0,1-3.68,8.22q-3.67,3-10.21,3l-1.61-.09-1.32-.15a3,3,0,0,0-1.37,2.35q0,1.93,4.92,1.93H977q5.38,0,8.21,2.31c1.89,1.55,2.83,3.81,2.83,6.8a10.09,10.09,0,0,1-4.79,8.91q-4.79,3.17-13.75,3.16-6.86,0-10.48-2.39a7.58,7.58,0,0,1-3.62-6.69,7,7,0,0,1,1.85-5,10.43,10.43,0,0,1,5.42-2.84,5.92,5.92,0,0,1-2.4-1.92,4.7,4.7,0,0,1,.06-6,12.39,12.39,0,0,1,3.13-2.45,8.79,8.79,0,0,1-4.09-3.57,10.91,10.91,0,0,1-1.5-5.8q0-5.37,3.48-8.29t10-2.93a24.83,24.83,0,0,1,3.27.25c1.26.16,2.06.29,2.42.36Zm-25.28,37.39a3.25,3.25,0,0,0,1.77,2.9,9.8,9.8,0,0,0,5,1,17.59,17.59,0,0,0,7.53-1.32q2.72-1.32,2.72-3.6a2.56,2.56,0,0,0-1.61-2.55,13.15,13.15,0,0,0-5-.7h-4.63a7,7,0,0,0-4.12,1.15A3.6,3.6,0,0,0,963.14,1643.24Zm3.25-26.66a6.65,6.65,0,0,0,1.22,4.21,4.39,4.39,0,0,0,3.7,1.56,4.31,4.31,0,0,0,3.69-1.56,6.77,6.77,0,0,0,1.18-4.21c0-3.95-1.63-5.92-4.87-5.92S966.39,1612.63,966.39,1616.58Z"/>
          <path d="M1024.05,1638.61h-8.94v-19.13a9.18,9.18,0,0,0-1.26-5.32,4.59,4.59,0,0,0-4-1.77q-3.75,0-5.42,2.5c-1.12,1.67-1.67,4.44-1.67,8.31v15.41h-8.94v-32.76h6.83l1.2,4.19h.5a9.45,9.45,0,0,1,4.11-3.59,14.06,14.06,0,0,1,6-1.21c3.8,0,6.7,1,8.67,3.09s3,5,3,8.92Z"/>
        </g>
        <g>
          <path d="M619.17,1730.61l-12.48-32.76H616l6.32,18.66a32.54,32.54,0,0,1,1.32,6.71h.18a28.93,28.93,0,0,1,1.32-6.71l6.29-18.66h9.35l-12.48,32.76Z"/>
          <path d="M645.13,1689.39q0-4.37,4.86-4.37t4.86,4.37a4.25,4.25,0,0,1-1.21,3.23,5.13,5.13,0,0,1-3.65,1.16Q645.13,1693.78,645.13,1689.39Zm9.31,41.22h-8.93v-32.76h8.93Z"/>
          <path d="M674.19,1731.19a10.64,10.64,0,0,1-9.07-4.48q-3.3-4.49-3.29-12.42t3.35-12.56a10.92,10.92,0,0,1,9.24-4.49,10.7,10.7,0,0,1,9.44,4.8h.29a36.41,36.41,0,0,1-.67-6.53V1685h9v45.59h-6.85l-1.73-4.25h-.38Q680.44,1731.19,674.19,1731.19Zm3.13-7.12c2.29,0,4-.66,5-2s1.64-3.58,1.74-6.77v-1q0-5.28-1.62-7.56t-5.29-2.29a5.27,5.27,0,0,0-4.65,2.54c-1.1,1.69-1.65,4.14-1.65,7.37s.56,5.63,1.67,7.25A5.44,5.44,0,0,0,677.32,1724.07Z"/>
          <path d="M716.61,1731.19q-7.9,0-12.36-4.36t-4.46-12.37q0-8.22,4.12-12.73t11.38-4.49q6.94,0,10.81,4t3.87,10.93v4.34H708.85a8.61,8.61,0,0,0,2.25,5.94,7.93,7.93,0,0,0,5.92,2.14,24.65,24.65,0,0,0,5.6-.61,27.73,27.73,0,0,0,5.5-2v6.92a21,21,0,0,1-5,1.74A31.73,31.73,0,0,1,716.61,1731.19Zm-1.26-27.6a5.67,5.67,0,0,0-4.45,1.81,8.31,8.31,0,0,0-1.85,5.11h12.54a7.41,7.41,0,0,0-1.73-5.11A5.85,5.85,0,0,0,715.35,1703.59Z"/>
          <path d="M767,1714.17q0,8-4.22,12.51T751,1731.19a16.54,16.54,0,0,1-8.33-2.06,13.77,13.77,0,0,1-5.53-5.94,19.88,19.88,0,0,1-1.94-9q0-8,4.19-12.48t11.78-4.45a16.48,16.48,0,0,1,8.32,2,13.72,13.72,0,0,1,5.54,5.89A19.72,19.72,0,0,1,767,1714.17Zm-22.64,0q0,4.86,1.59,7.35a5.72,5.72,0,0,0,5.2,2.49q3.58,0,5.14-2.47t1.57-7.37q0-4.86-1.58-7.29c-1.06-1.63-2.78-2.44-5.19-2.44a5.69,5.69,0,0,0-5.15,2.42C744.88,1708.47,744.36,1710.91,744.36,1714.17Z"/>
          <path d="M810.77,1730.61l-1.73-4.46h-.23a13.17,13.17,0,0,1-4.64,3.94,14.93,14.93,0,0,1-6.23,1.1,10.1,10.1,0,0,1-7.43-2.69c-1.8-1.8-2.71-4.36-2.71-7.68q0-5.22,3.65-7.69t11-2.74l5.68-.17v-1.44c0-3.32-1.69-5-5.09-5a23.23,23.23,0,0,0-9.23,2.37l-3-6a26.66,26.66,0,0,1,12.54-3q6.58,0,10.11,2.87t3.51,8.73v21.83Zm-2.64-15.18-3.45.12a11.08,11.08,0,0,0-5.8,1.4,4.43,4.43,0,0,0-1.91,3.93q0,3.78,4.34,3.78a6.86,6.86,0,0,0,5-1.79,6.27,6.27,0,0,0,1.86-4.74Z"/>
          <path d="M856.45,1730.61h-8.94v-19.13a9.18,9.18,0,0,0-1.26-5.32,4.59,4.59,0,0,0-4-1.77q-3.75,0-5.42,2.5c-1.12,1.67-1.67,4.44-1.67,8.31v15.41h-8.94v-32.76H833l1.2,4.19h.5a9.39,9.39,0,0,1,4.11-3.59,14,14,0,0,1,6-1.21q5.72,0,8.68,3.09t3,8.92Z"/>
          <path d="M876,1731.19a10.64,10.64,0,0,1-9.07-4.48q-3.3-4.49-3.3-12.42t3.36-12.56a10.89,10.89,0,0,1,9.24-4.49,10.67,10.67,0,0,1,9.43,4.8h.3a36.51,36.51,0,0,1-.68-6.53V1685h9v45.59h-6.86l-1.73-4.25h-.38Q882.26,1731.19,876,1731.19Zm3.13-7.12q3.44,0,5-2c1.07-1.33,1.65-3.58,1.75-6.77v-1q0-5.28-1.63-7.56T879,1704.5a5.24,5.24,0,0,0-4.64,2.54c-1.1,1.69-1.65,4.14-1.65,7.37s.55,5.63,1.67,7.25A5.44,5.44,0,0,0,879.15,1724.07Z"/>
          <path d="M937.19,1731.19a10.86,10.86,0,0,1-9.06-4.19h-.46c.31,2.74.46,4.32.46,4.75V1745H919.2v-47.17h7.26l1.26,4.25h.41a10.35,10.35,0,0,1,9.29-4.86,10.61,10.61,0,0,1,9.08,4.48q3.29,4.48,3.29,12.45a24.68,24.68,0,0,1-1.54,9.11,12.85,12.85,0,0,1-4.38,5.89A11.22,11.22,0,0,1,937.19,1731.19Zm-2.64-26.8a5.61,5.61,0,0,0-4.83,2q-1.53,2-1.59,6.73v1c0,3.52.53,6,1.57,7.56a5.61,5.61,0,0,0,5,2.29q6,0,6-9.91,0-4.83-1.48-7.25A5,5,0,0,0,934.55,1704.39Z"/>
          <path d="M987.4,1730.61h-8.93v-19.13q0-7.1-5.28-7.09c-2.5,0-4.3.85-5.42,2.54s-1.67,4.46-1.67,8.27v15.41h-8.93V1685h8.93v9.29c0,.72-.06,2.42-.2,5.1l-.21,2.63h.47q3-4.8,9.49-4.8,5.77,0,8.76,3.1c2,2.07,3,5,3,8.91Z"/>
          <path d="M1026.37,1714.17q0,8-4.22,12.51t-11.75,4.51a16.51,16.51,0,0,1-8.32-2.06,13.79,13.79,0,0,1-5.54-5.94,19.88,19.88,0,0,1-1.93-9q0-8,4.19-12.48t11.78-4.45a16.53,16.53,0,0,1,8.32,2,13.7,13.7,0,0,1,5.53,5.89A19.72,19.72,0,0,1,1026.37,1714.17Zm-22.65,0q0,4.86,1.6,7.35a5.71,5.71,0,0,0,5.2,2.49,5.62,5.62,0,0,0,5.14-2.47c1-1.65,1.57-4.11,1.57-7.37s-.53-5.67-1.59-7.29-2.78-2.44-5.18-2.44a5.72,5.72,0,0,0-5.16,2.42Q1003.73,1709.28,1003.72,1714.17Z"/>
          <path d="M1047.55,1724.07a19.4,19.4,0,0,0,5.62-1v6.65a20.13,20.13,0,0,1-8.2,1.49c-3.57,0-6.18-.9-7.81-2.71s-2.44-4.51-2.44-8.13v-15.79h-4.28v-3.78l4.92-3,2.58-6.91h5.71v7h9.17v6.71h-9.17v15.79a3.52,3.52,0,0,0,1.07,2.82A4.25,4.25,0,0,0,1047.55,1724.07Z"/>
          <path d="M1089.56,1714.17q0,8-4.22,12.51t-11.75,4.51a16.53,16.53,0,0,1-8.32-2.06,13.77,13.77,0,0,1-5.53-5.94,19.88,19.88,0,0,1-1.94-9q0-8,4.19-12.48t11.78-4.45a16.5,16.5,0,0,1,8.32,2,13.72,13.72,0,0,1,5.54,5.89A19.72,19.72,0,0,1,1089.56,1714.17Zm-22.65,0c0,3.24.54,5.69,1.6,7.35a5.72,5.72,0,0,0,5.2,2.49,5.61,5.61,0,0,0,5.14-2.47q1.58-2.47,1.57-7.37t-1.58-7.29q-1.59-2.45-5.19-2.44a5.69,5.69,0,0,0-5.15,2.42Q1066.91,1709.28,1066.91,1714.17Z"/>
          <path d="M1125.45,1697.85v4.54l-5.13,1.32a8.94,8.94,0,0,1,1.41,4.92,9.94,9.94,0,0,1-3.68,8.22q-3.67,2.94-10.21,3l-1.61-.09-1.32-.15a3,3,0,0,0-1.37,2.35c0,1.28,1.64,1.93,4.92,1.93H1114q5.4,0,8.22,2.31c1.89,1.55,2.83,3.81,2.83,6.8a10.09,10.09,0,0,1-4.79,8.91q-4.8,3.17-13.76,3.16-6.86,0-10.47-2.39a7.58,7.58,0,0,1-3.62-6.69,7,7,0,0,1,1.85-5,10.39,10.39,0,0,1,5.42-2.84,6.1,6.1,0,0,1-2.41-1.92,4.74,4.74,0,0,1,.06-6,12.64,12.64,0,0,1,3.14-2.45,8.79,8.79,0,0,1-4.09-3.57,10.94,10.94,0,0,1-1.51-5.8q0-5.37,3.49-8.29t10-2.93a24.83,24.83,0,0,1,3.27.25c1.26.16,2.06.28,2.41.36Zm-25.28,37.39a3.25,3.25,0,0,0,1.77,2.9,9.78,9.78,0,0,0,5,1,17.53,17.53,0,0,0,7.53-1.32q2.73-1.32,2.73-3.6a2.56,2.56,0,0,0-1.61-2.55,13.22,13.22,0,0,0-5-.7h-4.63a7,7,0,0,0-4.12,1.15A3.6,3.6,0,0,0,1100.17,1735.24Zm3.25-26.66a6.65,6.65,0,0,0,1.21,4.21,4.41,4.41,0,0,0,3.71,1.56,4.31,4.31,0,0,0,3.69-1.56,6.83,6.83,0,0,0,1.17-4.21q0-5.92-4.86-5.92T1103.42,1708.58Z"/>
          <path d="M1149.12,1697.24a14.87,14.87,0,0,1,3,.26l-.68,8.38a10,10,0,0,0-2.63-.29,9.51,9.51,0,0,0-6.67,2.19,8,8,0,0,0-2.38,6.16v16.67h-8.94v-32.76h6.77l1.32,5.51h.44a12.18,12.18,0,0,1,4.11-4.44A10.18,10.18,0,0,1,1149.12,1697.24Z"/>
          <path d="M1178.89,1730.61l-1.73-4.46h-.24a13.09,13.09,0,0,1-4.64,3.94,14.9,14.9,0,0,1-6.23,1.1,10.07,10.07,0,0,1-7.42-2.69q-2.72-2.7-2.71-7.68c0-3.48,1.21-6,3.65-7.69s6.09-2.56,11-2.74l5.68-.17v-1.44q0-5-5.1-5a23.31,23.31,0,0,0-9.23,2.37l-3-6a26.66,26.66,0,0,1,12.54-3q6.6,0,10.11,2.87t3.52,8.73v21.83Zm-2.64-15.18-3.46.12a11.11,11.11,0,0,0-5.8,1.4,4.42,4.42,0,0,0-1.9,3.93q0,3.78,4.33,3.78a6.89,6.89,0,0,0,5-1.79,6.27,6.27,0,0,0,1.86-4.74Z"/>
          <path d="M1212.31,1731.19a10.85,10.85,0,0,1-9-4.19h-.47c.32,2.74.47,4.32.47,4.75V1745h-8.93v-47.17h7.26l1.26,4.25h.41a10.35,10.35,0,0,1,9.29-4.86,10.62,10.62,0,0,1,9.08,4.48q3.28,4.48,3.28,12.45a24.48,24.48,0,0,1-1.54,9.11,12.71,12.71,0,0,1-4.38,5.89A11.19,11.19,0,0,1,1212.31,1731.19Zm-2.63-26.8a5.65,5.65,0,0,0-4.84,2q-1.52,2-1.58,6.73v1q0,5.28,1.57,7.56a5.6,5.6,0,0,0,5,2.29q6,0,6-9.91,0-4.83-1.48-7.25A5,5,0,0,0,1209.68,1704.39Z"/>
          <path d="M1262.53,1730.61h-8.94v-19.13q0-7.1-5.27-7.09-3.75,0-5.42,2.54t-1.67,8.27v15.41h-8.94V1685h8.94v9.29c0,.72-.07,2.42-.2,5.1l-.21,2.63h.47q3-4.8,9.49-4.8,5.78,0,8.76,3.1t3,8.91Z"/>
          <path d="M1267,1697.85h9.79l6.18,18.43a25.16,25.16,0,0,1,1.08,5.68h.18a24.62,24.62,0,0,1,1.26-5.68l6.06-18.43h9.58l-13.86,37a16,16,0,0,1-5.43,7.67,13.7,13.7,0,0,1-8.25,2.55,20.91,20.91,0,0,1-4.54-.5v-7.09a15,15,0,0,0,3.52.38,6.32,6.32,0,0,0,4.14-1.45,9.31,9.31,0,0,0,2.77-4.38l.53-1.61Z"/>
        </g>
        <g>
          <path d="M758.88,1794.85v4.54l-5.12,1.32a9,9,0,0,1,1.4,4.92,9.93,9.93,0,0,1-3.67,8.22q-3.69,3-10.21,3l-1.62-.09-1.31-.15a3,3,0,0,0-1.38,2.35q0,1.93,4.92,1.93h5.57q5.38,0,8.21,2.31c1.89,1.55,2.83,3.81,2.83,6.8a10.07,10.07,0,0,1-4.79,8.91Q748.93,1842,740,1842q-6.86,0-10.48-2.39a7.57,7.57,0,0,1-3.61-6.69,7,7,0,0,1,1.84-5,10.43,10.43,0,0,1,5.42-2.84,5.92,5.92,0,0,1-2.4-1.92,4.7,4.7,0,0,1,.06-6,12.39,12.39,0,0,1,3.13-2.45,8.79,8.79,0,0,1-4.09-3.57,10.91,10.91,0,0,1-1.5-5.8q0-5.37,3.48-8.29t10-2.93a24.83,24.83,0,0,1,3.27.25c1.26.16,2.07.29,2.42.36Zm-25.28,37.39a3.25,3.25,0,0,0,1.77,2.9,9.8,9.8,0,0,0,5,1,17.59,17.59,0,0,0,7.53-1.32q2.71-1.32,2.72-3.6a2.56,2.56,0,0,0-1.61-2.55,13.15,13.15,0,0,0-5-.7h-4.63a7,7,0,0,0-4.12,1.15A3.6,3.6,0,0,0,733.6,1832.24Zm3.25-26.66a6.65,6.65,0,0,0,1.22,4.21,4.39,4.39,0,0,0,3.7,1.56,4.31,4.31,0,0,0,3.69-1.56,6.77,6.77,0,0,0,1.18-4.21q0-5.92-4.87-5.92T736.85,1805.58Z"/>
          <path d="M782.55,1794.24a14.8,14.8,0,0,1,3,.26l-.67,8.38a10.47,10.47,0,0,0-2.64-.29,9.44,9.44,0,0,0-6.66,2.2,7.9,7.9,0,0,0-2.39,6.15v16.67h-8.94v-32.76H771l1.32,5.51h.44a12.37,12.37,0,0,1,4.12-4.44A10.12,10.12,0,0,1,782.55,1794.24Z"/>
          <path d="M812.32,1827.61l-1.73-4.46h-.23a13.11,13.11,0,0,1-4.65,3.94,14.85,14.85,0,0,1-6.22,1.1,10.1,10.1,0,0,1-7.43-2.69q-2.71-2.7-2.71-7.68c0-3.47,1.22-6,3.65-7.69s6.1-2.56,11-2.74l5.68-.17v-1.44q0-5-5.09-5a23.23,23.23,0,0,0-9.23,2.37l-3-6a26.66,26.66,0,0,1,12.54-3q6.59,0,10.1,2.87c2.35,1.91,3.52,4.83,3.52,8.73v21.83Zm-2.64-15.18-3.45.12a11.07,11.07,0,0,0-5.8,1.41,4.4,4.4,0,0,0-1.91,3.92q0,3.78,4.34,3.78a6.86,6.86,0,0,0,5-1.79,6.27,6.27,0,0,0,1.86-4.74Z"/>
          <path d="M845.75,1828.19a10.83,10.83,0,0,1-9-4.19h-.47c.31,2.74.47,4.32.47,4.75V1842h-8.94v-47.17H835l1.26,4.25h.41a10.33,10.33,0,0,1,9.28-4.86,10.61,10.61,0,0,1,9.08,4.48q3.29,4.48,3.29,12.45a24.64,24.64,0,0,1-1.54,9.11,12.85,12.85,0,0,1-4.38,5.89A11.22,11.22,0,0,1,845.75,1828.19Zm-2.64-26.8a5.64,5.64,0,0,0-4.83,2q-1.53,2-1.58,6.73v1q0,5.28,1.56,7.56a5.59,5.59,0,0,0,5,2.29q6,0,6-9.91c0-3.22-.49-5.63-1.48-7.25A5,5,0,0,0,843.11,1801.39Z"/>
          <path d="M896,1827.61H887v-19.13q0-7.1-5.28-7.09c-2.5,0-4.3.85-5.42,2.55s-1.67,4.45-1.67,8.26v15.41h-8.93V1782h8.93v9.29c0,.72-.06,2.42-.2,5.1l-.21,2.63h.47q3-4.8,9.49-4.8,5.77,0,8.76,3.1c2,2.07,3,5,3,8.91Z"/>
          <path d="M904.78,1786.39q0-4.37,4.86-4.37t4.87,4.37a4.25,4.25,0,0,1-1.22,3.23,5.06,5.06,0,0,1-3.65,1.16Q904.78,1790.78,904.78,1786.39Zm9.32,41.22h-8.94v-32.76h8.94Z"/>
          <path d="M936.77,1828.19q-15.28,0-15.29-16.78,0-8.36,4.16-12.76t11.92-4.41a22.81,22.81,0,0,1,10.2,2.22l-2.64,6.92c-1.4-.57-2.71-1-3.92-1.39a12.69,12.69,0,0,0-3.64-.54q-7,0-7,9.9,0,9.6,7,9.61a15.87,15.87,0,0,0,4.78-.69,17.46,17.46,0,0,0,4.39-2.15v7.64a14.47,14.47,0,0,1-4.38,1.91A24.71,24.71,0,0,1,936.77,1828.19Z"/>
          <path d="M980.28,1828.19a10.64,10.64,0,0,1-9.07-4.48q-3.3-4.49-3.29-12.42t3.35-12.55a10.9,10.9,0,0,1,9.24-4.5A10.7,10.7,0,0,1,990,1799h.29a36.41,36.41,0,0,1-.67-6.53V1782h9v45.59h-6.85l-1.73-4.25h-.38Q986.52,1828.19,980.28,1828.19Zm3.13-7.12c2.29,0,4-.66,5-2s1.64-3.58,1.74-6.77v-1q0-5.28-1.62-7.56c-1.09-1.52-2.85-2.29-5.29-2.29a5.27,5.27,0,0,0-4.65,2.54c-1.1,1.69-1.65,4.14-1.65,7.37s.56,5.64,1.67,7.25A5.44,5.44,0,0,0,983.41,1821.07Z"/>
          <path d="M1022.7,1828.19q-7.91,0-12.36-4.36t-4.46-12.37c0-5.48,1.38-9.73,4.12-12.72s6.54-4.5,11.38-4.5q6.95,0,10.81,4t3.87,10.93v4.34h-21.12a8.61,8.61,0,0,0,2.25,5.94,7.93,7.93,0,0,0,5.92,2.14,24.65,24.65,0,0,0,5.6-.61,28,28,0,0,0,5.5-2v6.92a21,21,0,0,1-5,1.74A31.73,31.73,0,0,1,1022.7,1828.19Zm-1.26-27.59a5.66,5.66,0,0,0-4.45,1.8,8.31,8.31,0,0,0-1.85,5.11h12.54a7.41,7.41,0,0,0-1.73-5.11A5.84,5.84,0,0,0,1021.44,1800.6Z"/>
          <path d="M1066.18,1817.88a9,9,0,0,1-3.5,7.68q-3.51,2.63-10.48,2.63a33.1,33.1,0,0,1-6.09-.48,23.34,23.34,0,0,1-4.72-1.42v-7.38a31.45,31.45,0,0,0,5.61,2,22.58,22.58,0,0,0,5.5.79q4.86,0,4.86-2.81a2.35,2.35,0,0,0-.65-1.72,9.27,9.27,0,0,0-2.22-1.49c-1.06-.56-2.46-1.21-4.22-2a26.13,26.13,0,0,1-5.55-2.93,8.32,8.32,0,0,1-2.58-3.09,10.14,10.14,0,0,1-.81-4.29,7.77,7.77,0,0,1,3.39-6.75c2.25-1.6,5.45-2.39,9.59-2.39a27.23,27.23,0,0,1,11.52,2.58l-2.7,6.44q-2.46-1-4.6-1.73a14.38,14.38,0,0,0-4.36-.67q-4,0-4,2.14a2.53,2.53,0,0,0,1.28,2.08,35.43,35.43,0,0,0,5.58,2.61,25.74,25.74,0,0,1,5.62,2.9,8.57,8.57,0,0,1,2.64,3.1A9.63,9.63,0,0,1,1066.18,1817.88Z"/>
          <path d="M1072.77,1786.39q0-4.37,4.86-4.37t4.87,4.37a4.25,4.25,0,0,1-1.22,3.23,5.08,5.08,0,0,1-3.65,1.16Q1072.77,1790.78,1072.77,1786.39Zm9.32,41.22h-8.94v-32.76h8.94Z"/>
          <path d="M1120,1794.85v4.54l-5.13,1.32a8.94,8.94,0,0,1,1.41,4.92,9.94,9.94,0,0,1-3.68,8.22q-3.67,3-10.21,3l-1.61-.09-1.32-.15a3,3,0,0,0-1.38,2.35q0,1.93,4.92,1.93h5.57q5.39,0,8.22,2.31a8.3,8.3,0,0,1,2.83,6.8,10.09,10.09,0,0,1-4.79,8.91Q1110,1842,1101,1842q-6.86,0-10.47-2.39a7.58,7.58,0,0,1-3.62-6.69,7,7,0,0,1,1.84-5,10.47,10.47,0,0,1,5.42-2.84,6.06,6.06,0,0,1-2.4-1.92,4.74,4.74,0,0,1,.06-6,12.46,12.46,0,0,1,3.14-2.45,8.75,8.75,0,0,1-4.09-3.57,10.83,10.83,0,0,1-1.51-5.8q0-5.37,3.49-8.29t10-2.93a24.7,24.7,0,0,1,3.26.25c1.26.16,2.07.29,2.42.36Zm-25.29,37.39a3.24,3.24,0,0,0,1.78,2.9,9.76,9.76,0,0,0,5,1,17.59,17.59,0,0,0,7.53-1.32q2.73-1.32,2.73-3.6a2.55,2.55,0,0,0-1.62-2.55,13.15,13.15,0,0,0-5-.7h-4.62a7,7,0,0,0-4.12,1.15A3.61,3.61,0,0,0,1094.68,1832.24Zm3.26-26.66a6.65,6.65,0,0,0,1.21,4.21,4.41,4.41,0,0,0,3.71,1.56,4.31,4.31,0,0,0,3.69-1.56,6.83,6.83,0,0,0,1.17-4.21q0-5.92-4.86-5.92T1097.94,1805.58Z"/>
          <path d="M1155.59,1827.61h-8.93v-19.13a9.18,9.18,0,0,0-1.26-5.32,4.59,4.59,0,0,0-4-1.77c-2.5,0-4.3.83-5.42,2.5s-1.67,4.44-1.67,8.31v15.41h-8.93v-32.76h6.82l1.2,4.19h.5a9.48,9.48,0,0,1,4.12-3.59,14,14,0,0,1,6-1.21q5.71,0,8.67,3.09c2,2.06,3,5,3,8.92Z"/>
        </g>
        <g>
          <path d="M886.36,1926.71a11.06,11.06,0,0,1-4.17,9.14q-4.17,3.35-11.62,3.34a27.42,27.42,0,0,1-12.13-2.57v-8.44a49,49,0,0,0,7.34,2.72,21.63,21.63,0,0,0,5.5.79,7.8,7.8,0,0,0,4.58-1.14,3.91,3.91,0,0,0,1.6-3.4,3.74,3.74,0,0,0-.71-2.24,7.82,7.82,0,0,0-2.06-1.89,55.12,55.12,0,0,0-5.55-2.9,26.4,26.4,0,0,1-5.89-3.54,13.44,13.44,0,0,1-3.14-4,11.28,11.28,0,0,1-1.17-5.27,11.1,11.1,0,0,1,3.85-8.94q3.86-3.26,10.65-3.25a25.12,25.12,0,0,1,6.38.79,44,44,0,0,1,6.34,2.23l-2.93,7.06a42.71,42.71,0,0,0-5.67-2,17.78,17.78,0,0,0-4.41-.56,5.81,5.81,0,0,0-3.95,1.2,4,4,0,0,0-1.38,3.13,3.81,3.81,0,0,0,.56,2.1,6.22,6.22,0,0,0,1.77,1.73,55.65,55.65,0,0,0,5.75,3q6,2.86,8.24,5.76A11.24,11.24,0,0,1,886.36,1926.71Z"/>
          <path d="M923.19,1922.17q0,8-4.22,12.51t-11.75,4.51a16.51,16.51,0,0,1-8.32-2.06,13.74,13.74,0,0,1-5.53-5.93,20,20,0,0,1-1.94-9q0-8,4.19-12.48t11.78-4.45a16.5,16.5,0,0,1,8.32,2,13.72,13.72,0,0,1,5.54,5.89A19.85,19.85,0,0,1,923.19,1922.17Zm-22.65,0c0,3.24.54,5.7,1.6,7.36a5.71,5.71,0,0,0,5.2,2.49,5.62,5.62,0,0,0,5.14-2.48q1.57-2.47,1.57-7.37t-1.58-7.29q-1.59-2.43-5.19-2.43a5.72,5.72,0,0,0-5.16,2.41Q900.55,1917.28,900.54,1922.17Z"/>
          <path d="M949.41,1938.61,939.1,1905h-.27q.57,10.26.56,13.69v19.92h-8.11v-42.83h12.36l10.14,32.75H954l10.75-32.75h12.37v42.83H968.6v-20.28c0-.95,0-2.06,0-3.31s.16-4.57.4-10h-.26l-11,33.55Z"/>
          <path d="M1002,1939.19c-5.27,0-9.4-1.45-12.36-4.36s-4.46-7-4.46-12.37,1.37-9.73,4.12-12.73,6.54-4.49,11.38-4.49q6.95,0,10.81,4t3.87,10.93v4.34H994.21a8.51,8.51,0,0,0,2.25,5.94,7.93,7.93,0,0,0,5.92,2.14,24.5,24.5,0,0,0,5.59-.61,27.81,27.81,0,0,0,5.51-2v6.92a20.92,20.92,0,0,1-5,1.74A31.56,31.56,0,0,1,1002,1939.19Zm-1.26-27.59a5.65,5.65,0,0,0-4.45,1.8,8.31,8.31,0,0,0-1.85,5.11H1007a7.46,7.46,0,0,0-1.73-5.11A5.85,5.85,0,0,0,1000.71,1911.6Z"/>
          <path d="M1067.51,1938.61h-8.94v-19.13a9.63,9.63,0,0,0-1.19-5.32,4.16,4.16,0,0,0-3.73-1.77,5.4,5.4,0,0,0-5,2.52c-1,1.68-1.55,4.44-1.55,8.29v15.41h-8.94v-32.76H1045l1.2,4.19h.5a9,9,0,0,1,3.8-3.53,12.38,12.38,0,0,1,5.72-1.27q7.35,0,10,4.8h.79a8.86,8.86,0,0,1,3.88-3.54,13,13,0,0,1,5.79-1.26q5.56,0,8.42,2.85t2.86,9.16v21.36h-9v-19.13a9.55,9.55,0,0,0-1.19-5.32,4.16,4.16,0,0,0-3.73-1.77,5.58,5.58,0,0,0-4.91,2.34q-1.62,2.34-1.62,7.44Z"/>
          <path d="M1117.9,1938.61l-1.73-4.46h-.24a13.09,13.09,0,0,1-4.64,3.94,14.9,14.9,0,0,1-6.23,1.1,10.07,10.07,0,0,1-7.42-2.69q-2.72-2.7-2.71-7.68c0-3.47,1.21-6,3.65-7.69s6.09-2.56,11-2.74l5.68-.17v-1.44q0-5-5.1-5a23.27,23.27,0,0,0-9.23,2.37l-3-6a26.66,26.66,0,0,1,12.54-3q6.6,0,10.11,2.87c2.34,1.91,3.52,4.83,3.52,8.73v21.83Zm-2.64-15.18-3.46.12a11.1,11.1,0,0,0-5.8,1.41,4.39,4.39,0,0,0-1.9,3.92q0,3.78,4.33,3.78a6.89,6.89,0,0,0,5-1.79,6.27,6.27,0,0,0,1.86-4.74Z"/>
          <path d="M1163.57,1938.61h-8.94v-19.13a9.26,9.26,0,0,0-1.25-5.32,4.59,4.59,0,0,0-4-1.77q-3.75,0-5.42,2.5t-1.67,8.31v15.41h-8.93v-32.76h6.82l1.2,4.19h.5a9.48,9.48,0,0,1,4.12-3.59,14,14,0,0,1,6-1.21q5.71,0,8.67,3.09t3,8.92Z"/>
          <path d="M1193.57,1938.61l-1.73-4.46h-.23a13.11,13.11,0,0,1-4.65,3.94,14.85,14.85,0,0,1-6.22,1.1,10.1,10.1,0,0,1-7.43-2.69q-2.71-2.7-2.71-7.68c0-3.47,1.22-6,3.65-7.69s6.1-2.56,11-2.74l5.68-.17v-1.44q0-5-5.09-5a23.23,23.23,0,0,0-9.23,2.37l-3-6a26.66,26.66,0,0,1,12.54-3q6.58,0,10.1,2.87c2.35,1.91,3.52,4.83,3.52,8.73v21.83Zm-2.64-15.18-3.45.12a11.07,11.07,0,0,0-5.8,1.41,4.4,4.4,0,0,0-1.91,3.92q0,3.78,4.34,3.78a6.86,6.86,0,0,0,5-1.79,6.27,6.27,0,0,0,1.86-4.74Z"/>
          <path d="M1237.52,1905.85v4.54l-5.13,1.32a8.93,8.93,0,0,1,1.4,4.92,9.93,9.93,0,0,1-3.67,8.22q-3.67,2.94-10.21,3l-1.61-.09-1.32-.15a3,3,0,0,0-1.38,2.35q0,1.93,4.92,1.93h5.57q5.39,0,8.22,2.31a8.3,8.3,0,0,1,2.82,6.8,10.07,10.07,0,0,1-4.79,8.91q-4.78,3.17-13.75,3.16-6.85,0-10.47-2.39a7.56,7.56,0,0,1-3.62-6.69,7,7,0,0,1,1.84-5,10.43,10.43,0,0,1,5.42-2.84,6,6,0,0,1-2.4-1.92,4.74,4.74,0,0,1,.06-6,12.57,12.57,0,0,1,3.13-2.45,8.77,8.77,0,0,1-4.08-3.57,10.83,10.83,0,0,1-1.51-5.8q0-5.37,3.49-8.29t10-2.93a24.82,24.82,0,0,1,3.26.25c1.26.16,2.07.29,2.42.36Zm-25.29,37.39a3.25,3.25,0,0,0,1.77,2.9,9.82,9.82,0,0,0,5,1,17.59,17.59,0,0,0,7.53-1.32c1.82-.88,2.72-2.08,2.72-3.6a2.55,2.55,0,0,0-1.61-2.55,13.15,13.15,0,0,0-5-.7H1218a7,7,0,0,0-4.11,1.15A3.58,3.58,0,0,0,1212.23,1943.24Zm3.25-26.66a6.65,6.65,0,0,0,1.22,4.21,4.41,4.41,0,0,0,3.71,1.56,4.31,4.31,0,0,0,3.69-1.56,6.83,6.83,0,0,0,1.17-4.21q0-5.92-4.86-5.92T1215.48,1916.58Z"/>
          <path d="M1257.73,1939.19q-7.9,0-12.36-4.36t-4.46-12.37q0-8.22,4.12-12.73t11.38-4.49q6.94,0,10.81,4t3.87,10.93v4.34H1250a8.56,8.56,0,0,0,2.25,5.94,7.93,7.93,0,0,0,5.92,2.14,24.65,24.65,0,0,0,5.6-.61,28,28,0,0,0,5.5-2v6.92a20.92,20.92,0,0,1-5,1.74A31.56,31.56,0,0,1,1257.73,1939.19Zm-1.26-27.59a5.66,5.66,0,0,0-4.45,1.8,8.31,8.31,0,0,0-1.85,5.11h12.54a7.41,7.41,0,0,0-1.73-5.11A5.84,5.84,0,0,0,1256.47,1911.6Z"/>
          <path d="M1307.68,1938.61h-8.93v-19.13a9.63,9.63,0,0,0-1.19-5.32,4.18,4.18,0,0,0-3.74-1.77,5.42,5.42,0,0,0-5,2.52q-1.54,2.52-1.55,8.29v15.41h-8.93v-32.76h6.82l1.2,4.19h.5a9.12,9.12,0,0,1,3.81-3.53,12.34,12.34,0,0,1,5.71-1.27q7.35,0,10,4.8h.79a8.88,8.88,0,0,1,3.89-3.54,12.92,12.92,0,0,1,5.78-1.26q5.57,0,8.43,2.85t2.85,9.16v21.36h-9v-19.13a9.63,9.63,0,0,0-1.19-5.32,4.18,4.18,0,0,0-3.74-1.77,5.57,5.57,0,0,0-4.9,2.34q-1.63,2.34-1.63,7.44Z"/>
          <path d="M1352.1,1939.19q-7.92,0-12.37-4.36t-4.45-12.37q0-8.22,4.12-12.73t11.38-4.49q6.95,0,10.81,4t3.87,10.93v4.34h-21.13a8.57,8.57,0,0,0,2.26,5.94,7.92,7.92,0,0,0,5.92,2.14,24.56,24.56,0,0,0,5.59-.61,27.81,27.81,0,0,0,5.51-2v6.92a20.92,20.92,0,0,1-5,1.74A31.69,31.69,0,0,1,1352.1,1939.19Zm-1.26-27.59a5.69,5.69,0,0,0-4.46,1.8,8.31,8.31,0,0,0-1.84,5.11h12.54a7.46,7.46,0,0,0-1.73-5.11A5.87,5.87,0,0,0,1350.84,1911.6Z"/>
          <path d="M1403,1938.61H1394v-19.13a9.18,9.18,0,0,0-1.26-5.32,4.59,4.59,0,0,0-4-1.77q-3.75,0-5.42,2.5c-1.12,1.67-1.67,4.44-1.67,8.31v15.41h-8.94v-32.76h6.83l1.2,4.19h.5a9.39,9.39,0,0,1,4.11-3.59,14,14,0,0,1,6-1.21q5.72,0,8.68,3.09t3,8.92Z"/>
          <path d="M1426,1932.07a19.46,19.46,0,0,0,5.63-1v6.65a20,20,0,0,1-8.2,1.49q-5.37,0-7.81-2.71t-2.45-8.13v-15.79h-4.28v-3.78l4.93-3,2.57-6.91h5.72v7h9.17v6.71h-9.17v15.79a3.49,3.49,0,0,0,1.07,2.82A4.22,4.22,0,0,0,1426,1932.07Z"/>
        </g>
      </g>
    </g>
  </g>
</svg>
