<svg xmlns="http://www.w3.org/2000/svg" viewBox="0 0 2242 1281">
  <defs>
    <style>
      .skills_cls-1 {
        fill: #5a1a2b;
        opacity: 0.8;
      }

      .skills_cls-2 {
        fill: none;
        stroke: #000;
        stroke-miterlimit: 10;
        stroke-width: 6px;
      }
    </style>
  </defs>
  <title>skills</title>
  <g id="skills_layer">
    <g id="indesign">
      <path class="skills_cls-1" d="M1309.5,808.52a41.35,41.35,0,0,1,.11,12.06c-1.87,13.33-10.47,19.85-21.23,37.2-5.42,8.75-9.68,15.91-12.28,20.34a64.86,64.86,0,0,0-4.55,12.11c-9.09,37.43,21.25,54.88,16.87,92.78-3.28,28.37-25,59.5-52.59,69-39.63,13.59-58.84-28.74-133-40.69-60.62-9.76-75.53,14.09-116.58-4.46-33.32-15.06-70.07-52.09-69-90.79.93-32.46,29.68-38.17,50.28-99.45a255.31,255.31,0,0,0,7.89-29.06q71.46,7.71,148,13C1187.9,804.9,1250,807.44,1309.5,808.52Z"/>
      <path class="skills_cls-2" d="M1300.33,844.84c-11.38,22.66-23.45,23.46-28.78,45.39-9.09,37.43,21.25,54.88,16.87,92.78-3.28,28.37-25,59.5-52.59,69-39.62,13.59-58.84-28.74-133-40.69-60.62-9.76-75.53,14.09-116.58-4.46-33.78-15.26-69.18-52-69-90.79.21-38.26,34.8-43.19,50.11-99.72a121.22,121.22,0,0,0,4.43-28c1.19-36.16-.15-45.55,2.51-59.85,6.3-33.89,46.51-63.39,86.62-69.5,4.75-.72,46.67-6.49,80,19,25.25,19.31,18.92,36.18,39,48,37.88,22.31,79.77-27.35,110.9-7.42C1324.78,740.27,1314.55,816.52,1300.33,844.84Z"/>
      <g>
        <path d="M982.57,873.2h1.74v-4.62a29.8,29.8,0,0,0-.63-7.65,2.43,2.43,0,0,0-2.43-1.95,3.48,3.48,0,0,0-2,.57,1.77,1.77,0,0,0-.87,1.56,6,6,0,0,0,.36,2h1.5a8.52,8.52,0,0,1,.48,3,3.92,3.92,0,0,1-1.5,3.06,5.59,5.59,0,0,1-3.78,1.29q-5.16,0-5.16-5,0-7.38,12.54-7.38,7.14,0,9.87,2.43t2.73,8.91v12.18q0,3.12,1.74,3.12,2,0,2.4-6.18l.9.06q-.24,5.28-2,7.26t-5.7,2q-7.2,0-8.28-4.44a6.46,6.46,0,0,1-2.34,3.36,8,8,0,0,1-4.56,1.08q-8.88,0-8.88-7.26,0-4.26,3.39-5.85T982.57,873.2Zm-2.07,11.4a1.24,1.24,0,0,0,1.26.9q.93,0,1.74-1.53a9.14,9.14,0,0,0,.81-4.23v-5.58h-.42q-3.72,0-3.72,5.46v1A14.84,14.84,0,0,0,980.5,884.6Z"/>
        <path d="M1021.51,887.3l-.66-4.2q-2,4.8-8.28,4.8a9.51,9.51,0,0,1-8-3.72q-2.85-3.72-2.85-11.1,0-14.94,11.88-14.94,5.28,0,7,2.94v-17.7h-3.66V842.3h15v43.92h2.94v1.08Zm-7.56-4a2.5,2.5,0,0,0,2.43,2.07,3.86,3.86,0,0,0,3.06-1.56,7.11,7.11,0,0,0,1.29-4.62V866.06a8.76,8.76,0,0,0-1-4.38,3.26,3.26,0,0,0-3-1.8q-2,0-2.7,2.64a40.18,40.18,0,0,0-.72,9.24v3.12Q1013.29,881.18,1014,883.25Z"/>
        <path d="M1040.71,884.06q-3.84-3.84-3.84-11t4.11-11q4.11-3.87,11.55-3.87t11.1,3.57q3.66,3.57,3.66,10.89,0,15.3-15.24,15.3Q1044.55,887.9,1040.71,884.06Zm15.06-8.58v-5.1a40.8,40.8,0,0,0-.63-8.49q-.63-2.67-2.91-2.67a3,3,0,0,0-2.13.75,4.6,4.6,0,0,0-1.17,2.49,45.65,45.65,0,0,0-.54,8.22v4.68q0,6.54.39,7.86a13.43,13.43,0,0,0,.81,2.16,2.56,2.56,0,0,0,2.58,1.44q2.34,0,3.06-2.7Q1055.77,882.2,1055.77,875.48Z"/>
        <path d="M1083.43,842.3v21a7.94,7.94,0,0,1,7.8-5.16q11.22,0,11.22,14.94,0,7.62-3.09,11.22t-9.27,3.6a9.61,9.61,0,0,1-4.77-1,5,5,0,0,1-2.25-3.18l-.42,3.54H1069v-1.08h3.3V843.38H1069V842.3Zm6.84,20.55q-.6-2.13-2.34-2.13t-3.12,2.16a11,11,0,0,0-1.38,5.94V880a8.56,8.56,0,0,0,1,4.38,3.3,3.3,0,0,0,3,1.8q1.95,0,2.67-2.64a40.18,40.18,0,0,0,.72-9.24v-3.12A36.88,36.88,0,0,0,1090.27,862.85Z"/>
        <path d="M1108.42,883.91q-3.87-4-3.87-11.1t4.35-10.89a16.27,16.27,0,0,1,11.07-3.78q13.62,0,13.08,13.68h-16.92v2.34q0,5.88,1.5,8.88a5.35,5.35,0,0,0,5.22,3q7,0,9.12-7.44l1.08.18a12.4,12.4,0,0,1-4.11,6.72q-3,2.4-8.91,2.4Q1112.29,887.9,1108.42,883.91Zm7.77-13.29h6.18v-2.94a25.33,25.33,0,0,0-.57-6.63,2.25,2.25,0,0,0-2.28-1.77,2.67,2.67,0,0,0-2.52,1.89,18.27,18.27,0,0,0-.81,6.51Z"/>
        <path d="M967.93,930.74h14.7v27.48H986v1.08H968.17v-1.08h3.3v-26.4h-3.54ZM977,926.6q-3.18,0-4.53-1.62a6.07,6.07,0,0,1-1.35-4,5.54,5.54,0,0,1,1.47-4,5.87,5.87,0,0,1,4.47-1.56,6.59,6.59,0,0,1,4.56,1.41,5.14,5.14,0,0,1,1.56,4,5.76,5.76,0,0,1-1.5,4.17A6.23,6.23,0,0,1,977,926.6Z"/>
        <path d="M987.31,930.74h14.46v5.52a10,10,0,0,1,2.94-4.44q2-1.68,6-1.68,9.3,0,9.3,10v18.06h3.36v1.08h-17v-1.08h2.46v-19.5a13.84,13.84,0,0,0-.48-4.65,1.75,1.75,0,0,0-1.74-1.05q-1.92,0-3.39,2.52a12,12,0,0,0-1.47,6.12v16.56h2.58v1.08h-17v-1.08h3.3v-26.4h-3.3Z"/>
        <path d="M1044.55,959.3l-.66-4.2q-2,4.8-8.28,4.8a9.51,9.51,0,0,1-8-3.72q-2.85-3.72-2.85-11.1,0-14.94,11.88-14.94,5.28,0,7,2.94v-17.7h-3.66V914.3h15v43.92h2.94v1.08Zm-7.56-4a2.5,2.5,0,0,0,2.43,2.07,3.86,3.86,0,0,0,3.06-1.56,7.11,7.11,0,0,0,1.29-4.62V938.06a8.76,8.76,0,0,0-1-4.38,3.26,3.26,0,0,0-3-1.8q-2,0-2.7,2.64a40.18,40.18,0,0,0-.72,9.24v3.12Q1036.33,953.18,1037,955.25Z"/>
        <path d="M1063.6,955.91q-3.87-4-3.87-11.1t4.35-10.89a16.27,16.27,0,0,1,11.07-3.78q13.62,0,13.08,13.68h-16.92v2.34q0,5.88,1.5,8.88a5.35,5.35,0,0,0,5.22,3q7,0,9.12-7.44l1.08.18a12.4,12.4,0,0,1-4.11,6.72q-3,2.4-8.91,2.4Q1067.47,959.9,1063.6,955.91Zm7.77-13.29h6.18v-2.94a25.33,25.33,0,0,0-.57-6.63,2.25,2.25,0,0,0-2.28-1.77,2.67,2.67,0,0,0-2.52,1.89,18.27,18.27,0,0,0-.81,6.51Z"/>
        <path d="M1091.17,959.9V949.16h.72q1.56,5.22,4.2,7.32a10.27,10.27,0,0,0,6.6,2.1q6.12,0,6.12-3.9a2.72,2.72,0,0,0-1.5-2.52,20.21,20.21,0,0,0-6-2,23.48,23.48,0,0,1-6.84-2.88q-3.3-2.16-3.3-6.84a9.92,9.92,0,0,1,2.88-7.47,10.57,10.57,0,0,1,7.68-2.79,14.93,14.93,0,0,1,6.06,1.38,5,5,0,0,0,1.74.48,1.39,1.39,0,0,0,1-.42,6.92,6.92,0,0,0,1-1.56h.66v9.18h-.72q-3.06-7.8-9.48-7.8a7.23,7.23,0,0,0-4.2,1,3,3,0,0,0-1.38,2.49,2.16,2.16,0,0,0,.42,1.41q.42.51.66.75a3.08,3.08,0,0,0,.78.51q.54.27.9.42t1.11.39a8.88,8.88,0,0,0,1.11.3,45.74,45.74,0,0,1,5.88,1.77,20.06,20.06,0,0,1,3.42,1.83q3.3,2.28,3.3,7.35t-3,7.68q-3,2.61-8.22,2.61a15.91,15.91,0,0,1-7.2-1.74,2.31,2.31,0,0,0-1.14-.48q-1.32,0-2.58,2.22Z"/>
        <path d="M1115.59,930.74h14.7v27.48h3.36v1.08h-17.82v-1.08h3.3v-26.4h-3.54Zm9.06-4.14q-3.18,0-4.53-1.62a6.07,6.07,0,0,1-1.35-4,5.54,5.54,0,0,1,1.47-4,5.87,5.87,0,0,1,4.47-1.56,6.59,6.59,0,0,1,4.56,1.41,5.14,5.14,0,0,1,1.56,4,5.76,5.76,0,0,1-1.5,4.17A6.23,6.23,0,0,1,1124.65,926.6Z"/>
        <path d="M1158.91,927.62l1.68-1q.36-1.86-1.44-1.86-2.58,0-2.58,4a18.12,18.12,0,0,0,.42,3.6q4.56,3.06,4.56,7.83a9,9,0,0,1-3.3,7.41q-3.3,2.64-8.94,2.64a26,26,0,0,1-4.86-.48q-2.64,1.68-2.64,2.52t3.84.84h6.12q13.62,0,13.62,9.78a9.92,9.92,0,0,1-4.11,8.37q-4.11,3.09-12.81,3.09-14.82,0-14.82-6.42,0-3.48,4.62-4.8l3.6,1.62a12.42,12.42,0,0,0-.48,3.3q0,5.16,7.68,5.16,4.68,0,7.2-1.74a5.12,5.12,0,0,0,2.52-4.32q0-2.58-1.53-3.45t-6.09-.87h-5.82q-4.86,0-7-1.62a4.88,4.88,0,0,1-2.1-4,5.55,5.55,0,0,1,1.5-4,27.31,27.31,0,0,1,5.34-3.93q-7-2-7-9.12a9.07,9.07,0,0,1,3.24-7.26q3.24-2.76,9.72-2.76a13.77,13.77,0,0,1,6.66,1.5,13.67,13.67,0,0,1-.36-2.94q0-3.36,1.8-4.86a6.12,6.12,0,0,1,4-1.5,5.26,5.26,0,0,1,3.57,1.17,4,4,0,0,1,1.35,3.21,3.92,3.92,0,0,1-1.08,3,3.73,3.73,0,0,1-2.61,1,3.85,3.85,0,0,1-2.52-.81A3,3,0,0,1,1158.91,927.62Zm-12.72,11.22v3.24a14.4,14.4,0,0,0,.69,5.46A2.23,2.23,0,0,0,1149,949a2.12,2.12,0,0,0,2-1.41q.63-1.41.63-5.79v-2.94q0-4.68-.6-6.15a2.07,2.07,0,0,0-2-1.47,2.29,2.29,0,0,0-2.13,1.53Q1146.19,934.28,1146.19,938.84Z"/>
        <path d="M1166.29,930.74h14.46v5.52a10,10,0,0,1,2.94-4.44q2-1.68,6-1.68,9.3,0,9.3,10v18.06h3.36v1.08h-17v-1.08h2.46v-19.5a13.84,13.84,0,0,0-.48-4.65,1.75,1.75,0,0,0-1.74-1.05q-1.92,0-3.39,2.52a12,12,0,0,0-1.47,6.12v16.56h2.58v1.08h-17v-1.08h3.3v-26.4h-3.3Z"/>
      </g>
    </g>
    <g id="xd">
      <path class="skills_cls-1" d="M1737.5,744.34c19.57,43.13,13.61,65.8,8.72,76.24-3.13,6.67-11.88,22.12-21.23,37.2-5.43,8.75-9.68,15.91-12.28,20.34a64.86,64.86,0,0,0-4.55,12.11c-9.09,37.43,21.25,54.88,16.86,92.78-3.28,28.37-25,59.5-52.58,69-39.63,13.59-58.84-28.74-133-40.69-60.63-9.76-75.54,14.09-116.59-4.46-33.32-15.06-70.07-52.09-69-90.79,1.1-38.46,35.28-45.5,50.29-99.45,8.24-29.65,5.67-56.42,2.28-74.24q72.74-3,151-3C1620.07,739.46,1680.14,741.26,1737.5,744.34Z"/>
      <path class="skills_cls-2" d="M1736.93,844.84c-11.38,22.66-23.45,23.46-28.77,45.39-9.09,37.43,21.25,54.88,16.86,92.78-3.28,28.37-25,59.5-52.58,69-39.63,13.59-58.84-28.74-133-40.69-60.63-9.76-75.54,14.09-116.59-4.46-33.78-15.26-69.17-52-69-90.79.21-38.26,34.81-43.19,50.11-99.72a121.31,121.31,0,0,0,4.44-28c1.13-34.45.72-47.42,2.51-59.85,5-34.82,51.24-71,94-73.5,49.7-3,58.13,41.58,129,55,52.66,10,70.77-10.31,93.5,8.58C1761.34,746.69,1750.85,817.12,1736.93,844.84Z"/>
      <g>
        <path d="M1419.18,873.2h1.74v-4.62a29.8,29.8,0,0,0-.63-7.65,2.43,2.43,0,0,0-2.43-1.95,3.48,3.48,0,0,0-1.95.57,1.77,1.77,0,0,0-.87,1.56,6,6,0,0,0,.36,2h1.5a8.52,8.52,0,0,1,.48,3,3.92,3.92,0,0,1-1.5,3.06,5.59,5.59,0,0,1-3.78,1.29q-5.16,0-5.16-5,0-7.38,12.54-7.38,7.14,0,9.87,2.43t2.73,8.91v12.18q0,3.12,1.74,3.12,2,0,2.4-6.18l.9.06q-.24,5.28-2,7.26t-5.7,2q-7.2,0-8.28-4.44a6.46,6.46,0,0,1-2.34,3.36,8,8,0,0,1-4.56,1.08q-8.88,0-8.88-7.26,0-4.26,3.39-5.85T1419.18,873.2Zm-2.07,11.4a1.24,1.24,0,0,0,1.26.9q.93,0,1.74-1.53a9.14,9.14,0,0,0,.81-4.23v-5.58h-.42q-3.72,0-3.72,5.46v1A14.84,14.84,0,0,0,1417.11,884.6Z"/>
        <path d="M1458.12,887.3l-.66-4.2q-2,4.8-8.28,4.8a9.51,9.51,0,0,1-8-3.72q-2.85-3.72-2.85-11.1,0-14.94,11.88-14.94,5.28,0,7,2.94v-17.7h-3.66V842.3h15v43.92h2.94v1.08Zm-7.56-4a2.5,2.5,0,0,0,2.43,2.07,3.86,3.86,0,0,0,3.06-1.56,7.11,7.11,0,0,0,1.29-4.62V866.06a8.76,8.76,0,0,0-1-4.38,3.26,3.26,0,0,0-3-1.8q-2,0-2.7,2.64a40.18,40.18,0,0,0-.72,9.24v3.12Q1449.9,881.18,1450.56,883.25Z"/>
        <path d="M1477.32,884.06q-3.84-3.84-3.84-11t4.11-11q4.11-3.87,11.55-3.87t11.1,3.57q3.66,3.57,3.66,10.89,0,15.3-15.24,15.3Q1481.16,887.9,1477.32,884.06Zm15.06-8.58v-5.1a40.8,40.8,0,0,0-.63-8.49q-.63-2.67-2.91-2.67a3,3,0,0,0-2.13.75,4.6,4.6,0,0,0-1.17,2.49,45.65,45.65,0,0,0-.54,8.22v4.68q0,6.54.39,7.86a13.43,13.43,0,0,0,.81,2.16,2.56,2.56,0,0,0,2.58,1.44q2.34,0,3.06-2.7Q1492.38,882.2,1492.38,875.48Z"/>
        <path d="M1520,842.3v21a7.94,7.94,0,0,1,7.8-5.16q11.22,0,11.22,14.94,0,7.62-3.09,11.22t-9.27,3.6a9.61,9.61,0,0,1-4.77-1,5,5,0,0,1-2.25-3.18l-.42,3.54h-13.68v-1.08h3.3V843.38h-3.3V842.3Zm6.84,20.55q-.6-2.13-2.34-2.13t-3.12,2.16a11,11,0,0,0-1.38,5.94V880a8.56,8.56,0,0,0,1,4.38,3.3,3.3,0,0,0,3,1.8q2,0,2.67-2.64a40.18,40.18,0,0,0,.72-9.24v-3.12A36.88,36.88,0,0,0,1526.88,862.85Z"/>
        <path d="M1545,883.91q-3.87-4-3.87-11.1t4.35-10.89a16.27,16.27,0,0,1,11.07-3.78q13.62,0,13.08,13.68h-16.92v2.34q0,5.88,1.5,8.88a5.35,5.35,0,0,0,5.22,3q7,0,9.12-7.44l1.08.18a12.4,12.4,0,0,1-4.11,6.72q-3,2.4-8.91,2.4Q1548.9,887.9,1545,883.91Zm7.77-13.29H1559v-2.94a25.33,25.33,0,0,0-.57-6.63,2.25,2.25,0,0,0-2.28-1.77,2.67,2.67,0,0,0-2.52,1.89,18.27,18.27,0,0,0-.81,6.51Z"/>
        <path d="M1426.2,941.6l7.08-9.78H1429v-1.08h8.94v1.08h-3.12l-7.8,11,9.78,15.36h3.12v1.08h-20v-1.08h4.26l-6.6-10.8-6.84,10.8h4v1.08h-9.42v-1.08h4l7.62-12-9.12-14.4h-3.48v-1.08h20.28v1.08h-4.2Z"/>
        <path d="M1459.08,959.3l-.66-4.2q-2,4.8-8.28,4.8a9.51,9.51,0,0,1-8-3.72q-2.85-3.72-2.85-11.1,0-14.94,11.88-14.94,5.28,0,7,2.94v-17.7h-3.66V914.3h15v43.92h2.94v1.08Zm-7.56-4a2.5,2.5,0,0,0,2.43,2.07,3.86,3.86,0,0,0,3.06-1.56,7.11,7.11,0,0,0,1.29-4.62V938.06a8.76,8.76,0,0,0-1-4.38,3.26,3.26,0,0,0-3-1.8q-2,0-2.7,2.64a40.18,40.18,0,0,0-.72,9.24v3.12Q1450.86,953.18,1451.52,955.25Z"/>
      </g>
    </g>
    <g id="premiere">
      <path class="skills_cls-1" d="M2142.51,878.25c26.69-46.42,33.3-57.72,33.39-57.67s-9.26,17.89-21.23,37.2c-5.42,8.75-9.68,15.91-12.28,20.34a64.86,64.86,0,0,0-4.55,12.11c-9.09,37.43,21.25,54.88,16.87,92.78-3.29,28.37-25,59.5-52.59,69-39.63,13.59-58.84-28.74-133-40.69-60.63-9.76-75.53,14.09-116.59-4.46-30.69-13.87-73.8-48-69-90.79,3.66-32.26,32.49-52,39.9-56.78h0a964.08,964.08,0,0,1,319,19Z"/>
      <path class="skills_cls-2" d="M2166.61,844.84c-11.38,22.66-23.45,23.46-28.77,45.39-9.09,37.43,21.25,54.88,16.87,92.78-3.29,28.37-25,59.5-52.59,69-39.63,13.59-58.84-28.74-133-40.69-60.63-9.76-75.53,14.09-116.59-4.46-33.78-15.26-69.17-52-69-90.79.21-38.26,34.81-43.19,50.11-99.72a120.77,120.77,0,0,0,4.44-28c1-31,1.44-45.5,2.51-59.85,1.83-24.57,14-57.52,38.33-76.5,34.6-27,90.36-23.11,125,0,35.66,23.78,28.16,54,61,68,38.64,16.41,65.31-18.58,92.19-1.42C2191.09,740.22,2181.14,815.93,2166.61,844.84Z"/>
      <g>
        <path d="M1871.86,817.2h1.74v-4.62a29.8,29.8,0,0,0-.63-7.65,2.43,2.43,0,0,0-2.43-1.95,3.48,3.48,0,0,0-2,.57,1.77,1.77,0,0,0-.87,1.56,6,6,0,0,0,.36,2h1.5a8.52,8.52,0,0,1,.48,3,3.92,3.92,0,0,1-1.5,3.06,5.59,5.59,0,0,1-3.78,1.29q-5.16,0-5.16-5,0-7.38,12.54-7.38,7.14,0,9.87,2.43t2.73,8.91v12.18q0,3.12,1.74,3.12,2,0,2.4-6.18l.9.06q-.24,5.28-2,7.26t-5.7,2q-7.2,0-8.28-4.44a6.46,6.46,0,0,1-2.34,3.36,8,8,0,0,1-4.56,1.08q-8.88,0-8.88-7.26,0-4.26,3.39-5.85T1871.86,817.2Zm-2.07,11.4a1.24,1.24,0,0,0,1.26.9q.93,0,1.74-1.53a9.14,9.14,0,0,0,.81-4.23v-5.58h-.42q-3.72,0-3.72,5.46v1A14.84,14.84,0,0,0,1869.79,828.6Z"/>
        <path d="M1910.8,831.3l-.66-4.2q-2,4.8-8.28,4.8a9.51,9.51,0,0,1-8-3.72q-2.85-3.72-2.85-11.1,0-14.94,11.88-14.94,5.28,0,7,2.94v-17.7h-3.66V786.3h15v43.92h2.94v1.08Zm-7.56-4a2.5,2.5,0,0,0,2.43,2.07,3.86,3.86,0,0,0,3.06-1.56,7.11,7.11,0,0,0,1.29-4.62V810.06a8.76,8.76,0,0,0-1-4.38,3.26,3.26,0,0,0-3-1.8q-2,0-2.7,2.64a40.18,40.18,0,0,0-.72,9.24v3.12Q1902.58,825.18,1903.24,827.25Z"/>
        <path d="M1930,828.06q-3.84-3.84-3.84-11t4.11-11q4.11-3.87,11.55-3.87t11.1,3.57q3.66,3.57,3.66,10.89,0,15.3-15.24,15.3Q1933.84,831.9,1930,828.06Zm15.06-8.58v-5.1a40.8,40.8,0,0,0-.63-8.49q-.63-2.67-2.91-2.67a3,3,0,0,0-2.13.75,4.6,4.6,0,0,0-1.17,2.49,45.65,45.65,0,0,0-.54,8.22v4.68q0,6.54.39,7.86a13.43,13.43,0,0,0,.81,2.16,2.56,2.56,0,0,0,2.58,1.44q2.34,0,3.06-2.7Q1945.06,826.2,1945.06,819.48Z"/>
        <path d="M1972.72,786.3v21a7.94,7.94,0,0,1,7.8-5.16q11.22,0,11.22,14.94,0,7.62-3.09,11.22t-9.27,3.6a9.61,9.61,0,0,1-4.77-1,5,5,0,0,1-2.25-3.18l-.42,3.54h-13.68v-1.08h3.3V787.38h-3.3V786.3Zm6.84,20.55q-.6-2.13-2.34-2.13t-3.12,2.16a11,11,0,0,0-1.38,5.94V824a8.56,8.56,0,0,0,1,4.38,3.3,3.3,0,0,0,3,1.8q1.95,0,2.67-2.64a40.18,40.18,0,0,0,.72-9.24v-3.12A36.88,36.88,0,0,0,1979.56,806.85Z"/>
        <path d="M1997.71,827.91q-3.87-4-3.87-11.1t4.35-10.89a16.27,16.27,0,0,1,11.07-3.78q13.62,0,13.08,13.68h-16.92v2.34q0,5.88,1.5,8.88a5.35,5.35,0,0,0,5.22,3q7,0,9.12-7.44l1.08.18a12.4,12.4,0,0,1-4.11,6.72q-3,2.4-8.91,2.4Q2001.58,831.9,1997.71,827.91Zm7.77-13.29h6.18v-2.94a25.33,25.33,0,0,0-.57-6.63,2.25,2.25,0,0,0-2.28-1.77,2.67,2.67,0,0,0-2.52,1.89,18.27,18.27,0,0,0-.81,6.51Z"/>
        <path d="M1871.8,874.74v4.74a8.34,8.34,0,0,1,8.28-5.34,9.51,9.51,0,0,1,8,3.72q2.85,3.72,2.85,11.28t-3.09,11.16q-3.09,3.6-9.27,3.6a10,10,0,0,1-4.32-.72,5.66,5.66,0,0,1-2.34-2.22V916.5h7.74v1.08h-22.2V916.5h3.3V875.82h-3.18v-1.08Zm7,4.11q-.6-2.13-2.34-2.13T1873.3,879a11.46,11.46,0,0,0-1.38,6v11a8.76,8.76,0,0,0,1,4.38,3.26,3.26,0,0,0,3,1.8q2,0,2.7-2.64a40.18,40.18,0,0,0,.72-9.24v-3.12A36.88,36.88,0,0,0,1878.76,878.85Z"/>
        <path d="M1912.78,876.42q-2.22,0-3.9,2.88a13.34,13.34,0,0,0-1.68,6.84v16.08h4.26v1.08h-18.72v-1.08h3.3v-26.4h-3.3v-1.08h14.46v5.76a8.14,8.14,0,0,1,3-4.71,8.23,8.23,0,0,1,5-1.65,6.61,6.61,0,0,1,4.59,1.59,5.74,5.74,0,0,1,1.77,4.5,6.74,6.74,0,0,1-1.32,4.47,5,5,0,0,1-4,1.56,4.61,4.61,0,0,1-4-1.8q-1.29-1.8-.33-5H1914Q1915.54,876.42,1912.78,876.42Z"/>
        <path d="M1926.31,899.91q-3.87-4-3.87-11.1t4.35-10.89a16.27,16.27,0,0,1,11.07-3.78q13.62,0,13.08,13.68H1934v2.34q0,5.88,1.5,8.88a5.35,5.35,0,0,0,5.22,3q7,0,9.12-7.44l1.08.18a12.4,12.4,0,0,1-4.11,6.72q-3,2.4-8.91,2.4Q1930.18,903.9,1926.31,899.91Zm7.77-13.29h6.18v-2.94a25.33,25.33,0,0,0-.57-6.63,2.25,2.25,0,0,0-2.28-1.77,2.67,2.67,0,0,0-2.52,1.89,18.27,18.27,0,0,0-.81,6.51Z"/>
        <path d="M1953.1,874.74h14.46v5.52q2-6.12,8.73-6.12t8.19,6.48q2.1-6.48,8.82-6.48,8.82,0,8.82,10v18.06h3.36v1.08h-16.62v-1.08h2.1v-19.5q0-4.56-.78-5.34a1.3,1.3,0,0,0-1-.36q-1.74,0-3.06,2.34a12,12,0,0,0-1.32,5.94v16.92H1987v1.08h-15.42v-1.08h2.1v-19.5q0-4.56-.78-5.34a1.3,1.3,0,0,0-1-.36q-1.68,0-3,2.55a12.85,12.85,0,0,0-1.35,6.09v16.56h2.16v1.08H1953.1v-1.08h3.3v-26.4h-3.3Z"/>
        <path d="M2006.14,874.74h14.7v27.48h3.36v1.08h-17.82v-1.08h3.3v-26.4h-3.54Zm9.06-4.14q-3.18,0-4.53-1.62a6.07,6.07,0,0,1-1.35-4,5.54,5.54,0,0,1,1.47-4,5.87,5.87,0,0,1,4.47-1.56,6.59,6.59,0,0,1,4.56,1.41,5.14,5.14,0,0,1,1.56,4,5.76,5.76,0,0,1-1.5,4.17A6.23,6.23,0,0,1,2015.2,870.6Z"/>
        <path d="M2029.57,899.91q-3.87-4-3.87-11.1t4.35-10.89a16.27,16.27,0,0,1,11.07-3.78q13.62,0,13.08,13.68h-16.92v2.34q0,5.88,1.5,8.88a5.35,5.35,0,0,0,5.22,3q7,0,9.12-7.44l1.08.18a12.4,12.4,0,0,1-4.11,6.72q-3,2.4-8.91,2.4Q2033.44,903.9,2029.57,899.91Zm7.77-13.29h6.18v-2.94a25.33,25.33,0,0,0-.57-6.63,2.25,2.25,0,0,0-2.28-1.77,2.67,2.67,0,0,0-2.52,1.89,18.27,18.27,0,0,0-.81,6.51Z"/>
        <path d="M2076.39,876.42c-1.47,0-2.78,1-3.89,2.88a13.34,13.34,0,0,0-1.69,6.84v16.08h4.27v1.08h-18.73v-1.08h3.31v-26.4h-3.31v-1.08h14.46v5.76a8.14,8.14,0,0,1,3-4.71,8.23,8.23,0,0,1,5-1.65,6.65,6.65,0,0,1,4.6,1.59,5.76,5.76,0,0,1,1.76,4.5,6.74,6.74,0,0,1-1.32,4.47,5,5,0,0,1-4,1.56,4.58,4.58,0,0,1-4-1.8q-1.3-1.8-.33-5h2.16Q2079.15,876.42,2076.39,876.42Z"/>
        <path d="M2089.92,899.91q-3.86-4-3.86-11.1c0-4.74,1.44-8.37,4.35-10.89a16.25,16.25,0,0,1,11.07-3.78q13.61,0,13.08,13.68h-16.92v2.34c0,3.92.49,6.88,1.5,8.88a5.34,5.34,0,0,0,5.22,3q7,0,9.12-7.44l1.08.18a12.52,12.52,0,0,1-4.11,6.72c-2,1.6-4.95,2.4-8.91,2.4Q2093.8,903.9,2089.92,899.91Zm7.78-13.29h6.18v-2.94a25.79,25.79,0,0,0-.57-6.63,2.25,2.25,0,0,0-2.28-1.77,2.68,2.68,0,0,0-2.53,1.89,18.32,18.32,0,0,0-.8,6.51Z"/>
        <path d="M1871.8,946.74v4.74a8.34,8.34,0,0,1,8.28-5.34,9.51,9.51,0,0,1,8,3.72q2.85,3.72,2.85,11.28t-3.09,11.16q-3.09,3.6-9.27,3.6a10,10,0,0,1-4.32-.72,5.66,5.66,0,0,1-2.34-2.22V988.5h7.74v1.08h-22.2V988.5h3.3V947.82h-3.18v-1.08Zm7,4.11q-.6-2.13-2.34-2.13T1873.3,951a11.46,11.46,0,0,0-1.38,6v11a8.76,8.76,0,0,0,1,4.38,3.26,3.26,0,0,0,3,1.8q2,0,2.7-2.64a40.18,40.18,0,0,0,.72-9.24v-3.12A36.88,36.88,0,0,0,1878.76,950.85Z"/>
        <path d="M1912.78,948.42q-2.22,0-3.9,2.88a13.34,13.34,0,0,0-1.68,6.84v16.08h4.26v1.08h-18.72v-1.08h3.3v-26.4h-3.3v-1.08h14.46v5.76a8.14,8.14,0,0,1,3-4.71,8.23,8.23,0,0,1,5-1.65,6.61,6.61,0,0,1,4.59,1.59,5.74,5.74,0,0,1,1.77,4.5,6.74,6.74,0,0,1-1.32,4.47,5,5,0,0,1-4,1.56,4.61,4.61,0,0,1-4-1.8q-1.29-1.8-.33-5H1914Q1915.54,948.42,1912.78,948.42Z"/>
        <path d="M1926.46,972.06q-3.84-3.84-3.84-11t4.11-11q4.11-3.87,11.55-3.87t11.1,3.57q3.66,3.57,3.66,10.89,0,15.3-15.24,15.3Q1930.3,975.9,1926.46,972.06Zm15.06-8.58v-5.1a40.8,40.8,0,0,0-.63-8.49q-.63-2.67-2.91-2.67a3,3,0,0,0-2.13.75,4.6,4.6,0,0,0-1.17,2.49,45.65,45.65,0,0,0-.54,8.22v4.68q0,6.54.39,7.86a13.43,13.43,0,0,0,.81,2.16,2.56,2.56,0,0,0,2.58,1.44q2.34,0,3.06-2.7Q1941.52,970.2,1941.52,963.48Z"/>
      </g>
    </g>
    <g id="html">
      <path class="skills_cls-1" d="M718,263c17.91,46,11.1,69.42,5.91,80-3.89,7.93-19.06,33.71-21.23,37.2-5.42,8.75-9.68,15.91-12.28,20.33a65.11,65.11,0,0,0-4.55,12.12c-9.09,37.43,21.25,54.88,16.87,92.77-3.29,28.38-25,59.51-52.59,69-39.63,13.6-58.84-28.74-133-40.68-60.63-9.77-75.53,14.09-116.59-4.46-33.32-15.06-70.06-52.09-69-90.79,1.08-37.61,43.68-60.93,50.29-99.45A223.78,223.78,0,0,0,385,312c.41-11.73-.6-17.68,0-31a207.36,207.36,0,0,1,2-21c47-3.22,97.11-5.09,150-5C601.55,255.12,662.06,258.15,718,263Z"/>
      <path class="skills_cls-2" d="M714.62,367.26c-11.38,22.65-23.45,23.46-28.77,45.39-9.09,37.43,21.25,54.88,16.87,92.77-3.29,28.38-25,59.51-52.59,69-39.63,13.6-58.84-28.74-133-40.68-60.63-9.77-75.53,14.09-116.59-4.46-33.78-15.27-69.17-52-69-90.79.21-38.26,34.81-43.19,50.11-99.72a120.84,120.84,0,0,0,4.44-28c1.21-36.7-1-44.78,2.51-59.84,7.94-34.31,48.86-52.17,64.32-58.92,13.83-6,55.49-24.23,89-6,23.47,12.77,17.64,29.65,39,45,41.65,29.94,90.43-16.14,124.2,10C734.87,264,734.47,327.74,714.62,367.26Z"/>
      <g>
        <path d="M402.76,365.22h28.08v1.71h-5.22v27.9h17.91v-27.9h-5.31v-1.71h28.17v1.71h-5.31v59.58h5.31v1.71H438.22v-1.71h5.31V397.17H425.62v29.34h5.22v1.71H402.76v-1.71h5.31V366.93h-5.31Z"/>
        <path d="M525.52,365.22l.9,22.59h-1.71q-4-12-7-16.34a10.11,10.11,0,0,0-8.82-4.36h-1.08v59.22h7.65v1.89H482.59v-1.89h7.65V367.11h-1.17a10.2,10.2,0,0,0-8.91,4.54q-3.15,4.55-6.93,16.16h-1.71l.9-22.59Z"/>
        <path d="M579.07,365.22h24v1.71h-5v59.58h5v1.71H575.65v-1.71h5V370.26h-.36l-13.5,58H555.49L539.65,370h-.36v56.52h5v1.71H532v-1.71h5V366.93h-5v-1.71h24.3l12,46.35Z"/>
        <path d="M607.24,365.22h32.4v2H630.1v59h3.24q7.65,0,12.19-4.68t9.23-14.4h1.89l-1.71,21.06h-47.7v-2h5.31v-59h-5.31Z"/>
      </g>
    </g>
    <g id="css">
      <path class="skills_cls-1" d="M1228,274c16.52,37.21,11.6,58.37,6.91,69-2.53,5.72-8.37,16.45-21.23,37.2-5.42,8.75-9.68,15.91-12.28,20.33a65.11,65.11,0,0,0-4.55,12.12c-9.09,37.43,21.25,54.88,16.87,92.77-3.29,28.38-25,59.51-52.59,69-39.63,13.6-58.84-28.74-133-40.68-60.63-9.77-75.53,14.09-116.59-4.46-33.32-15.06-70.06-52.09-69-90.79,1.06-37,41.46-58.9,50.29-99.45A186.35,186.35,0,0,0,897,311c.49-10.58-.43-16.54,0-32,.21-7.62.66-13.87,1-18,47.8-1.6,98.57-1.79,152,0C1113.29,263.12,1172.77,267.77,1228,274Z"/>
      <path class="skills_cls-2" d="M1225.62,367.26c-11.38,22.65-23.45,23.46-28.77,45.39-9.09,37.43,21.25,54.88,16.87,92.77-3.29,28.38-25,59.51-52.59,69-39.63,13.6-58.84-28.74-133-40.68-60.63-9.77-75.53,14.09-116.59-4.46-33.78-15.27-69.17-52-69-90.79.21-38.26,34.81-43.19,50.11-99.72a120.84,120.84,0,0,0,4.44-28c1.14-34.44,0-44.65,2.51-59.84C906.08,212.22,947,189,954,185c3.86-2.19,53.23-29.29,99-9,31.34,13.89,28.36,30.32,57,51,38.1,27.51,75.56-10.2,106.2,14C1246,264.49,1245.55,327.59,1225.62,367.26Z"/>
      <g>
        <path d="M975.07,364.39q-17.52,0-17.52,33.78v8.93q0,16,4.64,25.14t13.67,9.1q12.43,0,22.83-24.18h2l-.79,25.2h-1.24a7,7,0,0,0-1.25-1.76,2.37,2.37,0,0,0-1.64-.5,67,67,0,0,0-8.19,1.75,60.68,60.68,0,0,1-14.46,1.75q-18.42,0-28.54-10T934.5,403.77q0-19.95,10.57-30.8t28.42-10.84a52.42,52.42,0,0,1,13.5,1.75,54.69,54.69,0,0,0,7.74,1.75,2.44,2.44,0,0,0,1.69-.51,6.65,6.65,0,0,0,1.25-1.75h1.24l.91,24.52h-2q-5.09-11.42-10.45-17.46T975.07,364.39Z"/>
        <path d="M1041.74,441.23a17,17,0,0,0,10-3.06q4.35-3,4.35-9.21a10.82,10.82,0,0,0-4.69-9.43q-4.7-3.27-13.33-5.71a92.26,92.26,0,0,1-12.55-4.23,33.54,33.54,0,0,1-7.4-4.75q-7-5.88-7-18.19a23.66,23.66,0,0,1,7.18-17.29q7.17-7.23,19.61-7.23a47.8,47.8,0,0,1,12.48,1.75,45.84,45.84,0,0,0,8.08,1.75c1.06,0,2-.75,2.83-2.26h1.24l.79,22.82h-1.81a70.22,70.22,0,0,0-11.35-15.76q-5.94-5.93-12.89-5.93t-10.79,3.22a10.65,10.65,0,0,0-3.84,8.59,9.21,9.21,0,0,0,4.58,8.25,41.46,41.46,0,0,0,11.24,4.69q6.66,1.8,8.76,2.48t5.2,1.87a27.06,27.06,0,0,1,5.08,2.48,35.93,35.93,0,0,1,4.18,3.28,15.61,15.61,0,0,1,3.45,4.35,25.91,25.91,0,0,1,3,12.88q0,12.21-7.63,19.61t-20,7.4a74.77,74.77,0,0,1-14.75-1.7q-8.31-1.69-9.21-1.69c-1.06,0-2.07,1.13-3,3.39h-1.58l-1.13-26.9h1.92a62,62,0,0,0,12.71,17.18Q1033.15,441.23,1041.74,441.23Z"/>
        <path d="M1107.28,441.23a17,17,0,0,0,10-3.06q4.35-3,4.35-9.21a10.82,10.82,0,0,0-4.69-9.43q-4.7-3.27-13.33-5.71a92.26,92.26,0,0,1-12.55-4.23,33.54,33.54,0,0,1-7.4-4.75q-7-5.88-7-18.19a23.66,23.66,0,0,1,7.18-17.29q7.17-7.23,19.61-7.23a47.8,47.8,0,0,1,12.48,1.75,45.84,45.84,0,0,0,8.08,1.75c1.06,0,2-.75,2.83-2.26h1.24l.79,22.82h-1.81a70.22,70.22,0,0,0-11.35-15.76q-5.94-5.93-12.89-5.93T1092,367.72a10.65,10.65,0,0,0-3.84,8.59,9.21,9.21,0,0,0,4.58,8.25,41.46,41.46,0,0,0,11.24,4.69q6.66,1.8,8.76,2.48t5.2,1.87a27.06,27.06,0,0,1,5.08,2.48,35.93,35.93,0,0,1,4.18,3.28,15.61,15.61,0,0,1,3.45,4.35,25.91,25.91,0,0,1,3,12.88q0,12.21-7.63,19.61t-20,7.4a74.77,74.77,0,0,1-14.75-1.7q-8.31-1.69-9.21-1.69c-1.06,0-2.07,1.13-3,3.39h-1.58l-1.13-26.9h1.92A62,62,0,0,0,1091,433.88Q1098.69,441.23,1107.28,441.23Z"/>
      </g>
    </g>
    <g id="illustrator">
      <path class="skills_cls-1" d="M425,786.58c3.86,15.71,2.06,27,0,34-2.8,9.54-7,14.23-21.23,37.2-5.42,8.75-9.68,15.91-12.28,20.34a64.86,64.86,0,0,0-4.55,12.11c-9.09,37.43,21.25,54.88,16.87,92.78-3.29,28.37-25,59.5-52.59,69-39.63,13.59-58.84-28.74-133-40.69-60.63-9.76-75.53,14.09-116.59-4.46-33.32-15.06-70.07-52.09-69-90.79,1-36.56,35.78-43.37,50.29-99.45a165.83,165.83,0,0,0,5-49,1357.3,1357.3,0,0,1,337,19Z"/>
      <path class="skills_cls-2" d="M415.71,844.84c-11.38,22.66-23.45,23.46-28.77,45.39-9.09,37.43,21.25,54.88,16.87,92.78-3.29,28.37-25,59.5-52.59,69-39.63,13.59-58.84-28.74-133-40.69-60.63-9.76-75.53,14.09-116.59-4.46-33.78-15.26-69.17-52-69-90.79.21-38.26,34.81-43.19,50.11-99.72,12-44.14-6.68-54.64,7-87.81C106.09,688.77,152.89,653.41,198,655c46.37,1.64,50.35,40.89,113,55,52.41,11.81,71.64-10.7,95.29,8.58C440.24,746.26,429.64,817.12,415.71,844.84Z"/>
      <g>
        <path d="M98,873.2H99.7v-4.62a29.8,29.8,0,0,0-.63-7.65A2.43,2.43,0,0,0,96.64,859a3.48,3.48,0,0,0-2,.57,1.77,1.77,0,0,0-.87,1.56,6,6,0,0,0,.36,2h1.5a8.52,8.52,0,0,1,.48,3,3.92,3.92,0,0,1-1.5,3.06,5.59,5.59,0,0,1-3.78,1.29q-5.16,0-5.16-5,0-7.38,12.54-7.38,7.14,0,9.87,2.43t2.73,8.91v12.18q0,3.12,1.74,3.12,2,0,2.4-6.18l.9.06q-.24,5.28-2,7.26t-5.7,2q-7.2,0-8.28-4.44a6.46,6.46,0,0,1-2.34,3.36A8,8,0,0,1,93,887.9q-8.88,0-8.88-7.26,0-4.26,3.39-5.85T98,873.2Zm-2.07,11.4a1.24,1.24,0,0,0,1.26.9q.93,0,1.74-1.53a9.14,9.14,0,0,0,.81-4.23v-5.58h-.42q-3.72,0-3.72,5.46v1A14.84,14.84,0,0,0,95.89,884.6Z"/>
        <path d="M136.9,887.3l-.66-4.2q-2,4.8-8.28,4.8a9.51,9.51,0,0,1-8-3.72q-2.85-3.72-2.85-11.1,0-14.94,11.88-14.94,5.28,0,7,2.94v-17.7h-3.66V842.3h15v43.92h2.94v1.08Zm-7.56-4a2.5,2.5,0,0,0,2.43,2.07,3.86,3.86,0,0,0,3.06-1.56,7.11,7.11,0,0,0,1.29-4.62V866.06a8.76,8.76,0,0,0-1-4.38,3.26,3.26,0,0,0-3-1.8q-2,0-2.7,2.64a40.18,40.18,0,0,0-.72,9.24v3.12Q128.68,881.18,129.34,883.25Z"/>
        <path d="M156.1,884.06q-3.84-3.84-3.84-11t4.11-11q4.11-3.87,11.55-3.87t11.1,3.57q3.66,3.57,3.66,10.89,0,15.3-15.24,15.3Q159.94,887.9,156.1,884.06Zm15.06-8.58v-5.1a40.8,40.8,0,0,0-.63-8.49q-.63-2.67-2.91-2.67a3,3,0,0,0-2.13.75,4.6,4.6,0,0,0-1.17,2.49,45.65,45.65,0,0,0-.54,8.22v4.68q0,6.54.39,7.86a13.43,13.43,0,0,0,.81,2.16,2.56,2.56,0,0,0,2.58,1.44q2.34,0,3.06-2.7Q171.16,882.2,171.16,875.48Z"/>
        <path d="M198.82,842.3v21a7.94,7.94,0,0,1,7.8-5.16q11.22,0,11.22,14.94,0,7.62-3.09,11.22t-9.27,3.6a9.61,9.61,0,0,1-4.77-1,5,5,0,0,1-2.25-3.18L198,887.3H184.36v-1.08h3.3V843.38h-3.3V842.3Zm6.84,20.55q-.6-2.13-2.34-2.13t-3.12,2.16a11,11,0,0,0-1.38,5.94V880a8.56,8.56,0,0,0,1.05,4.38,3.3,3.3,0,0,0,3,1.8q1.95,0,2.67-2.64a40.18,40.18,0,0,0,.72-9.24v-3.12A36.88,36.88,0,0,0,205.66,862.85Z"/>
        <path d="M223.81,883.91q-3.87-4-3.87-11.1t4.35-10.89a16.27,16.27,0,0,1,11.07-3.78q13.62,0,13.08,13.68H231.52v2.34q0,5.88,1.5,8.88a5.35,5.35,0,0,0,5.22,3q7,0,9.12-7.44l1.08.18a12.4,12.4,0,0,1-4.11,6.72q-3,2.4-8.91,2.4Q227.68,887.9,223.81,883.91Zm7.77-13.29h6.18v-2.94a25.33,25.33,0,0,0-.57-6.63,2.25,2.25,0,0,0-2.28-1.77,2.67,2.67,0,0,0-2.52,1.89,18.27,18.27,0,0,0-.81,6.51Z"/>
        <path d="M83.32,930.74H98v27.48h3.36v1.08H83.56v-1.08h3.3v-26.4H83.32Zm9.06-4.14q-3.18,0-4.53-1.62a6.07,6.07,0,0,1-1.35-4A5.54,5.54,0,0,1,88,917a5.87,5.87,0,0,1,4.47-1.56A6.59,6.59,0,0,1,97,916.85a5.14,5.14,0,0,1,1.56,4,5.76,5.76,0,0,1-1.5,4.17A6.23,6.23,0,0,1,92.38,926.6Z"/>
        <path d="M102.34,914.3H117v43.92h3.36v1.08H102.58v-1.08h3.3V915.38h-3.54Z"/>
        <path d="M121.3,914.3H136v43.92h3.36v1.08H121.54v-1.08h3.3V915.38H121.3Z"/>
        <path d="M175.3,959.3H161.62l-.66-4.38a7.85,7.85,0,0,1-2.85,3.69,10,10,0,0,1-5.61,1.29q-9.3,0-9.3-10V931.82h-3.36v-1.08h14.52v20.58a13.93,13.93,0,0,0,.51,4.74,2,2,0,0,0,2,1.14,3.34,3.34,0,0,0,2.73-1.86,9.47,9.47,0,0,0,1.2-5.16V931.82h-2.76v-1.08H172v27.48h3.3Z"/>
        <path d="M177.88,959.9V949.16h.72q1.56,5.22,4.2,7.32a10.27,10.27,0,0,0,6.6,2.1q6.12,0,6.12-3.9a2.72,2.72,0,0,0-1.5-2.52,20.21,20.21,0,0,0-6-2,23.48,23.48,0,0,1-6.84-2.88q-3.3-2.16-3.3-6.84a9.92,9.92,0,0,1,2.88-7.47,10.57,10.57,0,0,1,7.68-2.79,14.93,14.93,0,0,1,6.06,1.38,5,5,0,0,0,1.74.48,1.39,1.39,0,0,0,1-.42,6.92,6.92,0,0,0,1-1.56h.66v9.18h-.72q-3.06-7.8-9.48-7.8a7.23,7.23,0,0,0-4.2,1,3,3,0,0,0-1.38,2.49,2.16,2.16,0,0,0,.42,1.41q.42.51.66.75a3.08,3.08,0,0,0,.78.51q.54.27.9.42t1.11.39a8.88,8.88,0,0,0,1.11.3,45.74,45.74,0,0,1,5.88,1.77,20.06,20.06,0,0,1,3.42,1.83q3.3,2.28,3.3,7.35t-3,7.68q-3,2.61-8.22,2.61a15.91,15.91,0,0,1-7.2-1.74,2.31,2.31,0,0,0-1.14-.48q-1.32,0-2.58,2.22Z"/>
        <path d="M204.94,950.72v-18.9h-3.3v-1.08h3.3V923l11.16-2.76v10.5h7.8v1.08h-7.8V952a11.13,11.13,0,0,0,.57,4.14A2.31,2.31,0,0,0,219,957.5a3.89,3.89,0,0,0,3.15-1.8,10.43,10.43,0,0,0,1.77-4.92l1,.12a11.64,11.64,0,0,1-2.64,6.57q-2.16,2.43-7.14,2.43t-7.62-2Q204.94,955.94,204.94,950.72Z"/>
        <path d="M245.62,932.42q-2.22,0-3.9,2.88a13.34,13.34,0,0,0-1.68,6.84v16.08h4.26v1.08H225.58v-1.08h3.3v-26.4h-3.3v-1.08H240v5.76a8.14,8.14,0,0,1,3-4.71,8.23,8.23,0,0,1,5-1.65,6.61,6.61,0,0,1,4.59,1.59,5.74,5.74,0,0,1,1.77,4.5,6.74,6.74,0,0,1-1.32,4.47,5,5,0,0,1-4.05,1.56,4.61,4.61,0,0,1-4-1.8q-1.29-1.8-.33-5h2.16Q248.38,932.42,245.62,932.42Z"/>
        <path d="M268.78,945.2h1.74v-4.62a29.8,29.8,0,0,0-.63-7.65,2.43,2.43,0,0,0-2.43-1.95,3.48,3.48,0,0,0-1.95.57,1.77,1.77,0,0,0-.87,1.56,6,6,0,0,0,.36,2h1.5a8.52,8.52,0,0,1,.48,3,3.92,3.92,0,0,1-1.5,3.06,5.59,5.59,0,0,1-3.78,1.29q-5.16,0-5.16-5,0-7.38,12.54-7.38,7.14,0,9.87,2.43t2.73,8.91v12.18q0,3.12,1.74,3.12,2,0,2.4-6.18l.9.06q-.24,5.28-2,7.26t-5.7,2q-7.2,0-8.28-4.44a6.46,6.46,0,0,1-2.34,3.36,8,8,0,0,1-4.56,1.08q-8.88,0-8.88-7.26,0-4.26,3.39-5.85T268.78,945.2Zm-2.07,11.4a1.24,1.24,0,0,0,1.26.9q.93,0,1.74-1.53a9.14,9.14,0,0,0,.81-4.23v-5.58h-.42q-3.72,0-3.72,5.46v1A14.84,14.84,0,0,0,266.71,956.6Z"/>
        <path d="M289.42,950.72v-18.9h-3.3v-1.08h3.3V923l11.16-2.76v10.5h7.8v1.08h-7.8V952a11.13,11.13,0,0,0,.57,4.14,2.31,2.31,0,0,0,2.37,1.32,3.89,3.89,0,0,0,3.15-1.8,10.43,10.43,0,0,0,1.77-4.92l1,.12a11.64,11.64,0,0,1-2.64,6.57q-2.16,2.43-7.14,2.43t-7.62-2Q289.42,955.94,289.42,950.72Z"/>
        <path d="M314.38,956.06q-3.84-3.84-3.84-11t4.11-11q4.11-3.87,11.55-3.87t11.1,3.57Q341,937.28,341,944.6q0,15.3-15.24,15.3Q318.22,959.9,314.38,956.06Zm15.06-8.58v-5.1a40.8,40.8,0,0,0-.63-8.49q-.63-2.67-2.91-2.67a3,3,0,0,0-2.13.75,4.6,4.6,0,0,0-1.17,2.49,45.65,45.65,0,0,0-.54,8.22v4.68q0,6.54.39,7.86a13.43,13.43,0,0,0,.81,2.16,2.56,2.56,0,0,0,2.58,1.44q2.34,0,3.06-2.7Q329.44,954.2,329.44,947.48Z"/>
        <path d="M362.68,932.42q-2.22,0-3.9,2.88a13.34,13.34,0,0,0-1.68,6.84v16.08h4.26v1.08H342.64v-1.08h3.3v-26.4h-3.3v-1.08H357.1v5.76a8.14,8.14,0,0,1,3-4.71,8.23,8.23,0,0,1,5-1.65,6.61,6.61,0,0,1,4.59,1.59,5.74,5.74,0,0,1,1.77,4.5,6.74,6.74,0,0,1-1.32,4.47,5,5,0,0,1-4.05,1.56,4.61,4.61,0,0,1-4-1.8q-1.29-1.8-.33-5h2.16Q365.44,932.42,362.68,932.42Z"/>
      </g>
    </g>
    <g id="photoshop">
      <path class="skills_cls-1" d="M836,878.25c26.69-46.42,33.3-57.72,33.39-57.67s-9.26,17.89-21.23,37.2c-5.42,8.75-9.68,15.91-12.28,20.34a64.86,64.86,0,0,0-4.55,12.11c-9.09,37.43,21.25,54.88,16.87,92.78-3.29,28.37-25,59.5-52.59,69-39.63,13.59-58.84-28.74-133-40.69-60.63-9.76-75.53,14.09-116.59-4.46-30.69-13.87-73.8-48-69-90.79,3.66-32.26,32.49-52,39.9-56.78h0a964.08,964.08,0,0,1,319,19Z"/>
      <path class="skills_cls-2" d="M860.1,844.84c-11.38,22.66-23.45,23.46-28.77,45.39-9.09,37.43,21.25,54.88,16.87,92.78-3.29,28.37-25,59.5-52.59,69-39.63,13.59-58.84-28.74-133-40.69-60.63-9.76-75.53,14.09-116.59-4.46-33.78-15.26-69.17-52-69-90.79.22-38.26,34.81-43.19,50.11-99.72,12.39-45.76-6.22-57.53,6.95-87.81C556.57,677,629.71,639.26,678,657.06c34.38,12.66,29.36,43.5,68,58.94,46.64,18.65,76.17-17.46,104.68,2.58C884.88,742.62,874.19,816.79,860.1,844.84Z"/>
      <g>
        <path d="M545.35,872.2h1.74v-4.62a29.8,29.8,0,0,0-.63-7.65A2.43,2.43,0,0,0,544,858a3.48,3.48,0,0,0-1.95.57,1.77,1.77,0,0,0-.87,1.56,6,6,0,0,0,.36,2h1.5a8.52,8.52,0,0,1,.48,3,3.92,3.92,0,0,1-1.5,3.06,5.59,5.59,0,0,1-3.78,1.29q-5.16,0-5.16-5,0-7.38,12.54-7.38,7.14,0,9.87,2.43t2.73,8.91v12.18q0,3.12,1.74,3.12,2,0,2.4-6.18l.9.06q-.24,5.28-2,7.26t-5.7,2q-7.2,0-8.28-4.44a6.46,6.46,0,0,1-2.34,3.36,8,8,0,0,1-4.56,1.08q-8.88,0-8.88-7.26,0-4.26,3.39-5.85T545.35,872.2Zm-2.07,11.4a1.24,1.24,0,0,0,1.26.9q.93,0,1.74-1.53a9.14,9.14,0,0,0,.81-4.23v-5.58h-.42q-3.72,0-3.72,5.46v1A14.84,14.84,0,0,0,543.28,883.6Z"/>
        <path d="M584.29,886.3l-.66-4.2q-2,4.8-8.28,4.8a9.51,9.51,0,0,1-8-3.72q-2.85-3.72-2.85-11.1,0-14.94,11.88-14.94,5.28,0,7,2.94v-17.7h-3.66V841.3h15v43.92h2.94v1.08Zm-7.56-4a2.5,2.5,0,0,0,2.43,2.07,3.86,3.86,0,0,0,3.06-1.56,7.11,7.11,0,0,0,1.29-4.62V865.06a8.76,8.76,0,0,0-1-4.38,3.26,3.26,0,0,0-3-1.8q-2,0-2.7,2.64a40.18,40.18,0,0,0-.72,9.24v3.12Q576.07,880.18,576.73,882.25Z"/>
        <path d="M603.49,883.06q-3.84-3.84-3.84-11t4.11-11q4.11-3.87,11.55-3.87t11.1,3.57q3.66,3.57,3.66,10.89,0,15.3-15.24,15.3Q607.33,886.9,603.49,883.06Zm15.06-8.58v-5.1a40.8,40.8,0,0,0-.63-8.49q-.63-2.67-2.91-2.67a3,3,0,0,0-2.13.75,4.6,4.6,0,0,0-1.17,2.49,45.65,45.65,0,0,0-.54,8.22v4.68q0,6.54.39,7.86a13.43,13.43,0,0,0,.81,2.16,2.56,2.56,0,0,0,2.58,1.44q2.34,0,3.06-2.7Q618.55,881.2,618.55,874.48Z"/>
        <path d="M646.21,841.3v21a7.94,7.94,0,0,1,7.8-5.16q11.22,0,11.22,14.94,0,7.62-3.09,11.22t-9.27,3.6a9.61,9.61,0,0,1-4.77-1,5,5,0,0,1-2.25-3.18l-.42,3.54H631.75v-1.08h3.3V842.38h-3.3V841.3Zm6.84,20.55q-.6-2.13-2.34-2.13t-3.12,2.16a11,11,0,0,0-1.38,5.94V879a8.56,8.56,0,0,0,1,4.38,3.3,3.3,0,0,0,3,1.8q1.95,0,2.67-2.64a40.18,40.18,0,0,0,.72-9.24v-3.12A36.88,36.88,0,0,0,653.05,861.85Z"/>
        <path d="M671.2,882.91q-3.87-4-3.87-11.1t4.35-10.89a16.27,16.27,0,0,1,11.07-3.78q13.62,0,13.08,13.68H678.91v2.34q0,5.88,1.5,8.88a5.35,5.35,0,0,0,5.22,3q7,0,9.12-7.44l1.08.18a12.4,12.4,0,0,1-4.11,6.72q-3,2.4-8.91,2.4Q675.07,886.9,671.2,882.91ZM679,869.62h6.18v-2.94a25.33,25.33,0,0,0-.57-6.63,2.25,2.25,0,0,0-2.28-1.77,2.67,2.67,0,0,0-2.52,1.89,18.27,18.27,0,0,0-.81,6.51Z"/>
        <path d="M545.29,929.74v4.74a8.34,8.34,0,0,1,8.28-5.34,9.51,9.51,0,0,1,8,3.72q2.85,3.72,2.85,11.28t-3.09,11.16q-3.09,3.6-9.27,3.6a10,10,0,0,1-4.32-.72,5.66,5.66,0,0,1-2.34-2.22V971.5h7.74v1.08H531V971.5h3.3V930.82h-3.18v-1.08Zm7,4.11q-.6-2.13-2.34-2.13T546.79,934a11.46,11.46,0,0,0-1.38,6v11a8.76,8.76,0,0,0,1,4.38,3.26,3.26,0,0,0,3,1.8q2,0,2.7-2.64a40.18,40.18,0,0,0,.72-9.24v-3.12A36.88,36.88,0,0,0,552.25,933.85Z"/>
        <path d="M566.23,913.3h14.46v22a10,10,0,0,1,2.94-4.44q2-1.68,6-1.68,9.3,0,9.3,10v18.06h3.36v1.08h-17v-1.08h2.46v-19.5a13.84,13.84,0,0,0-.48-4.65,1.75,1.75,0,0,0-1.74-1.05q-1.92,0-3.39,2.52a12,12,0,0,0-1.47,6.12v16.56h2.58v1.08h-17v-1.08h3.3V914.38h-3.3Z"/>
        <path d="M607.51,955.06q-3.84-3.84-3.84-11t4.11-11q4.11-3.87,11.55-3.87t11.1,3.57q3.66,3.57,3.66,10.89,0,15.3-15.24,15.3Q611.35,958.9,607.51,955.06Zm15.06-8.58v-5.1a40.8,40.8,0,0,0-.63-8.49q-.63-2.67-2.91-2.67a3,3,0,0,0-2.13.75,4.6,4.6,0,0,0-1.17,2.49,45.65,45.65,0,0,0-.54,8.22v4.68q0,6.54.39,7.86a13.43,13.43,0,0,0,.81,2.16,2.56,2.56,0,0,0,2.58,1.44q2.34,0,3.06-2.7Q622.57,953.2,622.57,946.48Z"/>
        <path d="M638.77,949.72v-18.9h-3.3v-1.08h3.3V922l11.16-2.76v10.5h7.8v1.08h-7.8V951a11.13,11.13,0,0,0,.57,4.14,2.31,2.31,0,0,0,2.37,1.32,3.89,3.89,0,0,0,3.15-1.8,10.43,10.43,0,0,0,1.77-4.92l1,.12a11.64,11.64,0,0,1-2.64,6.57Q654,958.9,649,958.9t-7.62-2Q638.77,954.94,638.77,949.72Z"/>
        <path d="M663.73,955.06q-3.84-3.84-3.84-11T664,933q4.11-3.87,11.55-3.87t11.1,3.57q3.66,3.57,3.66,10.89,0,15.3-15.24,15.3Q667.57,958.9,663.73,955.06Zm15.06-8.58v-5.1a40.8,40.8,0,0,0-.63-8.49q-.63-2.67-2.91-2.67a3,3,0,0,0-2.13.75,4.6,4.6,0,0,0-1.17,2.49,45.65,45.65,0,0,0-.54,8.22v4.68q0,6.54.39,7.86a13.43,13.43,0,0,0,.81,2.16,2.56,2.56,0,0,0,2.58,1.44q2.34,0,3.06-2.7Q678.79,953.2,678.79,946.48Z"/>
        <path d="M693.37,958.9V948.16h.72q1.56,5.22,4.2,7.32a10.27,10.27,0,0,0,6.6,2.1q6.12,0,6.12-3.9a2.72,2.72,0,0,0-1.5-2.52,20.21,20.21,0,0,0-6-2,23.48,23.48,0,0,1-6.84-2.88q-3.3-2.16-3.3-6.84a9.92,9.92,0,0,1,2.88-7.47,10.57,10.57,0,0,1,7.68-2.79,14.93,14.93,0,0,1,6.06,1.38,5,5,0,0,0,1.74.48,1.39,1.39,0,0,0,1-.42,6.92,6.92,0,0,0,1-1.56h.66v9.18h-.72q-3.06-7.8-9.48-7.8a7.23,7.23,0,0,0-4.2,1,3,3,0,0,0-1.38,2.49,2.16,2.16,0,0,0,.42,1.41q.42.51.66.75a3.08,3.08,0,0,0,.78.51q.54.27.9.42t1.11.39a8.88,8.88,0,0,0,1.11.3,45.74,45.74,0,0,1,5.88,1.77,20.06,20.06,0,0,1,3.42,1.83q3.3,2.28,3.3,7.35t-3,7.68q-3,2.61-8.22,2.61a15.91,15.91,0,0,1-7.2-1.74,2.31,2.31,0,0,0-1.14-.48q-1.32,0-2.58,2.22Z"/>
        <path d="M718,913.3h14.46v22a10,10,0,0,1,2.94-4.44q2-1.68,6-1.68,9.3,0,9.3,10v18.06h3.36v1.08h-17v-1.08h2.46v-19.5a13.84,13.84,0,0,0-.48-4.65,1.75,1.75,0,0,0-1.74-1.05q-1.92,0-3.39,2.52a12,12,0,0,0-1.47,6.12v16.56h2.58v1.08H718v-1.08h3.3V914.38H718Z"/>
        <path d="M759.31,955.06q-3.84-3.84-3.84-11t4.11-11q4.11-3.87,11.55-3.87t11.1,3.57q3.66,3.57,3.66,10.89,0,15.3-15.24,15.3Q763.15,958.9,759.31,955.06Zm15.06-8.58v-5.1a40.8,40.8,0,0,0-.63-8.49q-.63-2.67-2.91-2.67a3,3,0,0,0-2.13.75,4.6,4.6,0,0,0-1.17,2.49,45.65,45.65,0,0,0-.54,8.22v4.68q0,6.54.39,7.86a13.43,13.43,0,0,0,.81,2.16,2.56,2.56,0,0,0,2.58,1.44q2.34,0,3.06-2.7Q774.37,953.2,774.37,946.48Z"/>
        <path d="M801.91,929.74v4.74a8.34,8.34,0,0,1,8.28-5.34,9.51,9.51,0,0,1,8,3.72q2.85,3.72,2.85,11.28T818,955.3q-3.09,3.6-9.27,3.6a10,10,0,0,1-4.32-.72A5.66,5.66,0,0,1,802,956V971.5h7.74v1.08h-22.2V971.5h3.3V930.82h-3.18v-1.08Zm7,4.11q-.6-2.13-2.34-2.13T803.41,934a11.46,11.46,0,0,0-1.38,6v11a8.76,8.76,0,0,0,1,4.38,3.26,3.26,0,0,0,3,1.8q2,0,2.7-2.64a40.18,40.18,0,0,0,.72-9.24v-3.12A36.88,36.88,0,0,0,808.87,933.85Z"/>
      </g>
    </g>
    <g id="javascript">
      <path class="skills_cls-1" d="M1739.91,309c3.86,15.71,2.06,27,0,34-2.8,9.54-7,14.23-21.23,37.2-5.42,8.75-9.68,15.91-12.28,20.33a65.11,65.11,0,0,0-4.55,12.12c-9.09,37.43,21.25,54.88,16.87,92.77-3.29,28.38-25,59.51-52.59,69-39.63,13.6-58.84-28.74-133-40.68-60.63-9.77-75.53,14.09-116.59-4.46-33.32-15.06-70.06-52.09-69-90.79,1.05-36.56,35.78-43.37,50.29-99.45a165.89,165.89,0,0,0,5-49,1357.3,1357.3,0,0,1,337,19Z"/>
      <path class="skills_cls-2" d="M1730.62,367.26c-11.38,22.65-23.45,23.46-28.77,45.39-9.09,37.43,21.25,54.88,16.87,92.77-3.29,28.38-25,59.51-52.59,69-39.63,13.6-58.84-28.74-133-40.68-60.63-9.77-75.53,14.09-116.59-4.46-33.78-15.27-69.17-52-69-90.79.21-38.26,34.81-43.19,50.11-99.72a120.84,120.84,0,0,0,4.44-28c1.15-34.84-.37-45.32,2.51-59.84,6.3-31.75,40.83-50.14,57.32-58.92,4.23-2.25,72.35-37.38,121-7,28.68,17.91,22,40.71,50,54,36.46,17.29,63.11-15.62,88.2,2C1750.46,261.54,1751.64,325.42,1730.62,367.26Z"/>
      <g>
        <path d="M1412.93,381.16v23.4q0,9.84-3.39,15t-11.07,5.16q-5,0-7.29-2a5.94,5.94,0,0,1-2.31-4.62,5.18,5.18,0,0,1,1.56-4.05,5.6,5.6,0,0,1,3.9-1.41,4.5,4.5,0,0,1,3.51,1.29,4.15,4.15,0,0,1,1.17,2.85,12.32,12.32,0,0,1-.36,3h-2.28a2.58,2.58,0,0,0-.27,2.76,2.7,2.7,0,0,0,2.52,1.14,2.53,2.53,0,0,0,2.49-2.07q.66-2.07.66-8.55V382.24h-3.9v-1.08Zm-5.7-4.14q-3.18,0-4.53-1.62a6.07,6.07,0,0,1-1.35-4,5.54,5.54,0,0,1,1.47-4,5.87,5.87,0,0,1,4.47-1.56,6.59,6.59,0,0,1,4.56,1.41,5.14,5.14,0,0,1,1.56,4,5.76,5.76,0,0,1-1.5,4.17A6.23,6.23,0,0,1,1407.23,377Z"/>
        <path d="M1431.53,395.62h1.74V391a29.8,29.8,0,0,0-.63-7.65,2.43,2.43,0,0,0-2.43-2,3.48,3.48,0,0,0-2,.57,1.77,1.77,0,0,0-.87,1.56,6,6,0,0,0,.36,2h1.5a8.52,8.52,0,0,1,.48,3,3.92,3.92,0,0,1-1.5,3.06,5.59,5.59,0,0,1-3.78,1.29q-5.16,0-5.16-5,0-7.38,12.54-7.38,7.14,0,9.87,2.43t2.73,8.91v12.18q0,3.12,1.74,3.12,2,0,2.4-6.18l.9.06q-.24,5.28-2,7.26t-5.7,2q-7.2,0-8.28-4.44a6.46,6.46,0,0,1-2.34,3.36,8,8,0,0,1-4.56,1.08q-8.88,0-8.88-7.26,0-4.26,3.39-5.85T1431.53,395.62Zm-2.07,11.4a1.24,1.24,0,0,0,1.26.9q.93,0,1.74-1.53a9.14,9.14,0,0,0,.81-4.23v-5.58h-.42q-3.72,0-3.72,5.46v1A14.84,14.84,0,0,0,1429.46,407Z"/>
        <path d="M1445.87,382.24v-1.08h17.94v1.08H1460l7.2,19.92,6.48-19.92h-4v-1.08h8.1v1.08h-2.64l-8.88,27.48h-6.84l-11.1-27.48Z"/>
        <path d="M1491,395.62h1.74V391a29.8,29.8,0,0,0-.63-7.65,2.43,2.43,0,0,0-2.43-2,3.48,3.48,0,0,0-2,.57,1.77,1.77,0,0,0-.87,1.56,6,6,0,0,0,.36,2h1.5a8.52,8.52,0,0,1,.48,3,3.92,3.92,0,0,1-1.5,3.06,5.59,5.59,0,0,1-3.78,1.29q-5.16,0-5.16-5,0-7.38,12.54-7.38,7.14,0,9.87,2.43t2.73,8.91v12.18q0,3.12,1.74,3.12,2,0,2.4-6.18l.9.06q-.24,5.28-2,7.26t-5.7,2q-7.2,0-8.28-4.44a6.46,6.46,0,0,1-2.34,3.36,8,8,0,0,1-4.56,1.08q-8.88,0-8.88-7.26,0-4.26,3.39-5.85T1491,395.62Zm-2.07,11.4a1.24,1.24,0,0,0,1.26.9q.93,0,1.74-1.53a9.14,9.14,0,0,0,.81-4.23v-5.58h-.42q-3.72,0-3.72,5.46v1A14.84,14.84,0,0,0,1488.92,407Z"/>
        <path d="M1528.43,409.06a9,9,0,0,0,5.31-1.62,5.57,5.57,0,0,0,2.31-4.89,5.74,5.74,0,0,0-2.49-5,23.76,23.76,0,0,0-7.08-3,48.52,48.52,0,0,1-6.66-2.25,17.69,17.69,0,0,1-3.93-2.52q-3.72-3.12-3.72-9.66a12.58,12.58,0,0,1,3.81-9.18q3.81-3.84,10.41-3.84a25.46,25.46,0,0,1,6.63.93,24.47,24.47,0,0,0,4.29.93q.84,0,1.5-1.2h.66l.42,12.12h-1a37.21,37.21,0,0,0-6-8.37,9.55,9.55,0,0,0-6.84-3.15,8.67,8.67,0,0,0-5.73,1.71,5.65,5.65,0,0,0-2,4.56,4.88,4.88,0,0,0,2.43,4.38,22,22,0,0,0,6,2.49q3.54,1,4.65,1.32t2.76,1a14.16,14.16,0,0,1,2.7,1.32,19,19,0,0,1,2.22,1.74,8.25,8.25,0,0,1,1.83,2.31,15.35,15.35,0,0,1-2.43,17.25,14.64,14.64,0,0,1-10.65,3.93,39.68,39.68,0,0,1-7.83-.9q-4.41-.9-4.89-.9-.84,0-1.62,1.8h-.84L1512,396h1a33,33,0,0,0,6.75,9.12Q1523.87,409.06,1528.43,409.06Z"/>
        <path d="M1562.33,381.64c-1.76,0-3,1-3.78,2.88s-1.14,5.1-1.14,9.54v3.12q0,5.94,1.32,8.52t4.86,2.58a7.12,7.12,0,0,0,5.64-2.4,11.63,11.63,0,0,0,2.7-5.46l1.08.12q-1.14,5.16-4.2,7.44t-8.58,2.34c-4.65,0-8.2-1.25-10.68-3.75s-3.72-6.16-3.72-11,1.41-8.53,4.23-11.13,6.75-3.9,11.79-3.9c3.56,0,6.27.69,8.16,2.07a6.22,6.22,0,0,1,2.82,5.19,6.51,6.51,0,0,1-1.35,4.56,4.85,4.85,0,0,1-3.72,1.44,5.56,5.56,0,0,1-3.81-1.26,4.68,4.68,0,0,1-1.44-3.72,8,8,0,0,1,.3-2.16h2a6.62,6.62,0,0,0,.42-2.16A2.55,2.55,0,0,0,1562.33,381.64Z"/>
        <path d="M1594.54,382.84c-1.47,0-2.78,1-3.89,2.88a13.34,13.34,0,0,0-1.69,6.84v16.08h4.27v1.08H1574.5v-1.08h3.31v-26.4h-3.31v-1.08H1589v5.76a8.08,8.08,0,0,1,8-6.36,6.63,6.63,0,0,1,4.6,1.59,5.77,5.77,0,0,1,1.77,4.5,6.74,6.74,0,0,1-1.33,4.47,5,5,0,0,1-4,1.56,4.59,4.59,0,0,1-4-1.8q-1.31-1.8-.33-5h2.16Q1597.3,382.84,1594.54,382.84Z"/>
        <path d="M1604,381.16h14.7v27.48H1622v1.08H1604.2v-1.08h3.3v-26.4H1604ZM1613,377q-3.18,0-4.53-1.62a6.07,6.07,0,0,1-1.35-4,5.54,5.54,0,0,1,1.47-4,5.87,5.87,0,0,1,4.47-1.56,6.59,6.59,0,0,1,4.56,1.41,5.14,5.14,0,0,1,1.56,4,5.76,5.76,0,0,1-1.5,4.17A6.23,6.23,0,0,1,1613,377Z"/>
        <path d="M1637.56,381.16v4.74a8.34,8.34,0,0,1,8.28-5.34,9.51,9.51,0,0,1,8,3.72q2.85,3.72,2.85,11.28t-3.09,11.16q-3.09,3.6-9.27,3.6a10,10,0,0,1-4.32-.72,5.66,5.66,0,0,1-2.34-2.22v15.54h7.74V424h-22.2v-1.08h3.3V382.24h-3.18v-1.08Zm7,4.11q-.6-2.13-2.34-2.13t-3.12,2.25a11.46,11.46,0,0,0-1.38,6v11a8.76,8.76,0,0,0,1,4.38,3.26,3.26,0,0,0,3,1.8q2,0,2.7-2.64a40.18,40.18,0,0,0,.72-9.24v-3.12A36.88,36.88,0,0,0,1644.52,385.27Z"/>
        <path d="M1661.5,401.14v-18.9h-3.3v-1.08h3.3v-7.74l11.16-2.76v10.5h7.8v1.08h-7.8v20.22a11.13,11.13,0,0,0,.57,4.14,2.31,2.31,0,0,0,2.37,1.32,3.89,3.89,0,0,0,3.15-1.8,10.43,10.43,0,0,0,1.77-4.92l1,.12a11.64,11.64,0,0,1-2.64,6.57q-2.16,2.43-7.14,2.43t-7.62-2Q1661.5,406.36,1661.5,401.14Z"/>
      </g>
    </g>
  </g>
</svg>
